<svg xmlns="http://www.w3.org/2000/svg" xmlns:xlink="http://www.w3.org/1999/xlink" width="102" height="73" viewBox="0 0 102 73">
  <defs>
    <filter id="Rechteck_921" x="0" y="0" width="102" height="73" filterUnits="userSpaceOnUse">
      <feOffset dy="3" input="SourceAlpha"/>
      <feGaussianBlur stdDeviation="3" result="blur"/>
      <feFlood flood-color="#464545"/>
      <feComposite operator="in" in2="blur"/>
      <feComposite in="SourceGraphic"/>
    </filter>
  </defs>
  <g id="Gruppe_2262" data-name="Gruppe 2262" transform="translate(4095 -14262)">
    <g id="Gruppe_2260" data-name="Gruppe 2260">
      <g transform="matrix(1, 0, 0, 1, -4095, 14262)" filter="url(#Rechteck_921)">
        <rect id="Rechteck_921-2" data-name="Rechteck 921" width="84" height="55" rx="8" transform="translate(9 6)" fill="#227c26"/>
      </g>
      <path id="Pfad_3637" data-name="Pfad 3637" d="M66.311,187.2H88.59a2.265,2.265,0,0,1,2.417,2.409q0,16.3,0,32.6a2.248,2.248,0,0,1-2.409,2.413q-12.586.01-25.172,0h-18.9a8.219,8.219,0,0,1-.867-.02,2.236,2.236,0,0,1-2.028-2.346q-.006-8.945,0-17.891,0-7.306,0-14.612a2.3,2.3,0,0,1,2.558-2.558q11.067,0,22.134,0Zm16.355,4.554H49.96l16.354,14.175Zm-20.1,16.879L49.8,220.08H82.831l-12.77-11.447c-.706.613-1.369,1.2-2.04,1.768a2.3,2.3,0,0,1-3.438-.017C63.928,209.815,63.275,209.246,62.567,208.63Zm10.919-2.967L86.46,217.291V194.424ZM46.14,217.317l13-11.654-13-11.26Z" transform="translate(-4110.619 14089.803)" fill="#ffe400" fill-rule="evenodd"/>
    </g>
  </g>
</svg>
