<svg xmlns="http://www.w3.org/2000/svg" width="94.46" height="68.91" viewBox="0 0 94.46 68.91"><path d="M13.229,0H81.235A13.225,13.225,0,0,1,94.46,13.225V55.683A13.227,13.227,0,0,1,81.233,68.91h-68A13.229,13.229,0,0,1,0,55.681V13.229A13.229,13.229,0,0,1,13.229,0Z" fill="#227c26"/><g transform="translate(31.967 9.468)"><path d="M1780.059,685.341h-4.973c-7.057,0-12.776.39-12.776,7.385v34.49c0,7,5.719,8.1,12.776,8.1h4.973c7.057,0,12.776-.786,12.776-7.787V693.083C1792.836,686.084,1787.117,685.341,1780.059,685.341Zm-8.693,2.46h12.95a1.056,1.056,0,1,1,0,2.111h-12.95a1.056,1.056,0,1,1,0-2.111Zm10.012,46.453h-6.9a1.509,1.509,0,1,1,0-3.019h6.9a1.509,1.509,0,1,1,0,3.019Zm8.929-4.076H1764.28v-38.92h26.028Z" transform="translate(-1762.31 -685.341)" fill="#ffe400"/><g transform="translate(5.216 17.658)"><path d="M1775.335,699.414a9.207,9.207,0,0,1,7.355,3.673l2.707-2.707a13.017,13.017,0,0,0-20.089-.056l2.711,2.713A9.194,9.194,0,0,1,1775.335,699.414Z" transform="translate(-1765.308 -695.614)" fill="#ffe400"/><path d="M1773.7,702.46a3.066,3.066,0,0,1,3.052,1.933l3.259-2.579a8.58,8.58,0,0,0-12.58-.064l3.242,2.572A3.088,3.088,0,0,1,1773.7,702.46Z" transform="translate(-1763.739 -693.08)" fill="#ffe400"/><path d="M1769.925,703.728a1.948,1.948,0,1,0,1.95-2.018A1.979,1.979,0,0,0,1769.925,703.728Z" transform="translate(-1761.892 -691.103)" fill="#ffe400"/></g></g></svg>