<svg xmlns="http://www.w3.org/2000/svg" xmlns:xlink="http://www.w3.org/1999/xlink" width="61.45" height="40.071" viewBox="0 0 61.45 40.071">
  <defs>
    <clipPath id="clip-path">
      <path id="Pfad_3468" data-name="Pfad 3468" d="M-1032.857,1277.7l-6.027,3.829-5.646-3.541-.574-.574-1.339-.67h-.861l-16.749-9.491-.764-1.035-.67-.479h-.765l-3.253-2.1-2.105-11.867,22.2-10.26,31.962,11.5-.192,4.306" transform="translate(1071.611 -1241.511)" fill="#464545" stroke="#161615" stroke-linejoin="round" stroke-miterlimit="10" stroke-width="0.05"/>
    </clipPath>
  </defs>
  <g id="Gruppe_1896" data-name="Gruppe 1896" transform="translate(-173.321 -24.975)">
    <path id="Pfad_3465" data-name="Pfad 3465" d="M-1032.857,1277.7l-6.027,3.829-5.646-3.541-.574-.574-1.339-.67h-.861l-16.749-9.491-.764-1.035-.67-.479h-.765l-3.253-2.1-2.105-11.867,22.2-10.26,31.962,11.5-.192,4.306" transform="translate(1244.958 -1216.511)" fill="#ffe400" stroke="#161615" stroke-linejoin="round" stroke-width="0.05"/>
    <g id="Gruppe_1577" data-name="Gruppe 1577" transform="translate(173.346 25)" clip-path="url(#clip-path)">
      <g id="Gruppe_1576" data-name="Gruppe 1576" transform="translate(-3.274 -9.052)">
        <rect id="Rechteck_375" data-name="Rechteck 375" width="70.331" height="53.964" fill="#464545" stroke="#161615" stroke-linejoin="round" stroke-width="0.05"/>
        <rect id="Rechteck_376" data-name="Rechteck 376" width="70.331" height="53.964" fill="#464545" stroke="#161615" stroke-linejoin="round" stroke-miterlimit="10" stroke-width="0.05"/>
      </g>
      <path id="Pfad_3466" data-name="Pfad 3466" d="M-995.962,1283.9l22.609-14.033Z" transform="translate(1027.521 -1258.035)" fill="#464545" stroke="#161615" stroke-linejoin="round" stroke-miterlimit="10" stroke-width="0.05"/>
      <path id="Pfad_3467" data-name="Pfad 3467" d="M-1038.884,1295.866l-1.168-14.16-31.559-15.6" transform="translate(1071.611 -1255.845)" fill="#464545" stroke="#161615" stroke-linejoin="round" stroke-miterlimit="10" stroke-width="0.05"/>
    </g>
    <path id="Pfad_3469" data-name="Pfad 3469" d="M-1032.857,1277.7l-6.027,3.829-5.646-3.541-.574-.574-1.339-.67h-.861l-16.749-9.491-.764-1.035-.67-.479h-.765l-3.253-2.1-2.105-11.867,22.2-10.26,31.962,11.5-.192,4.306" transform="translate(1244.958 -1216.511)" fill="none" stroke="#161615" stroke-linejoin="round" stroke-miterlimit="10" stroke-width="0.05"/>
    <path id="Pfad_3471" data-name="Pfad 3471" d="M-974.4,1302.147l14.954-11.1v-8.262l-9.167-3.315-15.728,10.488" transform="translate(1194.19 -1238.633)" fill="#464545" stroke="#161615" stroke-linejoin="round" stroke-miterlimit="10" stroke-width="0.05"/>
    <path id="Pfad_3472" data-name="Pfad 3472" d="M-959.343,1287.412l-15.018,11.031-9.971-3.755.271,9.03,9.7,3.027" transform="translate(1194.089 -1243.263)" fill="#464545" stroke="#161615" stroke-miterlimit="10" stroke-width="0.05"/>
    <line id="Linie_1" data-name="Linie 1" x2="0.046" y2="8.369" transform="translate(219.728 55.18)" fill="#ffe400" stroke="#161615" stroke-miterlimit="10" stroke-width="0.05"/>
    <g id="Gruppe_1854" data-name="Gruppe 1854" transform="translate(-18.762 -16.13)">
      <path id="Pfad_3470" data-name="Pfad 3470" d="M-1026.567,1266.463l-30.7-15.232,12.769-5.9,31.682,12.636Z" transform="translate(1255.36 -1202.607)" fill="#161b4b"/>
      <g id="Gruppe_1584" data-name="Gruppe 1584" transform="translate(209.388 46.554)">
        <path id="Pfad_3473" data-name="Pfad 3473" d="M-1020.983,1263.75l.174-.351-.749-.371-.416.23-.738-.365,2.5-1.392a.527.527,0,0,1,.517-.013.537.537,0,0,1,.274.3.477.477,0,0,1-.014.39l-.411.828-.622-.309.193-.391-.6.33.977.484-.462.932Z" transform="translate(1025.832 -1258.543)" fill="#238729"/>
        <path id="Pfad_3474" data-name="Pfad 3474" d="M-1014.377,1265.862l-1.384-.685-.126-.788,1.277.632-.533-1.573.849.42c.124.355.248.71.374,1.062a1.155,1.155,0,0,1,.082.616l-.087.173a.3.3,0,0,1-.193.161A.342.342,0,0,1-1014.377,1265.862Zm-.809-2.579.145-.292a.3.3,0,0,1,.191-.159.349.349,0,0,1,.263.025l1.257.623.127.786Z" transform="translate(1021.854 -1259.352)" fill="#238729"/>
        <path id="Pfad_3475" data-name="Pfad 3475" d="M-1007.952,1267.186l-.453.914-.619-.306.453-.915-.276-1.9.738.365.154,1.061.937-.521.738.365Z" transform="translate(1017.854 -1260.613)" fill="#238729"/>
        <g id="Gruppe_1583" data-name="Gruppe 1583" transform="translate(9 6.757)">
          <g id="Gruppe_1581" data-name="Gruppe 1581">
            <path id="Pfad_3476" data-name="Pfad 3476" d="M-1008.616,1273.039l1.154-2.33.618.306-1.154,2.33Zm1.567.776-.827-.409.289-.582,1.241.615Z" transform="translate(1008.616 -1270.709)" fill="#ffe800"/>
            <path id="Pfad_3477" data-name="Pfad 3477" d="M-1002.117,1277.465l.174-.35-.75-.371-.416.231-.738-.365,2.5-1.392a.532.532,0,0,1,.519-.012.533.533,0,0,1,.273.3.476.476,0,0,1-.014.39l-.411.828-.622-.308.193-.391-.6.331.976.484-.462.932Z" transform="translate(1005.836 -1273.293)" fill="#ffe800"/>
            <path id="Pfad_3478" data-name="Pfad 3478" d="M-995.263,1279.9l.713-1.437-.439.286q-.586.371-.894.219t-.365-.838c-.015-.175-.028-.352-.04-.528l-.713,1.438-.618-.306.929-1.875a.476.476,0,0,1,.3-.251.54.54,0,0,1,.408.037c.228.112.369.434.422.964.015.2.031.405.048.608.146-.095.294-.19.443-.284a2.91,2.91,0,0,1,.559-.291.69.69,0,0,1,.535,0,.539.539,0,0,1,.275.3.474.474,0,0,1-.017.392l-.928,1.875Z" transform="translate(1002.206 -1274.135)" fill="#ffe800"/>
            <path id="Pfad_3479" data-name="Pfad 3479" d="M-987.879,1282.44l-1.052-.521-.347.7-.622-.308.809-1.633.622.308-.174.35.742.368.231-.466-1.364-.676.287-.581,1.675.83a.341.341,0,0,1,.15.2.305.305,0,0,1,.015.241l-.521,1.052a.3.3,0,0,1-.195.15A.336.336,0,0,1-987.879,1282.44Z" transform="translate(997.708 -1276.114)" fill="#ffe800"/>
          </g>
          <g id="Gruppe_1582" data-name="Gruppe 1582" transform="translate(9.895 3.943)">
            <path id="Pfad_3480" data-name="Pfad 3480" d="M-981.775,1284.912a.1.1,0,0,0,.059.125l.518.21a.1.1,0,0,0,.128-.049.1.1,0,0,0-.059-.126l-.519-.211A.1.1,0,0,0-981.775,1284.912Z" transform="translate(983.082 -1282.897)" fill="#ffe800"/>
            <path id="Pfad_3481" data-name="Pfad 3481" d="M-982.919,1286.483a.086.086,0,0,0-.031.04.1.1,0,0,0,.016.094l.344.434a.107.107,0,0,0,.066.039.1.1,0,0,0,.074-.016.1.1,0,0,0,.032-.041.094.094,0,0,0-.016-.093l-.343-.434a.105.105,0,0,0-.066-.04A.1.1,0,0,0-982.919,1286.483Z" transform="translate(983.767 -1283.835)" fill="#ffe800"/>
            <path id="Pfad_3482" data-name="Pfad 3482" d="M-984.718,1287.7a.093.093,0,0,0,.081-.059.09.09,0,0,0,.005-.043l-.069-.532a.1.1,0,0,0-.111-.089.092.092,0,0,0-.08.057.088.088,0,0,0-.006.046l.069.532A.1.1,0,0,0-984.718,1287.7Z" transform="translate(984.898 -1284.131)" fill="#ffe800"/>
            <path id="Pfad_3483" data-name="Pfad 3483" d="M-981.388,1282.593a.093.093,0,0,0-.074.058.091.091,0,0,0-.005.051.105.105,0,0,0,.043.063.106.106,0,0,0,.075.019l.543-.075a.093.093,0,0,0,.075-.057.085.085,0,0,0,0-.051.1.1,0,0,0-.042-.062.1.1,0,0,0-.075-.019Z" transform="translate(982.9 -1281.535)" fill="#ffe800"/>
            <path id="Pfad_3484" data-name="Pfad 3484" d="M-982.435,1280.689a.1.1,0,0,0,.073-.022l.411-.338a.1.1,0,0,0,.028-.035.1.1,0,0,0-.02-.1.108.108,0,0,0-.068-.034.1.1,0,0,0-.072.021l-.412.336a.1.1,0,0,0-.027.036.1.1,0,0,0,.02.1A.107.107,0,0,0-982.435,1280.689Z" transform="translate(983.518 -1280.161)" fill="#ffe800"/>
          </g>
        </g>
        <path id="Pfad_3485" data-name="Pfad 3485" d="M-1009.851,1264.7a12.426,12.426,0,0,0-1.8-2.307,21.536,21.536,0,0,1-1.572-1.821,6.668,6.668,0,0,0-2.519-2.88c-4.212-2.873-6.78-2.1-8.25-2.552-4.031-1.233-4.719-.263-4.719-.263a.391.391,0,0,1-.161.056l-.145-.047a.435.435,0,0,0-.5.182c-.739,1.141-.8,1.135-.534,2.321" transform="translate(1030.191 -1254.512)" fill="none" stroke="#227c26" stroke-miterlimit="10" stroke-width="0.5"/>
        <path id="Pfad_3486" data-name="Pfad 3486" d="M-1026.043,1260.036l-1.568-.777,1.154-2.329,2.992,1.482-.808.313-1.849-.905-.578,1.166,1.36.674Zm.064-1.057-.454-.224.288-.581.869.43Z" transform="translate(1028.687 -1255.922)" fill="#238729"/>
      </g>
    </g>
  </g>
</svg>
