<svg xmlns="http://www.w3.org/2000/svg" width="43.829" height="43.865" viewBox="0 0 43.829 43.865"><g transform="translate(5882 -5721)"><g transform="translate(-6380.192 4945.814)"><path d="M504.335,783.307a18.97,18.97,0,0,0-.028-2.223c.219-.043,3.318-.078,3.05-1.448-.877-4.517,0-4.373-4.114-3.573a19,19,0,0,0-.9-2.091c.192-.129,3.006-1.361,2.23-2.515-2.563-3.8-1.705-4.028-5.158-1.7-.1-.111-.2-.22-.31-.33q-.648-.668-1.34-1.26c.132-.2,2.218-2.413,1.058-3.168-3.818-2.479-3.141-3.045-5.386.409a18.525,18.525,0,0,0-2.112-.815c.051-.265,1.128-3.014-.216-3.278-4.475-.868-4.054-1.647-4.842,2.407a18.984,18.984,0,0,0-2.369.07c-.053-.207-.253-3.325-1.61-2.988-4.38,1.093-4.371.216-3.387,4.159a18.617,18.617,0,0,0-2.086.955c-.115-.153-1.55-3.006-2.674-2.158-3.627,2.732-3.914,1.891-1.5,5.206a19.116,19.116,0,0,0-1.448,1.562c-.192-.123-2.434-2.24-3.192-1.071-2.513,3.871-3.039,3.144.5,5.443a18.744,18.744,0,0,0-.8,2.187c-.154-.02-3.282-1.054-3.48.36-.64,4.544-1.428,4.133,2.707,4.715a18.674,18.674,0,0,0,.1,2.2c-.136.034-3.466.253-3.12,1.642,1.119,4.49.229,4.367,4.341,3.342a18.28,18.28,0,0,0,.943,2.013c-.082.06-3.158,1.614-2.285,2.769,2.855,3.79,2.073,3.892,5.335,1.362l-.058-.059c-.162-.166.246-.085.058.059a18.9,18.9,0,0,0,1.624,1.486c-.036.061-2.311,2.76-1.049,3.49,4.048,2.333,3.309,2.856,5.44-.835a18.417,18.417,0,0,0,2.04.737c-.01.084-1.1,3.4.34,3.6,4.634.651,4.138,1.41,4.733-2.828a19.049,19.049,0,0,0,2.167-.093c.022.1.253,3.543,1.657,3.192,4.544-1.133,4.365-.243,3.33-4.4a18.617,18.617,0,0,0,1.974-.916c.074.1,1.545,3.147,2.708,2.3,3.788-2.755,3.949-1.857,1.448-5.339.4-.387.779-.787,1.137-1.2.118.076,2.551,2.363,3.328,1.163,2.539-3.907,3.03-3.153-.526-5.461a18.7,18.7,0,0,0,.818-2.049c.186.034,3.165,1.2,3.436-.187C507.712,783.637,508.472,784.112,504.335,783.307Zm-26.378-12.325a13.835,13.835,0,0,1,16.044.4.246.246,0,0,1,.024.39l-4.193,4.051a.317.317,0,0,1-.309.038,7.554,7.554,0,0,0-7.24-.222.325.325,0,0,1-.3-.051l-4.066-4.21A.247.247,0,0,1,477.956,770.982Zm9.8,13.528a2.96,2.96,0,1,1,.073-4.186A2.961,2.961,0,0,1,487.757,784.51Zm-13.008,5.873a.246.246,0,0,1-.388-.038,13.829,13.829,0,0,1,.222-16.129.248.248,0,0,1,.393-.025l4.081,4.226a.33.33,0,0,1,.042.3,7.546,7.546,0,0,0-.024,7.228.324.324,0,0,1-.048.307Zm18.779,3.45a13.841,13.841,0,0,1-15.887-.16.248.248,0,0,1-.03-.4l4.329-4.181a.332.332,0,0,1,.3-.044,7.555,7.555,0,0,0,6.864.029.332.332,0,0,1,.3.052l4.16,4.308A.248.248,0,0,1,493.528,793.833Zm3.348-3.258a.249.249,0,0,1-.394.029l-4.144-4.294A.327.327,0,0,1,492.3,786a7.549,7.549,0,0,0,.219-6.874.339.339,0,0,1,.054-.3l4.247-4.1a.249.249,0,0,1,.394.043A13.838,13.838,0,0,1,496.876,790.575Z" transform="translate(34.495 14.562)" fill="#464545" fill-rule="evenodd"/></g></g></svg>