<svg xmlns="http://www.w3.org/2000/svg" xmlns:xlink="http://www.w3.org/1999/xlink" width="62.157" height="62.2" viewBox="0 0 62.157 62.2"><defs><filter id="a" x="0" y="0" width="39.408" height="62.2" filterUnits="userSpaceOnUse"><feOffset dy="3" input="SourceAlpha"/><feGaussianBlur stdDeviation="3" result="b"/><feFlood flood-color="#464545"/><feComposite operator="in" in2="b"/><feComposite in="SourceGraphic"/></filter><filter id="c" x="3.656" y="4.081" width="31.739" height="49.921" filterUnits="userSpaceOnUse"><feOffset dy="3" input="SourceAlpha"/><feGaussianBlur stdDeviation="3" result="d"/><feFlood flood-color="#464545"/><feComposite operator="in" in2="d"/><feComposite in="SourceGraphic"/></filter></defs><g transform="translate(-860.706 -405.9)"><g transform="translate(853.227 417.954)"><path d="M3243.737,519.518c-.022-.068-.051-.143-.076-.219h-.114C3243.614,519.369,3243.676,519.448,3243.737,519.518Z" transform="translate(-3178.271 -505.821)" fill="#227c26" stroke="#161615" stroke-miterlimit="10" stroke-width="0.1"/><path d="M3230.307,519.4l.076-.067-.329-.323c-.14.391-.27.756-.385,1.087C3229.874,519.848,3230.091,519.618,3230.307,519.4Z" transform="translate(-3202.477 -506.348)" fill="#227c26" stroke="#161615" stroke-miterlimit="10" stroke-width="0.1"/><path d="M3230.659,525.215c1.157-3.287,2.576-7.322,2.849-8.106.478-1.363,1.986-2.377,4.422-2.377h21.27c2.446,0,3.9.978,4.531,2.947.38,1.186,1.862,5.279,2.992,8.35v-.837a1.2,1.2,0,0,1,.073-.424c-1.057-2.913-2.233-6.161-2.574-7.215-.651-2.043-2.163-3.051-4.7-3.051H3237.43c-2.537,0-4.1,1.048-4.591,2.464-.267.756-1.57,4.462-2.726,7.732a1.034,1.034,0,0,1,.124.138Q3230.448,525.034,3230.659,525.215Z" transform="translate(-3202.579 -514.502)" fill="#227c26" stroke="#161615" stroke-miterlimit="10" stroke-width="0.1"/><path d="M3258.848,514.584h-21.27c-2.436,0-3.944,1.014-4.422,2.377-.272.784-1.691,4.818-2.849,8.106a7.157,7.157,0,0,0,1.022.79,5.721,5.721,0,0,1,1.034-.374c1.042-2.827,2.452-6.614,2.711-7.311.413-1.13,1.739-1.981,3.891-1.981h18.71c2.151,0,3.436.812,3.992,2.458.335.983,1.636,4.386,2.619,6.948a7.028,7.028,0,0,1,2.084,1.152h0v-.868c-1.13-3.071-2.612-7.164-2.992-8.35C3262.748,515.562,3261.294,514.584,3258.848,514.584Z" transform="translate(-3202.229 -514.354)" fill="#227c26" stroke="#161615" stroke-miterlimit="10" stroke-width="0.1"/><path d="M3241.565,527.08l.3.39h.343v-.741h-.37Z" transform="translate(-3181.857 -492.377)" fill="#227c26" stroke="#161615" stroke-miterlimit="10" stroke-width="0.1"/><path d="M3242.339,525.41h-.409v.2h.563Z" transform="translate(-3181.196 -494.762)" fill="#227c26" stroke="#161615" stroke-miterlimit="10" stroke-width="0.1"/><path d="M3241.616,525.617h.5v-.208h-.343Z" transform="translate(-3181.765 -494.766)" fill="#227c26" stroke="#161615" stroke-miterlimit="10" stroke-width="0.1"/><path d="M3242.942,529.209c.82-.087,1.464-.6,1.464-1.239v-1.242h-1.464Z" transform="translate(-3179.366 -492.378)" fill="#227c26" stroke="#161615" stroke-miterlimit="10" stroke-width="0.1"/><path d="M3242.942,525.47v1.722h1.464v-2.655a4.859,4.859,0,0,1-1.18.812C3243.136,525.394,3243.038,525.43,3242.942,525.47Z" transform="translate(-3179.366 -496.343)" fill="#227c26" stroke="#161615" stroke-miterlimit="10" stroke-width="0.1"/><path d="M3243.064,525.21v-.278c-.127.053-.265.11-.4.163l.084.115Z" transform="translate(-3179.871 -495.628)" fill="#227c26" stroke="#161615" stroke-miterlimit="10" stroke-width="0.1"/><path d="M3243.2,525.645l-.329.427h-.436v.289h.5l.188-.239h.346v-.989h-.346l-.1-.138c-.19.076-.382.155-.584.225h.43Z" transform="translate(-3180.279 -495.512)" fill="#227c26" stroke="#161615" stroke-miterlimit="10" stroke-width="0.1"/><path d="M3242.371,525.8h.329v-.68c-.18.062-.346.126-.534.174l-.084.121Z" transform="translate(-3180.922 -495.282)" fill="#227c26" stroke="#161615" stroke-miterlimit="10" stroke-width="0.1"/><path d="M3243.142,527.435l-.3-.384h-.406v.768h.406Z" transform="translate(-3180.281 -491.794)" fill="#227c26" stroke="#161615" stroke-miterlimit="10" stroke-width="0.1"/><path d="M3242.082,527.435l.291.384h.326v-.768h-.326Z" transform="translate(-3180.922 -491.794)" fill="#227c26" stroke="#161615" stroke-miterlimit="10" stroke-width="0.1"/><path d="M3243.142,525.474l-.3-.385h-.406v.768h.406Z" transform="translate(-3180.281 -495.342)" fill="#227c26" stroke="#161615" stroke-miterlimit="10" stroke-width="0.1"/><path d="M3242.587,527.08l.3.39h.315v-.741h-.346Z" transform="translate(-3180.006 -492.377)" fill="#227c26" stroke="#161615" stroke-miterlimit="10" stroke-width="0.1"/><path d="M3242.633,527.08l-.271-.351h-.432v.741h.409Z" transform="translate(-3181.196 -492.377)" fill="#227c26" stroke="#161615" stroke-miterlimit="10" stroke-width="0.1"/><path d="M3242.638,525.617h.472v-.208h-.315Z" transform="translate(-3179.917 -494.766)" fill="#227c26" stroke="#161615" stroke-miterlimit="10" stroke-width="0.1"/><path d="M3242.1,527.435l-.294-.384h-.384v.768h.384Z" transform="translate(-3182.112 -491.794)" fill="#227c26" stroke="#161615" stroke-miterlimit="10" stroke-width="0.1"/><path d="M3242.369,525.762l.18.239h.425v-.289h-.352l-.328-.424.075-.093c-.146.039-.292.084-.438.132v.435Z" transform="translate(-3181.196 -495.152)" fill="#227c26" stroke="#161615" stroke-miterlimit="10" stroke-width="0.1"/><path d="M3242.884,527.373l-.3.379.233.3h.379v-.675Z" transform="translate(-3180.006 -491.211)" fill="#227c26" stroke="#161615" stroke-miterlimit="10" stroke-width="0.1"/><path d="M3240.77,526.728v1.242c0,.638.638,1.152,1.453,1.239v-2.481Z" transform="translate(-3183.296 -492.378)" fill="#227c26" stroke="#161615" stroke-miterlimit="10" stroke-width="0.1"/><path d="M3242.622,528.446l-.326-.428.326-.417h.352v-.873h-.549l.269.351-.323.428h-.439v.988h.439l.323.422-.23.3h.511v-.768Z" transform="translate(-3181.196 -492.377)" fill="#227c26" stroke="#161615" stroke-miterlimit="10" stroke-width="0.1"/><path d="M3241.894,525.408c-.3.073-.621.149-.942.208h.942Z" transform="translate(-3182.967 -494.766)" fill="#227c26" stroke="#161615" stroke-miterlimit="10" stroke-width="0.1"/><path d="M3241.864,527.373l-.3.379.232.3h.409v-.675Z" transform="translate(-3181.857 -491.211)" fill="#227c26" stroke="#161615" stroke-miterlimit="10" stroke-width="0.1"/><path d="M3242.092,528.5h.37v-.988h-.37l-.329-.428.269-.351h-.606v.867h.409l.332.422-.332.423h-.409v.774h.57l-.232-.3Z" transform="translate(-3182.112 -492.377)" fill="#227c26" stroke="#161615" stroke-miterlimit="10" stroke-width="0.1"/><path d="M3241.908,525.846l.184-.239h.37v-.326c-.169.045-.346.1-.522.143l-.106.132h-.407v.289Z" transform="translate(-3182.111 -494.996)" fill="#227c26" stroke="#161615" stroke-miterlimit="10" stroke-width="0.1"/><path d="M3242.339,527.373h-.409v.675h.473l.23-.3Z" transform="translate(-3181.196 -491.211)" fill="#227c26" stroke="#161615" stroke-miterlimit="10" stroke-width="0.1"/><path d="M3243.128,528.5h.346v-.988h-.346l-.324-.428.27-.351h-.637v.867h.437l.329.422-.329.423h-.437v.774h.595l-.228-.3Z" transform="translate(-3180.281 -492.377)" fill="#227c26" stroke="#161615" stroke-miterlimit="10" stroke-width="0.1"/><path d="M3241.762,525.338c-.093.022-.183.053-.281.07h.228Z" transform="translate(-3182.01 -494.893)" fill="#227c26" stroke="#161615" stroke-miterlimit="10" stroke-width="0.1"/><path d="M3242.587,525.664l.3.384h.315v-.565h-.472Z" transform="translate(-3180.006 -494.632)" fill="#227c26" stroke="#161615" stroke-miterlimit="10" stroke-width="0.1"/><path d="M3242.8,525.664l.138-.181h-.5v.692h.437l.329.428-.329.423h-.437v.988h.437l.329.428-.329.422h-.437v.121h.637l.055-.066h.346v-.993h-.346l-.324-.423.324-.428h.346v-.982h-.346Z" transform="translate(-3180.281 -494.632)" fill="#227c26" stroke="#161615" stroke-miterlimit="10" stroke-width="0.1"/><rect width="1.462" height="3.501" transform="translate(63.577 30.851)" fill="#227c26" stroke="#161615" stroke-miterlimit="10" stroke-width="0.1"/><path d="M3243.142,526.132l-.3-.39h-.406v.774h.406Z" transform="translate(-3180.281 -494.162)" fill="#227c26" stroke="#161615" stroke-miterlimit="10" stroke-width="0.1"/><path d="M3243.142,526.783l-.3-.385h-.406v.768h.406Z" transform="translate(-3180.281 -492.974)" fill="#227c26" stroke="#161615" stroke-miterlimit="10" stroke-width="0.1"/><path d="M3242.587,526.452l.3.384h.315v-.774h-.315Z" transform="translate(-3180.006 -493.582)" fill="#227c26" stroke="#161615" stroke-miterlimit="10" stroke-width="0.1"/><path d="M3242.683,526.746h.346v-.027h-.315Z" transform="translate(-3179.835 -492.394)" fill="#227c26" stroke="#161615" stroke-miterlimit="10" stroke-width="0.1"/><path d="M3241.565,525.664l.3.384h.343v-.565h-.5Z" transform="translate(-3181.857 -494.632)" fill="#227c26" stroke="#161615" stroke-miterlimit="10" stroke-width="0.1"/><path d="M3242.223,525.482h-.942c-.168.034-.342.073-.511.1v3.4h1.453Z" transform="translate(-3183.296 -494.633)" fill="#227c26" stroke="#161615" stroke-miterlimit="10" stroke-width="0.1"/><path d="M3242.633,526.458l-.294-.4h-.409v.774h.409Z" transform="translate(-3181.196 -493.582)" fill="#227c26" stroke="#161615" stroke-miterlimit="10" stroke-width="0.1"/><path d="M3241.763,525.664l.146-.181h-.483v.692h.409l.332.428-.332.423h-.409v.988h.409l.332.428-.332.422h-.409v.121h.606l.061-.066h.37v-.993h-.37l-.329-.423.329-.428h.37v-.982h-.37Z" transform="translate(-3182.112 -494.632)" fill="#227c26" stroke="#161615" stroke-miterlimit="10" stroke-width="0.1"/><rect width="0.42" height="0.031" transform="translate(60.735 34.323)" fill="#227c26" stroke="#161615" stroke-miterlimit="10" stroke-width="0.1"/><path d="M3242.082,526.128l.291.389h.326v-.774h-.326Z" transform="translate(-3180.922 -494.158)" fill="#227c26" stroke="#161615" stroke-miterlimit="10" stroke-width="0.1"/><path d="M3242.082,526.783l.291.384h.326V526.4h-.326Z" transform="translate(-3180.922 -492.974)" fill="#227c26" stroke="#161615" stroke-miterlimit="10" stroke-width="0.1"/><path d="M3242.693,525.664l-.323.428h-.439v.982h.439l.323.433-.323.417h-.439v.993h.439l.055.066h.549v-.121h-.352l-.326-.422.326-.423h.352v-.993h-.352l-.326-.423.326-.422h.352v-.7h-.423Z" transform="translate(-3181.196 -494.632)" fill="#227c26" stroke="#161615" stroke-miterlimit="10" stroke-width="0.1"/><path d="M3241.662,526.746h.37v-.027h-.343Z" transform="translate(-3181.682 -492.394)" fill="#227c26" stroke="#161615" stroke-miterlimit="10" stroke-width="0.1"/><path d="M3242.633,525.664l-.141-.181h-.562v.565h.409Z" transform="translate(-3181.196 -494.632)" fill="#227c26" stroke="#161615" stroke-miterlimit="10" stroke-width="0.1"/><path d="M3241.565,526.452l.3.384h.343v-.774h-.343Z" transform="translate(-3181.857 -493.582)" fill="#227c26" stroke="#161615" stroke-miterlimit="10" stroke-width="0.1"/><path d="M3242.1,526.783l-.294-.385h-.384v.768h.384Z" transform="translate(-3182.112 -492.974)" fill="#227c26" stroke="#161615" stroke-miterlimit="10" stroke-width="0.1"/><path d="M3242.1,526.132l-.294-.39h-.384v.774h.384Z" transform="translate(-3182.112 -494.162)" fill="#227c26" stroke="#161615" stroke-miterlimit="10" stroke-width="0.1"/><path d="M3242.7,525.638l-.138.181.324.428h.346V526.2h-.315l-.3-.384.141-.181.156-.208h.315V525.4h-.346Z" transform="translate(-3180.043 -494.787)" fill="#227c26" stroke="#161615" stroke-miterlimit="10" stroke-width="0.1"/><path d="M3242.843,525.114l.3.385-.3.384h-.406v.044h.437l.329-.428-.329-.423h-.432l0,.005v.033Z" transform="translate(-3180.281 -495.367)" fill="#227c26" stroke="#161615" stroke-miterlimit="10" stroke-width="0.1"/><path d="M3242.06,527.456l.326.428h.352v-.044h-.326l-.291-.384.291-.384h.326v-.033h-.352Z" transform="translate(-3180.961 -491.815)" fill="#227c26" stroke="#161615" stroke-miterlimit="10" stroke-width="0.1"/><path d="M3242.843,527.075l.3.384-.3.384h-.406v.038h.437l.329-.423-.329-.422h-.437v.038Z" transform="translate(-3180.281 -491.818)" fill="#227c26" stroke="#161615" stroke-miterlimit="10" stroke-width="0.1"/><path d="M3243.094,525.144v-.039h-.317l-.084-.115-.046.017.1.138Z" transform="translate(-3179.899 -495.523)" fill="#227c26" stroke="#161615" stroke-miterlimit="10" stroke-width="0.1"/><path d="M3242.921,527.4h.315v-.044h-.346l-.324.422.228.3h.063l-.233-.3Z" transform="translate(-3180.043 -491.239)" fill="#227c26" stroke="#161615" stroke-miterlimit="10" stroke-width="0.1"/><path d="M3242.388,525.73h.352v-.039h-.329l-.289-.385.084-.121a.245.245,0,0,1-.07.028l-.075.093Z" transform="translate(-3180.962 -495.17)" fill="#227c26" stroke="#161615" stroke-miterlimit="10" stroke-width="0.1"/><path d="M3241.809,527.075l.294.384-.294.384h-.384v.038h.409l.332-.423-.332-.422h-.409v.038Z" transform="translate(-3182.112 -491.818)" fill="#227c26" stroke="#161615" stroke-miterlimit="10" stroke-width="0.1"/><path d="M3242.37,527.357h-.439v.044h.409l.294.379-.23.3h.06l.23-.3Z" transform="translate(-3181.196 -491.239)" fill="#227c26" stroke="#161615" stroke-miterlimit="10" stroke-width="0.1"/><path d="M3241.939,525.332a.181.181,0,0,0-.075.017l-.054.07h-.228c-.051.011-.106.028-.157.045h.407Z" transform="translate(-3182.111 -494.904)" fill="#227c26" stroke="#161615" stroke-miterlimit="10" stroke-width="0.1"/><path d="M3241.69,525.638l-.146.181.329.428h.37V526.2h-.343l-.3-.384.143-.181.156-.208h.343V525.4h-.37Z" transform="translate(-3181.894 -494.787)" fill="#227c26" stroke="#161615" stroke-miterlimit="10" stroke-width="0.1"/><path d="M3241.9,527.4h.343v-.044h-.37l-.329.422.232.3h.058l-.232-.3Z" transform="translate(-3181.894 -491.239)" fill="#227c26" stroke="#161615" stroke-miterlimit="10" stroke-width="0.1"/><path d="M3242.166,526.157l-.332-.428h-.409v.038h.384l.294.39-.294.384h-.384v.039h.409Z" transform="translate(-3182.112 -494.186)" fill="#227c26" stroke="#161615" stroke-miterlimit="10" stroke-width="0.1"/><path d="M3242.693,526.482l-.323-.433h-.439v.038h.409l.294.4-.294.379h-.409v.039h.439Z" transform="translate(-3181.196 -493.607)" fill="#227c26" stroke="#161615" stroke-miterlimit="10" stroke-width="0.1"/><path d="M3242.836,526.771l-.27.351.324.428h.346v-.039h-.315l-.3-.39.267-.351.03-.027h.315v-.039h-.346Z" transform="translate(-3180.043 -492.419)" fill="#227c26" stroke="#161615" stroke-miterlimit="10" stroke-width="0.1"/><path d="M3243.2,526.811l-.329-.428h-.437v.044h.406l.3.385-.3.384h-.406v.038h.437Z" transform="translate(-3180.281 -493.002)" fill="#227c26" stroke="#161615" stroke-miterlimit="10" stroke-width="0.1"/><path d="M3241.93,526.705v.039h.409l.022.027.271.351-.294.39h-.409v.039h.439l.323-.428-.269-.351-.055-.066Z" transform="translate(-3181.196 -492.419)" fill="#227c26" stroke="#161615" stroke-miterlimit="10" stroke-width="0.1"/><path d="M3242.06,526.807l.326.422h.352v-.038h-.326l-.291-.384.291-.385h.326v-.038h-.352Z" transform="translate(-3180.961 -492.999)" fill="#227c26" stroke="#161615" stroke-miterlimit="10" stroke-width="0.1"/><path d="M3242.06,526.153l.326.423h.352v-.033h-.326l-.291-.389.291-.384h.326v-.038h-.352Z" transform="translate(-3180.961 -494.183)" fill="#227c26" stroke="#161615" stroke-miterlimit="10" stroke-width="0.1"/><path d="M3243.2,526.157l-.329-.428h-.437v.038h.406l.3.39-.3.384h-.406v.039h.437Z" transform="translate(-3180.281 -494.186)" fill="#227c26" stroke="#161615" stroke-miterlimit="10" stroke-width="0.1"/><path d="M3242.166,526.811l-.332-.428h-.409v.044h.384l.294.385-.294.384h-.384v.038h.409Z" transform="translate(-3182.112 -493.002)" fill="#227c26" stroke="#161615" stroke-miterlimit="10" stroke-width="0.1"/><path d="M3242.567,526.477l.324.423h.346v-.039h-.315l-.3-.384.3-.39h.315v-.038h-.346Z" transform="translate(-3180.043 -493.607)" fill="#227c26" stroke="#161615" stroke-miterlimit="10" stroke-width="0.1"/><path d="M3242.693,525.819l-.143-.181-.181-.241h-.439v.039h.409l.153.2.141.181-.294.384h-.409v.044h.439Z" transform="translate(-3181.196 -494.787)" fill="#227c26" stroke="#161615" stroke-miterlimit="10" stroke-width="0.1"/><path d="M3241.545,526.477l.329.423h.37v-.039h-.343l-.3-.384.3-.39h.343v-.038h-.37Z" transform="translate(-3181.894 -493.607)" fill="#227c26" stroke="#161615" stroke-miterlimit="10" stroke-width="0.1"/><path d="M3241.813,526.771l-.269.351.329.428h.37v-.039h-.343l-.3-.39.271-.351.027-.027h.343v-.039h-.37Z" transform="translate(-3181.894 -492.419)" fill="#227c26" stroke="#161615" stroke-miterlimit="10" stroke-width="0.1"/><path d="M3242.96,526.592v-1.723l-.011.011-.017,7.7h.027v-5.987Z" transform="translate(-3179.383 -495.742)" fill="#227c26" stroke="#161615" stroke-miterlimit="10" stroke-width="0.1"/><path d="M3242.9,524.914a.568.568,0,0,1-.1.051V532.5h.1Z" transform="translate(-3179.613 -495.66)" fill="#227c26" stroke="#161615" stroke-miterlimit="10" stroke-width="0.1"/><path d="M3243.1,524.873a2.347,2.347,0,0,1-.258.115v7.583h.258Z" transform="translate(-3179.549 -495.735)" fill="#227c26" stroke="#161615" stroke-miterlimit="10" stroke-width="0.1"/><path d="M3242.451,531.389v-6.311l-.022.005V532.2h.022v-.812Z" transform="translate(-3180.294 -495.363)" fill="#227c26" stroke="#161615" stroke-miterlimit="10" stroke-width="0.1"/><path d="M3242.4,525.111l-.095.034v7h.095Z" transform="translate(-3180.524 -495.304)" fill="#227c26" stroke="#161615" stroke-miterlimit="10" stroke-width="0.1"/><path d="M3242.6,525.08c-.09.034-.177.062-.262.087v7.03h.262Z" transform="translate(-3180.462 -495.36)" fill="#227c26" stroke="#161615" stroke-miterlimit="10" stroke-width="0.1"/><path d="M3241.944,531.185v-5.943l-.021.005V531.9h.021v-.719Z" transform="translate(-3181.21 -495.066)" fill="#227c26" stroke="#161615" stroke-miterlimit="10" stroke-width="0.1"/><path d="M3241.887,525.272a.447.447,0,0,1-.093.025v6.552h.093Z" transform="translate(-3181.444 -495.013)" fill="#227c26" stroke="#161615" stroke-miterlimit="10" stroke-width="0.1"/><path d="M3242.1,525.244c-.09.022-.181.056-.271.079V531.9h.271Z" transform="translate(-3181.384 -495.063)" fill="#227c26" stroke="#161615" stroke-miterlimit="10" stroke-width="0.1"/><path d="M3241.383,525.4l-.1.017v6.2h.1Z" transform="translate(-3182.361 -494.777)" fill="#227c26" stroke="#161615" stroke-miterlimit="10" stroke-width="0.1"/><path d="M3241.442,530.844v-5.466h-.021l-.006,6.278h.027v-.812Z" transform="translate(-3182.129 -494.819)" fill="#227c26" stroke="#161615" stroke-miterlimit="10" stroke-width="0.1"/><path d="M3241.585,525.379c-.087.022-.172.045-.264.064v6.212h.264Z" transform="translate(-3182.3 -494.819)" fill="#227c26" stroke="#161615" stroke-miterlimit="10" stroke-width="0.1"/><path d="M3230.2,526.728v1.242c0,.638.638,1.152,1.464,1.239v-2.481Z" transform="translate(-3201.555 -492.378)" fill="#227c26" stroke="#161615" stroke-miterlimit="10" stroke-width="0.1"/><path d="M3232.545,525.594v-.1c-.115-.02-.225-.054-.34-.076l-.138.174Z" transform="translate(-3198.276 -494.745)" fill="#227c26" stroke="#161615" stroke-miterlimit="10" stroke-width="0.1"/><path d="M3232.317,527.373l-.3.379.236.3h.381v-.675Z" transform="translate(-3198.365 -491.211)" fill="#227c26" stroke="#161615" stroke-miterlimit="10" stroke-width="0.1"/><path d="M3231.769,527.373h-.406v.675h.466l.236-.3Z" transform="translate(-3199.514 -491.211)" fill="#227c26" stroke="#161615" stroke-miterlimit="10" stroke-width="0.1"/><path d="M3232.051,528.446l-.323-.428.323-.417h.346v-.873h-.543l.269.351-.326.428h-.434v.988h.434l.326.422-.233.3h.508v-.768Z" transform="translate(-3199.517 -492.377)" fill="#227c26" stroke="#161615" stroke-miterlimit="10" stroke-width="0.1"/><path d="M3232.559,528.5h.349v-.988h-.349l-.329-.428.269-.351h-.631v.867h.437l.321.422-.321.423h-.437v.774h.6l-.236-.3Z" transform="translate(-3198.632 -492.377)" fill="#227c26" stroke="#161615" stroke-miterlimit="10" stroke-width="0.1"/><path d="M3231.292,527.373l-.293.379.23.3h.408v-.675Z" transform="translate(-3200.149 -491.211)" fill="#227c26" stroke="#161615" stroke-miterlimit="10" stroke-width="0.1"/><path d="M3231.521,528.5h.376v-.988h-.376l-.32-.428.269-.351h-.614v.867h.414l.321.422-.321.423h-.414v.774h.576l-.23-.3Z" transform="translate(-3200.404 -492.377)" fill="#227c26" stroke="#161615" stroke-miterlimit="10" stroke-width="0.1"/><path d="M3232.374,529.209c.825-.082,1.461-.6,1.461-1.239v-1.242h-1.461Z" transform="translate(-3197.752 -492.378)" fill="#227c26" stroke="#161615" stroke-miterlimit="10" stroke-width="0.1"/><path d="M3232.461,525.495l-.087-.02v.02Z" transform="translate(-3197.737 -494.645)" fill="#227c26" stroke="#161615" stroke-miterlimit="10" stroke-width="0.1"/><path d="M3231.8,525.715l.186.239h.413v-.289h-.346l-.23-.3c-.154-.045-.307-.1-.458-.143v.494Z" transform="translate(-3199.517 -495.105)" fill="#227c26" stroke="#161615" stroke-miterlimit="10" stroke-width="0.1"/><path d="M3231.533,527.435l-.288-.384h-.39v.768h.39Z" transform="translate(-3200.4 -491.794)" fill="#227c26" stroke="#161615" stroke-miterlimit="10" stroke-width="0.1"/><path d="M3231.893,525.367l-.015-.005-.011.005Z" transform="translate(-3198.621 -494.851)" fill="#227c26" stroke="#161615" stroke-miterlimit="10" stroke-width="0.1"/><path d="M3232.019,527.08l.3.39h.318v-.741h-.349Z" transform="translate(-3198.365 -492.377)" fill="#227c26" stroke="#161615" stroke-miterlimit="10" stroke-width="0.1"/><path d="M3232.056,525.521v-.11c-.166-.045-.334-.093-.506-.132l.186.242Z" transform="translate(-3199.183 -495)" fill="#227c26" stroke="#161615" stroke-miterlimit="10" stroke-width="0.1"/><path d="M3231,527.08l.293.39h.346v-.741h-.37Z" transform="translate(-3200.149 -492.377)" fill="#227c26" stroke="#161615" stroke-miterlimit="10" stroke-width="0.1"/><path d="M3231.512,527.435l.293.384h.321v-.768h-.321Z" transform="translate(-3199.251 -491.794)" fill="#227c26" stroke="#161615" stroke-miterlimit="10" stroke-width="0.1"/><path d="M3231.769,525.41h-.406v.2h.56Z" transform="translate(-3199.512 -494.762)" fill="#227c26" stroke="#161615" stroke-miterlimit="10" stroke-width="0.1"/><path d="M3232.57,527.435l-.293-.384h-.409v.768h.409Z" transform="translate(-3198.628 -491.794)" fill="#227c26" stroke="#161615" stroke-miterlimit="10" stroke-width="0.1"/><path d="M3232.064,527.08l-.269-.351h-.434v.741h.406Z" transform="translate(-3199.514 -492.377)" fill="#227c26" stroke="#161615" stroke-miterlimit="10" stroke-width="0.1"/><path d="M3231.868,525.668h.506l.14-.185-.466-.1h-.18Z" transform="translate(-3198.629 -494.819)" fill="#227c26" stroke="#161615" stroke-miterlimit="10" stroke-width="0.1"/><path d="M3230.854,525.857h.391l.289-.382-.255-.343a.827.827,0,0,1-.135-.042h-.29Z" transform="translate(-3200.401 -495.342)" fill="#227c26" stroke="#161615" stroke-miterlimit="10" stroke-width="0.1"/><path d="M3231.034,525.118l-.18-.065v.065Z" transform="translate(-3200.396 -495.409)" fill="#227c26" stroke="#161615" stroke-miterlimit="10" stroke-width="0.1"/><path d="M3231.271,525.857h-.416v.289h.486l.183-.239h.377v-.6c-.191-.062-.366-.126-.546-.188l.236.315Z" transform="translate(-3200.404 -495.297)" fill="#227c26" stroke="#161615" stroke-miterlimit="10" stroke-width="0.1"/><path d="M3231.664,525.432c-.4-.155-.787-.318-1.141-.483-.118-.059-.214-.132-.323-.191v2.034h1.464Z" transform="translate(-3201.555 -495.943)" fill="#227c26" stroke="#161615" stroke-miterlimit="10" stroke-width="0.1"/><path d="M3231.046,525.617h.5v-.208h-.346Z" transform="translate(-3200.063 -494.766)" fill="#227c26" stroke="#161615" stroke-miterlimit="10" stroke-width="0.1"/><path d="M3232.374,525.482v3.5h1.461v-3.248c-.467-.076-.925-.157-1.374-.253Z" transform="translate(-3197.752 -494.633)" fill="#227c26" stroke="#161615" stroke-miterlimit="10" stroke-width="0.1"/><path d="M3232.122,525.664l-.326.428h-.434v.982h.434l.326.433-.326.417h-.434v.993h.434l.058.066h.543v-.121h-.346l-.323-.422.323-.423h.346v-.993h-.346l-.323-.423.323-.422h.346v-.7h-.414Z" transform="translate(-3199.517 -494.632)" fill="#227c26" stroke="#161615" stroke-miterlimit="10" stroke-width="0.1"/><path d="M3231.512,526.128l.293.389h.321v-.774h-.321Z" transform="translate(-3199.251 -494.158)" fill="#227c26" stroke="#161615" stroke-miterlimit="10" stroke-width="0.1"/><path d="M3231.533,526.132l-.288-.39h-.39v.774h.39Z" transform="translate(-3200.4 -494.162)" fill="#227c26" stroke="#161615" stroke-miterlimit="10" stroke-width="0.1"/><path d="M3231.512,526.783l.293.384h.321V526.4h-.321Z" transform="translate(-3199.251 -492.974)" fill="#227c26" stroke="#161615" stroke-miterlimit="10" stroke-width="0.1"/><path d="M3231,526.452l.293.384h.346v-.774h-.346Z" transform="translate(-3200.149 -493.582)" fill="#227c26" stroke="#161615" stroke-miterlimit="10" stroke-width="0.1"/><path d="M3231.769,526.719h-.406v.027h.434Z" transform="translate(-3199.511 -492.394)" fill="#227c26" stroke="#161615" stroke-miterlimit="10" stroke-width="0.1"/><path d="M3231.533,526.783l-.288-.385h-.39v.768h.39Z" transform="translate(-3200.4 -492.974)" fill="#227c26" stroke="#161615" stroke-miterlimit="10" stroke-width="0.1"/><path d="M3231.095,526.746h.37v-.027h-.346Z" transform="translate(-3199.979 -492.394)" fill="#227c26" stroke="#161615" stroke-miterlimit="10" stroke-width="0.1"/><path d="M3232.064,525.664l-.143-.181h-.56v.565h.406Z" transform="translate(-3199.514 -494.632)" fill="#227c26" stroke="#161615" stroke-miterlimit="10" stroke-width="0.1"/><path d="M3232.019,526.452l.3.384h.318v-.774h-.318Z" transform="translate(-3198.365 -493.582)" fill="#227c26" stroke="#161615" stroke-miterlimit="10" stroke-width="0.1"/><path d="M3232.019,525.664l.3.384h.318v-.565h-.478Z" transform="translate(-3198.365 -494.632)" fill="#227c26" stroke="#161615" stroke-miterlimit="10" stroke-width="0.1"/><path d="M3232.114,526.746h.349v-.027h-.318Z" transform="translate(-3198.194 -492.394)" fill="#227c26" stroke="#161615" stroke-miterlimit="10" stroke-width="0.1"/><path d="M3232.57,526.783l-.293-.385h-.409v.768h.409Z" transform="translate(-3198.628 -492.974)" fill="#227c26" stroke="#161615" stroke-miterlimit="10" stroke-width="0.1"/><path d="M3232.57,526.132l-.293-.39h-.409v.774h.409Z" transform="translate(-3198.628 -494.162)" fill="#227c26" stroke="#161615" stroke-miterlimit="10" stroke-width="0.1"/><path d="M3232.064,526.458l-.3-.4h-.406v.774h.406Z" transform="translate(-3199.514 -493.582)" fill="#227c26" stroke="#161615" stroke-miterlimit="10" stroke-width="0.1"/><path d="M3231.2,525.664l.14-.181h-.485v.692h.414l.321.428-.321.423h-.414v.988h.414l.321.428-.321.422h-.414v.121h.614l.052-.066h.376v-.993h-.376l-.32-.423.32-.428h.376v-.982h-.376Z" transform="translate(-3200.404 -494.632)" fill="#227c26" stroke="#161615" stroke-miterlimit="10" stroke-width="0.1"/><path d="M3232.23,525.664l.143-.181h-.5v.692h.437l.321.428-.321.423h-.437v.988h.437l.321.428-.321.422h-.437v.121h.631l.061-.066h.349v-.993h-.349l-.329-.423.329-.428h.349v-.982h-.349Z" transform="translate(-3198.632 -494.632)" fill="#227c26" stroke="#161615" stroke-miterlimit="10" stroke-width="0.1"/><path d="M3231,525.664l.293.384h.346v-.565h-.5Z" transform="translate(-3200.149 -494.632)" fill="#227c26" stroke="#161615" stroke-miterlimit="10" stroke-width="0.1"/><rect width="1.462" height="3.501" transform="translate(28.646 30.851)" fill="#227c26" stroke="#161615" stroke-miterlimit="10" stroke-width="0.1"/><path d="M3232.087,525.573v-.039h-.32l-.186-.242-.048-.02.208.3Z" transform="translate(-3199.214 -495.013)" fill="#227c26" stroke="#161615" stroke-miterlimit="10" stroke-width="0.1"/><path d="M3230.854,525.115h.29c-.034-.011-.07-.028-.11-.039h-.18Z" transform="translate(-3200.397 -495.367)" fill="#227c26" stroke="#161615" stroke-miterlimit="10" stroke-width="0.1"/><path d="M3231.245,525.83h-.391v.045h.416l.32-.427-.236-.315c-.025-.011-.053-.017-.075-.028l.255.343Z" transform="translate(-3200.401 -495.315)" fill="#227c26" stroke="#161615" stroke-miterlimit="10" stroke-width="0.1"/><path d="M3231.8,527.357h-.434v.044h.406l.3.379-.236.3h.061l.233-.3Z" transform="translate(-3199.514 -491.239)" fill="#227c26" stroke="#161615" stroke-miterlimit="10" stroke-width="0.1"/><path d="M3231.868,525.408h.18a1.452,1.452,0,0,0-.154-.045h-.025Z" transform="translate(-3198.624 -494.848)" fill="#227c26" stroke="#161615" stroke-miterlimit="10" stroke-width="0.1"/><path d="M3231.118,525.638l-.14.181.32.428h.376V526.2h-.346l-.293-.384.134-.181.159-.208h.346V525.4h-.376Z" transform="translate(-3200.185 -494.787)" fill="#227c26" stroke="#161615" stroke-miterlimit="10" stroke-width="0.1"/><path d="M3231.329,527.4h.346v-.044h-.376l-.32.422.23.3h.058l-.23-.3Z" transform="translate(-3200.185 -491.239)" fill="#227c26" stroke="#161615" stroke-miterlimit="10" stroke-width="0.1"/><path d="M3231.245,527.075l.288.384-.288.384h-.39v.038h.414l.321-.423-.321-.422h-.414v.038Z" transform="translate(-3200.401 -491.818)" fill="#227c26" stroke="#161615" stroke-miterlimit="10" stroke-width="0.1"/><path d="M3232.356,527.4h.318v-.044h-.349l-.329.422.236.3h.061l-.236-.3Z" transform="translate(-3198.403 -491.239)" fill="#227c26" stroke="#161615" stroke-miterlimit="10" stroke-width="0.1"/><path d="M3231.493,527.456l.323.428h.346v-.044h-.321l-.293-.384.293-.384h.321v-.033h-.346Z" transform="translate(-3199.287 -491.815)" fill="#227c26" stroke="#161615" stroke-miterlimit="10" stroke-width="0.1"/><path d="M3232.277,527.075l.293.384-.293.384h-.409v.038h.437l.321-.423-.321-.422h-.437v.038Z" transform="translate(-3198.629 -491.818)" fill="#227c26" stroke="#161615" stroke-miterlimit="10" stroke-width="0.1"/><path d="M3232.625,526.811l-.321-.428h-.437v.044h.409l.293.385-.293.384h-.409v.038h.437Z" transform="translate(-3198.629 -493.002)" fill="#227c26" stroke="#161615" stroke-miterlimit="10" stroke-width="0.1"/><path d="M3232.625,526.157l-.321-.428h-.437v.038h.409l.293.39-.293.384h-.409v.039h.437Z" transform="translate(-3198.629 -494.186)" fill="#227c26" stroke="#161615" stroke-miterlimit="10" stroke-width="0.1"/><path d="M3231.591,526.811l-.321-.428h-.414v.044h.39l.288.385-.288.384h-.39v.038h.414Z" transform="translate(-3200.401 -493.002)" fill="#227c26" stroke="#161615" stroke-miterlimit="10" stroke-width="0.1"/><path d="M3232.265,526.771l-.269.351.329.428h.349v-.039h-.318l-.3-.39.269-.351.03-.027h.318v-.039h-.349Z" transform="translate(-3198.403 -492.419)" fill="#227c26" stroke="#161615" stroke-miterlimit="10" stroke-width="0.1"/><path d="M3231.591,526.157l-.321-.428h-.414v.038h.39l.288.39-.288.384h-.39v.039h.414Z" transform="translate(-3200.401 -494.186)" fill="#227c26" stroke="#161615" stroke-miterlimit="10" stroke-width="0.1"/><path d="M3232.122,526.482l-.326-.433h-.434v.038h.406l.3.4-.3.379h-.406v.039h.434Z" transform="translate(-3199.514 -493.607)" fill="#227c26" stroke="#161615" stroke-miterlimit="10" stroke-width="0.1"/><path d="M3231.362,526.705v.039h.406l.027.027.269.351-.3.39h-.406v.039h.434l.326-.428-.269-.351-.058-.066Z" transform="translate(-3199.514 -492.419)" fill="#227c26" stroke="#161615" stroke-miterlimit="10" stroke-width="0.1"/><path d="M3232.122,525.819l-.14-.181-.187-.241h-.434v.039h.406l.153.2.143.181-.3.384h-.406v.044h.434Z" transform="translate(-3199.514 -494.787)" fill="#227c26" stroke="#161615" stroke-miterlimit="10" stroke-width="0.1"/><path d="M3232,526.477l.329.423h.349v-.039h-.318l-.3-.384.3-.39h.318v-.038h-.349Z" transform="translate(-3198.403 -493.607)" fill="#227c26" stroke="#161615" stroke-miterlimit="10" stroke-width="0.1"/><path d="M3231.493,526.807l.323.422h.346v-.038h-.321l-.293-.384.293-.385h.321v-.038h-.346Z" transform="translate(-3199.287 -492.999)" fill="#227c26" stroke="#161615" stroke-miterlimit="10" stroke-width="0.1"/><path d="M3231.493,526.153l.323.423h.346v-.033h-.321l-.293-.389.293-.384h.321v-.038h-.346Z" transform="translate(-3199.287 -494.183)" fill="#227c26" stroke="#161615" stroke-miterlimit="10" stroke-width="0.1"/><path d="M3231.247,526.771l-.269.351.32.428h.376v-.039h-.346l-.293-.39.269-.351.024-.027h.346v-.039h-.376Z" transform="translate(-3200.185 -492.419)" fill="#227c26" stroke="#161615" stroke-miterlimit="10" stroke-width="0.1"/><path d="M3232,525.784l.329.427h.348v-.042h-.317l-.3-.385.138-.183.138-.174-.054-.011-.14.185Z" transform="translate(-3198.403 -494.752)" fill="#227c26" stroke="#161615" stroke-miterlimit="10" stroke-width="0.1"/><path d="M3230.979,526.477l.32.423h.376v-.039h-.346l-.293-.384.293-.39h.346v-.038h-.376Z" transform="translate(-3200.185 -493.607)" fill="#227c26" stroke="#161615" stroke-miterlimit="10" stroke-width="0.1"/><path d="M3232.394,525.5v-.022h-.02l-.011,6.009h.03V525.5Z" transform="translate(-3197.755 -494.646)" fill="#227c26" stroke="#161615" stroke-miterlimit="10" stroke-width="0.1"/><path d="M3232.333,525.469c-.028-.006-.059-.017-.1-.022v6.085h.1Z" transform="translate(-3197.975 -494.696)" fill="#227c26" stroke="#161615" stroke-miterlimit="10" stroke-width="0.1"/><path d="M3232.528,525.511c-.079-.017-.166-.039-.256-.056v6.063h.256Z" transform="translate(-3197.917 -494.681)" fill="#227c26" stroke="#161615" stroke-miterlimit="10" stroke-width="0.1"/><path d="M3231.885,530.88v-5.515l-.021-.005-.006,6.333h.027v-.812Z" transform="translate(-3198.638 -494.854)" fill="#227c26" stroke="#161615" stroke-miterlimit="10" stroke-width="0.1"/><path d="M3231.828,525.348a.868.868,0,0,1-.1-.022v6.426h.1Z" transform="translate(-3198.864 -494.915)" fill="#227c26" stroke="#161615" stroke-miterlimit="10" stroke-width="0.1"/><path d="M3232.026,525.4c-.09-.02-.168-.042-.262-.07v6.4h.262Z" transform="translate(-3198.805 -494.9)" fill="#227c26" stroke="#161615" stroke-miterlimit="10" stroke-width="0.1"/><path d="M3231.38,531.227v-6l-.027-.005v6.728h.027v-.719Z" transform="translate(-3199.524 -495.109)" fill="#227c26" stroke="#161615" stroke-miterlimit="10" stroke-width="0.1"/><path d="M3231.32,525.207c-.031-.008-.064-.02-.093-.025v6.83h.093Z" transform="translate(-3199.745 -495.175)" fill="#227c26" stroke="#161615" stroke-miterlimit="10" stroke-width="0.1"/><path d="M3231.521,525.27c-.09-.028-.177-.051-.261-.079V532h.261Z" transform="translate(-3199.689 -495.159)" fill="#227c26" stroke="#161615" stroke-miterlimit="10" stroke-width="0.1"/><path d="M3230.811,525.037a.249.249,0,0,1-.09-.039v7.347h.09Z" transform="translate(-3200.631 -495.508)" fill="#227c26" stroke="#161615" stroke-miterlimit="10" stroke-width="0.1"/><path d="M3230.874,531.438v-6.382l-.014-.005-.014,7.2h.027v-.812Z" transform="translate(-3200.412 -495.413)" fill="#227c26" stroke="#161615" stroke-miterlimit="10" stroke-width="0.1"/><path d="M3231.014,525.122c-.087-.034-.169-.073-.261-.109v7.308h.261Z" transform="translate(-3200.576 -495.483)" fill="#227c26" stroke="#161615" stroke-miterlimit="10" stroke-width="0.1"/><path d="M3231.706,518.581a5.721,5.721,0,0,0-1.034.374,3.387,3.387,0,0,0,2.627.68,10.278,10.278,0,0,1,.112-1.219A4.871,4.871,0,0,0,3231.706,518.581Z" transform="translate(-3200.74 -507.452)" fill="#227c26" stroke="#161615" stroke-miterlimit="10" stroke-width="0.1"/><path d="M3231.265,519.306l-.171-.183-.076.067c-.216.219-.433.45-.638.7a11.416,11.416,0,0,0-1.1,1.584,1.472,1.472,0,1,0,1.989-2.166Z" transform="translate(-3203.179 -506.14)" fill="#227c26" stroke="#161615" stroke-miterlimit="10" stroke-width="0.1"/><path d="M3231.719,518.646a10.278,10.278,0,0,0-.112,1.219,1.142,1.142,0,0,0,.422-.247l1.374-1.349h-1.628C3231.748,518.391,3231.736,518.52,3231.719,518.646Z" transform="translate(-3199.097 -507.683)" fill="#227c26" stroke="#161615" stroke-miterlimit="10" stroke-width="0.1"/><g transform="translate(25.05 20.583)"><path d="M3229.363,522.145c-.152,2-.72,6,2.593,7.915.109.059.205.132.323.191.354.166.738.329,1.141.483a.249.249,0,0,0,.09.039c.092.036.174.076.261.109l.025.005.18.065c.04.011.076.028.11.039a.827.827,0,0,0,.135.042c.022.011.05.017.075.028.18.062.354.126.546.188.028.006.062.017.093.025.084.028.171.051.261.079l.017.006c.16.048.313.1.467.143a.358.358,0,0,1,.07.02c.172.039.34.087.506.132a.868.868,0,0,0,.1.022c.094.028.172.051.262.07l.028.006.025.005a1.452,1.452,0,0,1,.154.045l.466.1.054.011c.115.022.225.056.34.076.037.005.067.017.1.022.09.017.177.039.256.056h.031l.087.02c.449.1.907.177,1.374.253a56.218,56.218,0,0,0,10.634.708,55.288,55.288,0,0,0,11.494-.86c.169-.028.343-.067.511-.1.321-.059.639-.135.942-.208l.1-.017c.092-.02.177-.042.264-.064h.028c.051-.017.106-.034.157-.045.1-.017.188-.048.281-.07a.181.181,0,0,1,.075-.017c.177-.048.354-.1.522-.143a.447.447,0,0,0,.093-.025c.09-.022.181-.056.271-.079l.011-.006c.157-.048.3-.093.449-.132a.245.245,0,0,0,.07-.028c.188-.048.354-.112.534-.174l.095-.034c.085-.025.172-.053.262-.087l.018-.006.011-.006c.2-.07.394-.149.584-.225l.046-.017c.137-.053.274-.11.4-.163a.568.568,0,0,0,.1-.051,2.347,2.347,0,0,0,.258-.115l.025-.011c.1-.039.194-.076.284-.121a4.859,4.859,0,0,0,1.18-.812c2.554-2.354,1.818-6.847,1.7-7.507l-.014-.082c.139-.329-1.446,3.1-.6,1.394-.658,1.728.334-.2.334-.2-.059.9-.626,2.09-3,2.621-3.874.874-10.5,1.357-17.481,1.284-6.981.073-13.606-.41-17.479-1.284a8.629,8.629,0,0,1-3.259-1.278" transform="translate(-3229.229 -521.828)" fill="#227c26" stroke="#161615" stroke-miterlimit="10" stroke-width="0.1"/></g><g transform="translate(32.898 9.609)"><path d="M3259.537,518.63c-.017-.121-.03-.247-.053-.36h-23.331a9.332,9.332,0,0,1-2.782,6.442,9.678,9.678,0,0,1-1.348,1.1,18.326,18.326,0,0,0,6.1,7.766c2.56.081,5.065.087,7.437.076,2.272-.011,4.555-.028,6.853-.11,4.336-3.091,7.261-8.583,7.261-13.253A10.758,10.758,0,0,0,3259.537,518.63Z" transform="translate(-3232.023 -517.292)" fill="#227c26" stroke="#161615" stroke-miterlimit="10" stroke-width="0.1"/><path d="M3247.605,517.922h-3.489a.987.987,0,0,0-.9.657,1.2,1.2,0,0,0-.073.424v1.705h0a1.027,1.027,0,0,0,.973,1.082h3.489a1.03,1.03,0,0,0,.98-1.082V519A1.034,1.034,0,0,0,3247.605,517.922Z" transform="translate(-3211.898 -517.922)" fill="#227c26" stroke="#161615" stroke-miterlimit="10" stroke-width="0.1"/></g><path d="M3234.125,522.537a2.116,2.116,0,1,1-4.23-.045,2.467,2.467,0,0,1,.117-.669.622.622,0,0,1-.1-.006,2.093,2.093,0,0,0-.115.674,2.214,2.214,0,1,0,4.426.045,2.3,2.3,0,0,0-.323-1.2.547.547,0,0,1-.1.034A2.256,2.256,0,0,1,3234.125,522.537Z" transform="translate(-3202.289 -502.139)" fill="#227c26" stroke="#161615" stroke-miterlimit="10" stroke-width="0.1"/><path d="M3229.318,521.448l.053.022c.059.017.12.031.174.048l.051-.045c-.081-.014-.166-.042-.241-.059Z" transform="translate(-3203.087 -501.994)" fill="#227c26" stroke="#161615" stroke-miterlimit="10" stroke-width="0.1"/><path d="M3229.537,521.466c-.11-.028-.214-.048-.32-.081.095.036.193.076.284.115Z" transform="translate(-3203.264 -502.046)" fill="#227c26" stroke="#161615" stroke-miterlimit="10" stroke-width="0.1"/><path d="M3229.086,522.139c.056.022.115.039.171.056l.051.022.714-.714a.4.4,0,0,1-.057-.022c-.054-.017-.115-.031-.174-.048C3229.653,521.563,3229.414,521.8,3229.086,522.139Z" transform="translate(-3203.499 -501.958)" fill="#227c26" stroke="#161615" stroke-miterlimit="10" stroke-width="0.1"/><path d="M3230.241,521.6c-.091-.039-.189-.079-.284-.115-.158-.045-.3-.1-.453-.149-.193.191-.429.427-.7.691.242.1.48.2.728.281l.054.02c.328-.334.567-.576.705-.705Z" transform="translate(-3203.989 -502.142)" fill="#227c26" stroke="#161615" stroke-miterlimit="10" stroke-width="0.1"/><path d="M3228.385,518.594a1.549,1.549,0,0,1,2.175.093l1.817,1.818.329.323.171.183a1.535,1.535,0,0,1,.094,2.172,1.548,1.548,0,0,0-.079-2.183l-2.323-2.329A1.553,1.553,0,0,0,3228.385,518.594Z" transform="translate(-3204.757 -507.845)" fill="#227c26" stroke="#161615" stroke-miterlimit="10" stroke-width="0.1"/><path d="M3231.154,522.91l-.1-.076-2.317-2.329a1.541,1.541,0,0,1-.09-2.177,1.546,1.546,0,0,0,.079,2.183l2.317,2.332a1.552,1.552,0,0,0,2.189.073A1.525,1.525,0,0,1,3231.154,522.91Z" transform="translate(-3205.014 -507.578)" fill="#227c26" stroke="#161615" stroke-miterlimit="10" stroke-width="0.1"/><path d="M3235.785,528.109c2.677.34,5.346.517,7.962.61a18.326,18.326,0,0,1-6.1-7.766,9.617,9.617,0,0,1-2.158,1.07,2.3,2.3,0,0,1,.323,1.2,2.214,2.214,0,1,1-4.426-.045,2.093,2.093,0,0,1,.115-.674,9.386,9.386,0,0,1-1.177-.2l-.051.045a.4.4,0,0,0,.057.022l-.714.714-.051-.022-.651.655a7.923,7.923,0,0,0,1.018,2.551c.03-.188.059-.3.059-.3A31.325,31.325,0,0,0,3235.785,528.109Z" transform="translate(-3203.933 -502.828)" fill="#227c26" stroke="#161615" stroke-miterlimit="10" stroke-width="0.1"/><path d="M3251.108,520.929a1.027,1.027,0,0,1-.973-1.082,7.028,7.028,0,0,0-2.084-1.152,5.38,5.38,0,0,0-1.647-.3,10.758,10.758,0,0,1,.136,1.657c0,4.67-2.925,10.162-7.261,13.253,2.534-.076,5.1-.242,7.719-.576a31.318,31.318,0,0,0,5.717-2.135.6.6,0,0,1,.014.09c2.13-3.74.633-7.3-1.27-9.538-.062-.07-.123-.149-.19-.219Zm-1.27,9.718a2.281,2.281,0,1,1,2.238-2.262A2.266,2.266,0,0,1,3249.839,530.648Z" transform="translate(-3185.992 -507.452)" fill="#227c26" stroke="#161615" stroke-miterlimit="10" stroke-width="0.1"/></g><g transform="matrix(1, 0, 0, 1, 860.71, 405.9)" filter="url(#a)"><path d="M271.1,843.906c-.884-.76-1.008-1.282-.559-2.67q2.123-6.558,4.266-13.107c.1-.292.175-.591.3-1.026-1.067,0-2.04,0-3.013,0s-1.964-.01-2.946-.024c-2.034-.027-2.711-1.381-1.822-3.651q1.375-3.511,2.758-7.017c1.8-4.592,3.634-9.168,5.394-13.785a4.212,4.212,0,0,1,2.316-2.72h9.089c1.4.841,1.647,1.836.867,3.524q-2.8,6.069-5.613,12.134c-.128.276-.244.561-.45,1.035,1.01,0,1.894,0,2.778,0a18.081,18.081,0,0,1,2.15.042c1.426.179,1.976,1.7,1.1,3.1-1.286,2.072-2.627,4.094-3.951,6.132q-5.459,8.406-10.932,16.8a10.333,10.333,0,0,1-1.1,1.231Z" transform="translate(-257.84 -793.81)" fill="#227c26" stroke="#707070" stroke-width="0.2" fill-rule="evenodd"/></g><g transform="matrix(1, 0, 0, 1, 860.71, 405.9)" filter="url(#c)"><path d="M267.022,822.827c-.442-.31-.5-.522-.279-1.087.707-1.781,3.421-8.559,4.131-10.339.048-.119.087-.241.151-.418-.533,0-1.019,0-1.5,0s-.981,0-1.472-.01c-1.016-.011-5.642.51-5.2-.415.458-.953,7.481-16.664,8.36-18.545a1.873,1.873,0,0,1,1.157-1.108h3.54c.7.342.823.748.433,1.435-.934,1.648-5.869,12.295-6.8,13.942-.064.113-.122.228-.225.421.5,0,4.946,0,5.387,0,.358,0,.719-.019,1.074.017a.741.741,0,0,1,.552,1.263c-.643.844-6.475,11.342-8.434,14.34a4.643,4.643,0,0,1-.55.5Z" transform="translate(-250.16 -780.82)" fill="#ffe400" fill-rule="evenodd"/></g></g></svg>