<svg xmlns="http://www.w3.org/2000/svg" width="33.189" height="28.035" viewBox="0 0 33.189 28.035"><g transform="translate(-975 -496)"><g transform="translate(1020.616 496)"><g transform="translate(-45.615)"><rect width="33.189" height="28.035" rx="5" fill="#ffe400"/></g></g><g transform="translate(981 520.084) rotate(-90)"><path d="M3000.885,175.819a.336.336,0,0,0,.42-.149.462.462,0,0,0,.026-.523q-.859-1.627-1.731-3.254c-.246-.359-.689-1.219-.773-1.375a14.567,14.567,0,0,0-1.176-1.893c-.312-.62-.633-1.231-.969-1.832a2.519,2.519,0,0,1-.041-2.538c.319-.616.618-1.241.911-1.866.495-1.041,1.177-2.037,1.662-3.078a2.942,2.942,0,0,1,.427-.757c.545-1.111.851-1.737,1.4-2.848a.451.451,0,0,0-.062-.515.33.33,0,0,0-.45-.11c-.459.235-.92.467-1.38.7a1.73,1.73,0,0,1-.433.281c-.506.225-.941.655-1.447.887-.6.278-1.193.6-1.792.9-.786.34-1.532.794-2.319,1.141-.71.349-1.412.725-2.129,1.065-.607.315-1.217.616-1.835.911-.575.286-1.146.591-1.725.862-.578.288-1.144.594-1.723.86-.583.3-1.174.591-1.757.882-.792.384-1.568.789-2.356,1.175-.314.147-.628.291-.93.467a.691.691,0,0,0-.193,1.094.964.964,0,0,0,.357.242c.265.115.53.239.8.359" transform="translate(-2980.315 -155.033)" fill="#227c26" fill-rule="evenodd"/></g></g></svg>