<svg xmlns="http://www.w3.org/2000/svg" xmlns:xlink="http://www.w3.org/1999/xlink" width="94.455" height="68.912" viewBox="0 0 94.455 68.912"><defs><clipPath id="a"><path d="M-1029.671,1280.678l-6.523,4.144-6.11-3.832-.622-.621-1.45-.725h-.932l-18.126-10.272-.826-1.12-.725-.519h-.828l-3.521-2.278-2.279-12.842,24.026-11.1,34.59,12.45-.207,4.66" transform="translate(1071.611 -1241.511)" fill="#ffe400" stroke="#161615" stroke-linejoin="round" stroke-miterlimit="10" stroke-width="0.3"/></clipPath></defs><g transform="translate(6123 -5817)"><g transform="translate(-6123 5817)"><path d="M13.328,0h67.8A13.328,13.328,0,0,1,94.455,13.328V55.58A13.332,13.332,0,0,1,81.123,68.912H13.332A13.332,13.332,0,0,1,0,55.58V13.328A13.328,13.328,0,0,1,13.328,0Z" fill="#227c26"/></g><g transform="translate(-6108.992 5829.79)"><g transform="translate(0 0)"><path d="M-1029.671,1280.678l-6.523,4.144-6.11-3.832-.622-.621-1.45-.725h-.932l-18.126-10.272-.826-1.12-.725-.519h-.828l-3.521-2.278-2.279-12.842,24.026-11.1,34.59,12.45-.207,4.66" transform="translate(1071.611 -1241.511)" fill="#ffe400" stroke="#161615" stroke-linejoin="round" stroke-width="0.3"/><g clip-path="url(#a)"><g transform="translate(-3.543 -9.796)"><rect width="76.114" height="58.401" fill="#ffe400" stroke="#161615" stroke-linejoin="round" stroke-width="0.3"/><rect width="76.114" height="58.401" fill="none" stroke="#161615" stroke-linejoin="round" stroke-miterlimit="10" stroke-width="0.3"/></g><path d="M-995.962,1285.05l24.469-15.187Z" transform="translate(1030.116 -1257.063)" fill="#ffe400" stroke="#161615" stroke-linejoin="round" stroke-miterlimit="10" stroke-width="0.3"/><path d="M-1036.193,1298.313l-1.264-15.325-34.154-16.884" transform="translate(1071.611 -1255.001)" fill="#ffe400" stroke="#161615" stroke-linejoin="round" stroke-miterlimit="10" stroke-width="0.3"/></g><path d="M-1029.671,1280.678l-6.523,4.144-6.11-3.832-.622-.621-1.45-.725h-.932l-18.126-10.272-.826-1.12-.725-.519h-.828l-3.521-2.278-2.279-12.842,24.026-11.1,34.59,12.45-.207,4.66" transform="translate(1071.611 -1241.511)" fill="none" stroke="#161615" stroke-linejoin="round" stroke-miterlimit="10" stroke-width="0.3"/><path d="M-1024.043,1268.2l-33.225-16.484,13.819-6.386,34.114,13.227Z" transform="translate(1063.743 -1243.606)" fill="#161b4b" stroke="#161615" stroke-linejoin="round" stroke-miterlimit="10" stroke-width="0.3"/></g><path d="M-973.776,1303.978-957.4,1292v-8.941l-9.921-3.587-17.021,11.35" transform="translate(1023.845 -1262.331)" fill="#ffe400" stroke="#161615" stroke-linejoin="round" stroke-miterlimit="10" stroke-width="0.3"/><path d="M-957.288,1287.412l-16.253,11.938-10.791-4.063.294,9.773,10.5,3.276" transform="translate(1023.736 -1266.689)" fill="#ffe400" stroke="#161615" stroke-miterlimit="10" stroke-width="0.3"/><line x2="0.05" y2="9.057" transform="translate(50.195 32.661)" fill="#ffe400" stroke="#161615" stroke-miterlimit="10" stroke-width="0.3"/><g transform="translate(18.701 5.87)"><path d="M-1020.841,1263.941l.188-.38-.811-.4-.451.249-.8-.4,2.711-1.506a.57.57,0,0,1,.56-.014.583.583,0,0,1,.3.329.517.517,0,0,1-.015.423l-.444.9-.673-.335.209-.423-.655.358,1.057.524-.5,1.008Z" transform="translate(1026.089 -1258.306)" fill="#238729"/><path d="M-1014.253,1266.112l-1.5-.741-.137-.853,1.381.684-.577-1.7.919.455c.135.385.268.768.4,1.15a1.248,1.248,0,0,1,.089.667l-.094.188a.326.326,0,0,1-.209.174A.37.37,0,0,1-1014.253,1266.112Zm-.876-2.791.157-.316a.327.327,0,0,1,.206-.172.378.378,0,0,1,.285.027l1.36.674.138.851Z" transform="translate(1022.345 -1259.067)" fill="#238729"/><path d="M-1007.864,1267.367l-.49.989-.669-.331.49-.99-.3-2.055.8.4.167,1.148,1.014-.563.8.4Z" transform="translate(1018.58 -1260.254)" fill="#238729"/><g transform="translate(9.74 7.312)"><path d="M-1008.616,1273.23l1.249-2.521.669.331-1.249,2.521Zm1.7.84-.894-.443.313-.63,1.343.666Z" transform="translate(1008.616 -1270.709)" fill="#ffe800"/><path d="M-1001.975,1277.656l.188-.379-.811-.4-.45.25-.8-.4,2.709-1.507a.576.576,0,0,1,.562-.013.577.577,0,0,1,.3.329.515.515,0,0,1-.015.422l-.445.9-.673-.333.209-.423-.654.358,1.057.524-.5,1.008Z" transform="translate(1006 -1273.141)" fill="#ffe800"/><path d="M-995.069,1280.178l.771-1.556-.475.309q-.635.4-.967.237t-.395-.906c-.017-.189-.031-.381-.043-.572l-.771,1.556-.669-.331,1-2.029a.516.516,0,0,1,.326-.272.584.584,0,0,1,.442.04c.247.121.4.47.456,1.043q.024.328.052.658c.158-.1.318-.206.479-.307a3.149,3.149,0,0,1,.605-.315.746.746,0,0,1,.578,0,.582.582,0,0,1,.3.328.514.514,0,0,1-.018.424l-1,2.029Z" transform="translate(1002.583 -1273.933)" fill="#ffe800"/><path d="M-987.712,1282.643l-1.139-.564-.376.759-.674-.334.875-1.767.673.334-.188.379.8.4.25-.5-1.476-.731.311-.628,1.813.9a.368.368,0,0,1,.162.216.329.329,0,0,1,.016.261l-.564,1.138a.324.324,0,0,1-.211.163A.364.364,0,0,1-987.712,1282.643Z" transform="translate(998.35 -1275.796)" fill="#ffe800"/><g transform="translate(10.708 4.267)"><path d="M-981.774,1284.917a.106.106,0,0,0,.064.136l.561.228a.1.1,0,0,0,.139-.053.107.107,0,0,0-.064-.136l-.561-.228A.1.1,0,0,0-981.774,1284.917Z" transform="translate(983.188 -1282.736)" fill="#ffe800"/><path d="M-982.916,1286.484a.1.1,0,0,0-.034.043.1.1,0,0,0,.017.1l.372.469a.115.115,0,0,0,.071.042.108.108,0,0,0,.08-.018.112.112,0,0,0,.035-.044.1.1,0,0,0-.018-.1l-.372-.47a.115.115,0,0,0-.071-.043A.114.114,0,0,0-982.916,1286.484Z" transform="translate(983.833 -1283.619)" fill="#ffe800"/><path d="M-984.7,1287.755a.1.1,0,0,0,.088-.064.1.1,0,0,0,.006-.047l-.075-.576a.113.113,0,0,0-.12-.1.1.1,0,0,0-.087.062.1.1,0,0,0-.006.05l.074.576A.112.112,0,0,0-984.7,1287.755Z" transform="translate(984.898 -1283.897)" fill="#ffe800"/><path d="M-981.382,1282.6a.1.1,0,0,0-.08.062.1.1,0,0,0-.006.055.114.114,0,0,0,.046.069.114.114,0,0,0,.081.02l.587-.081a.1.1,0,0,0,.081-.061.093.093,0,0,0,0-.056.108.108,0,0,0-.045-.067.11.11,0,0,0-.081-.02Z" transform="translate(983.017 -1281.454)" fill="#ffe800"/><path d="M-982.428,1280.732a.109.109,0,0,0,.079-.023l.444-.365a.1.1,0,0,0,.03-.038.105.105,0,0,0-.022-.107.117.117,0,0,0-.074-.037.1.1,0,0,0-.078.023l-.446.364a.109.109,0,0,0-.029.039.1.1,0,0,0,.021.106A.117.117,0,0,0-982.428,1280.732Z" transform="translate(983.599 -1280.161)" fill="#ffe800"/></g></g><path d="M-1008.179,1265.536a13.446,13.446,0,0,0-1.948-2.5,23.336,23.336,0,0,1-1.7-1.971c-1.078-1.77-1.236-2.1-2.726-3.117-4.558-3.109-7.337-2.276-8.928-2.762-4.363-1.335-5.108-.285-5.108-.285a.422.422,0,0,1-.174.061l-.157-.051a.472.472,0,0,0-.537.2c-.8,1.235-.863,1.229-.578,2.511" transform="translate(1030.191 -1254.512)" fill="none" stroke="#00862f" stroke-miterlimit="10" stroke-width="1"/><path d="M-1025.914,1260.292l-1.7-.841,1.248-2.521,3.239,1.6-.875.339-2-.98-.626,1.262,1.472.73Zm.07-1.144-.491-.243.312-.629.94.466Z" transform="translate(1028.776 -1255.839)" fill="#238729"/></g></g></g></svg>