<svg xmlns="http://www.w3.org/2000/svg" width="94.455" height="68.912" viewBox="0 0 94.455 68.912"><g transform="translate(5720 -5784)"><g transform="translate(-5720 5784)"><g transform="translate(0 0)"><path d="M13.328,0h67.8A13.328,13.328,0,0,1,94.455,13.328V55.58A13.332,13.332,0,0,1,81.123,68.912H13.332A13.332,13.332,0,0,1,0,55.58V13.328A13.328,13.328,0,0,1,13.328,0Z" fill="#00862f"/></g><g transform="translate(14.397)"><g transform="translate(0 0)"><g fill="none" stroke-linejoin="round"><path d="M23.215,16.8a11,11,0,0,1,19.122,0L56.2,41.166a11,11,0,0,1-9.561,16.44H18.914a11,11,0,0,1-9.561-16.44Z" stroke="none"/><path d="M 32.77560424804688 16.24360275268555 C 31.73220443725586 16.24360275268555 30.71195602416992 16.50514602661133 29.82516860961914 16.99995803833008 C 28.88281631469727 17.5257568359375 28.12091064453125 18.29168701171875 27.56061553955078 19.27645111083984 L 13.69948577880859 43.63846206665039 C 12.15895843505859 46.34606170654297 13.20608520507813 48.72489929199219 13.72780609130859 49.62199401855469 C 14.24951171875 50.51907348632813 15.79928588867188 52.60560607910156 18.91446304321289 52.60560607910156 L 46.63674545288086 52.60560607910156 C 49.75191116333008 52.60560607910156 51.30168533325195 50.51907348632813 51.82340240478516 49.62199401855469 C 52.34510803222656 48.72489929199219 53.39225006103516 46.34605026245117 51.85172271728516 43.63846206665039 L 37.99059295654297 19.27645111083984 C 37.4302864074707 18.29168701171875 36.66838073730469 17.5257568359375 35.72602844238281 16.99995803833008 C 34.83924102783203 16.50514602661133 33.81899261474609 16.24360275268555 32.77560424804688 16.24360275268555 M 32.77560424804688 11.24360275268555 C 36.50148010253906 11.24360275268555 40.22735214233398 13.09701156616211 42.33640289306641 16.80382919311523 L 56.19754409790039 41.16584014892578 C 60.36982727050781 48.49894714355469 55.07372283935547 57.60560607910156 46.63674545288086 57.60560607910156 L 18.91446304321289 57.60560607910156 C 10.47748565673828 57.60560607910156 5.181369781494141 48.49895477294922 9.353664398193359 41.16584014892578 L 23.21479415893555 16.80382919311523 C 25.3238525390625 13.09701156616211 29.04972839355469 11.24360275268555 32.77560424804688 11.24360275268555 Z" stroke="none" fill="#ffe400"/></g><text transform="translate(26.816 46.912)" fill="#ffe400" font-size="34" font-family="ArialRoundedMTBold, Arial Rounded MT"><tspan x="0" y="0">!</tspan></text></g></g></g></g></svg>