<svg xmlns="http://www.w3.org/2000/svg" xmlns:xlink="http://www.w3.org/1999/xlink" width="100" height="73" viewBox="0 0 100 73"><defs><filter id="a" x="0" y="0" width="100" height="73" filterUnits="userSpaceOnUse"><feOffset dy="3" input="SourceAlpha"/><feGaussianBlur stdDeviation="3" result="b"/><feFlood flood-color="#464545"/><feComposite operator="in" in2="b"/><feComposite in="SourceGraphic"/></filter></defs><g transform="translate(-954.36 -374)"><g transform="translate(963.36 380)"><g transform="matrix(1, 0, 0, 1, -9, -6)" filter="url(#a)"><path d="M7.2,0H74.8A7.2,7.2,0,0,1,82,7.2V47.8A7.2,7.2,0,0,1,74.8,55H7.2A7.2,7.2,0,0,1,0,47.8V7.2A7.2,7.2,0,0,1,7.2,0Z" transform="translate(9 6)" fill="#fff"/></g></g><g transform="translate(955.36 358)"><path d="M16.74,43.419a4.982,4.982,0,0,1-1.891-1.187L3.535,30.919a5,5,0,1,1,7.071-7.071L18.3,31.54,39.057,3.993a5,5,0,1,1,7.987,6.018L22.972,41.957a5,5,0,0,1-6.232,1.462Z" transform="translate(24.929 25.998)" fill="#227c26"/></g></g></svg>