<svg xmlns="http://www.w3.org/2000/svg" xmlns:xlink="http://www.w3.org/1999/xlink" width="46.713" height="62.365" viewBox="0 0 46.713 62.365"><defs><filter id="a" x="3.408" y="0" width="40.012" height="55.118" filterUnits="userSpaceOnUse"><feOffset dy="3" input="SourceAlpha"/><feGaussianBlur stdDeviation="3" result="b"/><feFlood flood-opacity="0.161"/><feComposite operator="in" in2="b"/><feComposite in="SourceGraphic"/></filter></defs><g transform="translate(-26 -1)"><g transform="translate(8)"><g transform="translate(-356.854 -4643)"><g transform="translate(394.155 4660.361) rotate(40)" fill="none"><path d="M14.906,11.278,35.785,0,26.958,26.4,15.075,27.664l6.1-13.19L22.019,12,22.57,7.28,12.035,22.143l9.14-7.669-.376.766L32.03,9.554l-1.962,5.529L18.942,19.294l-3.463,7.5-.4.875,6.44-14.011-6.44,14.011L11.852,22.3l3.223,5.368,5.418-11.849L15.075,27.664l-1.7.267L0,30.027,8.887,18.762,11.852,22.3,8.887,18.762Z" stroke="none"/><path d="M 34.03421783447266 2.081998825073242 L 23.5210075378418 7.760641098022461 L 23.01218223571777 12.1119270324707 L 22.99983215332031 12.21759605407715 L 22.96551132202148 12.31830596923828 L 22.67592620849609 13.16819763183594 L 31.57794189453125 8.661996841430664 L 31.88693046569824 8.505584716796875 L 34.03421783447266 2.081998825073242 M 19.4425220489502 9.96360969543457 L 15.55863761901855 12.06146621704102 L 10.18074035644531 18.74890899658203 L 11.82538986206055 20.70892333984375 L 19.4425220489502 9.96360969543457 M 29.22408294677734 16.47146224975586 L 19.6823558807373 20.0826416015625 L 16.72210311889648 26.4835205078125 L 26.21348571777344 25.47764015197754 L 29.22408294677734 16.47146224975586 M 18.31015205383301 18.18237495422363 L 13.14865112304688 22.51338386535645 L 14.95457077026367 25.52124214172363 L 18.31015205383301 18.18237495422363 M 8.910568237304688 20.34661865234375 L 2.364719390869141 28.6439323425293 L 13.2187328338623 26.94244575500488 L 13.45301818847656 26.90571784973145 L 11.03508567810059 22.87851524353027 L 8.910568237304688 20.34661865234375 M 35.78458023071289 -3.814697265625e-06 L 26.95810317993164 26.40432548522949 L 15.07452201843262 27.66372680664063 L 15.07540512084961 27.66181945800781 L 18.94623184204102 19.29201316833496 L 30.06770133972168 15.08296585083008 L 32.02957153320313 9.554195404052734 L 20.82719802856445 15.22483921051025 L 21.17478179931641 14.4732666015625 L 21.28216934204102 14.15810394287109 L 21.51424217224121 13.65319633483887 L 21.28216934204102 14.15810394287109 L 22.01895141601563 11.99577713012695 L 22.57035064697266 7.280406951904297 L 12.03490257263184 22.14252662658691 L 21.11378479003906 14.52444934844971 L 15.07643699645996 27.65956115722656 L 20.49246215820313 15.81435585021973 L 15.07643699645996 27.65956115722656 L 15.07452201843262 27.66372680664063 L 11.85183143615723 22.29615592956543 L 15.07452201843262 27.66372680664063 L 15.07453155517578 27.66372680664063 L 15.07452201843262 27.66372680664063 L 15.07453155517578 27.66372680664063 L 15.07452201843262 27.66372680664063 L 15.07453155517578 27.66372680664063 L 13.37361145019531 27.93037605285645 L 3.814697265625e-06 30.02683639526367 L 8.886651992797852 18.76239585876465 L 11.85183143615723 22.29615592956543 L 8.886651992797852 18.76239585876465 L 14.90582275390625 11.27752685546875 L 35.78458023071289 -3.814697265625e-06 Z M 21.28216934204102 14.15810394287109 L 21.11378479003906 14.52444934844971 L 21.28216934204102 14.15810394287109 Z M 21.17478179931641 14.4732666015625 L 20.79834175109863 15.23944664001465 L 20.82719802856445 15.22483921051025 L 18.94623184204102 19.29201316833496 L 18.94165229797363 19.29374694824219 L 15.47867202758789 26.78900527954102 L 15.07548522949219 27.66164398193359 L 15.07643699645996 27.65956115722656 L 21.11378479003906 14.52444934844971 L 21.17478179931641 14.4732666015625 Z M 15.07643699645996 27.65956115722656 L 15.07548522949219 27.66164398193359 L 15.07452201843262 27.66372680664063 L 15.07453155517578 27.66372680664063 L 15.07643699645996 27.65956115722656 Z M 15.07548522949219 27.66164398193359 L 15.07540512084961 27.66181945800781 L 15.07548522949219 27.66164398193359 Z M 15.07540512084961 27.66181945800781 L 15.07453155517578 27.66372680664063 L 15.07452201843262 27.66372680664063 L 15.07453155517578 27.66372680664063 L 15.07540512084961 27.66181945800781 Z M 15.07453155517578 27.66372680664063 L 15.07452201843262 27.66372680664063 Z" stroke="none" fill="#464545"/></g><g transform="matrix(1, 0, 0, 1, 374.85, 4644)" filter="url(#a)"><g transform="translate(12.41 6)" fill="#464545"><path d="M11.008,37.118h0a2.2,2.2,0,0,1-1.4-.89,14.7,14.7,0,0,1-1.683-2.393c-.576-.976-1.188-2.149-1.82-3.488-.6-1.278-1.213-2.683-1.812-4.175a90.921,90.921,0,0,1-3.025-8.777A27.732,27.732,0,0,1,0,10.769,10.5,10.5,0,0,1,.865,6.577,10.7,10.7,0,0,1,1.88,4.748,10.9,10.9,0,0,1,3.224,3.154,11.169,11.169,0,0,1,17.16,1.839a11.036,11.036,0,0,1,1.629,1.315,10.9,10.9,0,0,1,1.344,1.594,10.7,10.7,0,0,1,1.015,1.829,10.5,10.5,0,0,1,.865,4.192,27.748,27.748,0,0,1-1.264,6.625,90.943,90.943,0,0,1-3.024,8.778c-.6,1.492-1.209,2.9-1.812,4.175-.632,1.339-1.244,2.513-1.819,3.488a14.675,14.675,0,0,1-1.683,2.393A2.2,2.2,0,0,1,11.008,37.118Zm0-34.845a8.6,8.6,0,0,0-8.683,8.5,8.6,8.6,0,0,0,8.683,8.5,8.6,8.6,0,0,0,8.683-8.5A8.6,8.6,0,0,0,11.006,2.273Z" stroke="none"/><path d="M 11.00774955749512 36.91756057739258 C 11.2356595993042 36.91740798950195 11.63831043243408 36.77433776855469 12.26227951049805 36.09355926513672 C 12.7575101852417 35.55321884155273 13.31527042388916 34.75944900512695 13.92008018493652 33.73428726196289 C 14.49250984191895 32.76399993896484 15.1016902923584 31.59585952758789 15.73069000244141 30.2623291015625 C 16.33189964294434 28.98774909973145 16.93985939025879 27.58660888671875 17.53768920898438 26.09779930114746 C 18.71158027648926 23.17445945739746 19.78318977355957 20.06411933898926 20.55513000488281 17.33972930908203 C 21.37730979919434 14.43800830841064 21.81189918518066 12.16590881347656 21.81189918518066 10.76907920837402 C 21.81189918518066 9.34268856048584 21.52643013000488 7.959048748016357 20.96342086791992 6.656588554382324 C 20.69278907775879 6.030508995056152 20.35778045654297 5.426578998565674 19.96768951416016 4.861588954925537 C 19.58126068115234 4.301898956298828 19.13740921020508 3.7755286693573 18.64846992492676 3.297118663787842 C 18.15949058532715 2.818648815155029 17.62141990661621 2.38425874710083 17.04921913146973 2.006018877029419 C 16.47149085998535 1.624108791351318 15.8538703918457 1.296098709106445 15.21352005004883 1.031078815460205 C 13.88103008270264 0.4796187579631805 12.46541976928711 0.1999987661838531 11.00599956512451 0.1999987661838531 C 9.546549797058105 0.1999987661838531 8.13092041015625 0.4796187579631805 6.798419952392578 1.031078815460205 C 6.158030033111572 1.296108722686768 5.540410041809082 1.624128818511963 4.962699890136719 2.006018877029419 C 4.390470027923584 2.384288787841797 3.852400064468384 2.818678855895996 3.363430023193359 3.297118663787842 C 2.874530076980591 3.775498867034912 2.4306800365448 4.301868915557861 2.044219970703125 4.861588954925537 C 1.654139995574951 5.426568984985352 1.319129943847656 6.030488967895508 1.048479914665222 6.656598567962646 C 0.4854699671268463 7.959048748016357 0.1999999731779099 9.34268856048584 0.1999999731779099 10.76907920837402 C 0.1999999731779099 12.16607856750488 0.6347599625587463 14.4380989074707 1.45727002620697 17.33950805664063 C 2.229389905929565 20.06316947937012 3.301349878311157 23.17301940917969 4.475669860839844 26.09617805480957 C 5.073609828948975 27.58456802368164 5.681729793548584 28.98553848266602 6.283130168914795 30.26017951965332 C 6.912290096282959 31.59361839294434 7.521570205688477 32.7617301940918 8.094050407409668 33.7320671081543 C 8.698929786682129 34.75732803344727 9.256719589233398 35.55133056640625 9.75193977355957 36.0920295715332 C 10.37596035003662 36.77333831787109 10.77859020233154 36.91700744628906 11.00599956512451 36.91756057739258 L 11.00774955749512 36.91756057739258 M 11.00599956512451 2.072828769683838 C 15.90413951873779 2.072828769683838 19.88907051086426 5.973948955535889 19.88907051086426 10.76907920837402 C 19.88907051086426 15.56415843963623 15.90413951873779 19.46523857116699 11.00599956512451 19.46523857116699 C 6.107800006866455 19.46523857116699 2.122829914093018 15.56415843963623 2.122829914093018 10.76907920837402 C 2.122829914093018 5.973948955535889 6.107800006866455 2.072828769683838 11.00599956512451 2.072828769683838 M 11.00788021087646 37.11755752563477 L 11.00599956512451 37.11755752563477 C 10.61631011962891 37.11661911010742 10.14476013183594 36.8170280456543 9.604450225830078 36.22710800170898 C 9.099860191345215 35.67617797851563 8.533729553222656 34.87091827392578 7.92179012298584 33.83369827270508 C 7.346179962158203 32.85804748535156 6.734000205993652 31.6844482421875 6.102250099182129 30.34551811218262 C 5.499159812927246 29.06729888916016 4.88946008682251 27.66268920898438 4.290090084075928 26.17073822021484 C 3.113209962844849 23.24120903015137 2.038830041885376 20.12425804138184 1.26485002040863 17.39405822753906 C 0.4373799860477448 14.47515869140625 -2.593994175015268e-08 12.18427848815918 -2.593994175015268e-08 10.76907920837402 C -2.593994175015268e-08 9.315248489379883 0.2909899652004242 7.904908657073975 0.8648999929428101 6.5772385597229 C 1.140730023384094 5.939138889312744 1.482139945030212 5.323678970336914 1.879639983177185 4.747958660125732 C 2.273360013961792 4.177718639373779 2.725519895553589 3.641488790512085 3.223559856414795 3.154168844223022 C 3.72160005569458 2.666848659515381 4.269619941711426 2.224428653717041 4.852409839630127 1.839178800582886 C 5.440800189971924 1.450228810310364 6.069799900054932 1.116178750991821 6.721940040588379 0.8462787866592407 C 8.07880973815918 0.2847287654876709 9.520179748535156 -1.237182573277096e-06 11.00599956512451 -1.237182573277096e-06 C 12.49180030822754 -1.237182573277096e-06 13.93313980102539 0.2847287654876709 15.28999996185303 0.8462787866592407 C 15.94213008880615 1.116168737411499 16.57113075256348 1.450228810310364 17.15950965881348 1.839178800582886 C 17.74230003356934 2.224418878555298 18.29031944274902 2.666848659515381 18.78834915161133 3.154168844223022 C 19.28639984130859 3.641498804092407 19.73855972290039 4.177718639373779 20.13227081298828 4.747958660125732 C 20.52976989746094 5.323678970336914 20.87117958068848 5.939138889312744 21.14699935913086 6.5772385597229 C 21.72090911865234 7.904908657073975 22.01189994812012 9.315248489379883 22.01189994812012 10.76907920837402 C 22.01189994812012 12.18406867980957 21.57469940185547 14.47501850128174 20.74754905700684 17.39424896240234 C 19.97373962402344 20.12526893615723 18.89970016479492 23.24270820617676 17.72328948974609 26.17232894897461 C 17.1240406036377 27.66465950012207 16.51449966430664 29.06943893432617 15.91158008575439 30.34764862060547 C 15.27993965148926 31.68676948547363 14.66786003112793 32.86037826538086 14.09233951568604 33.83590698242188 C 13.48046016693115 34.8730583190918 12.91434955596924 35.6781005859375 12.4097204208374 36.22868728637695 C 11.86935997009277 36.8182487487793 11.39772033691406 37.1173095703125 11.00788021087646 37.11755752563477 Z M 11.00599956512451 2.272828817367554 C 6.218090057373047 2.272828817367554 2.322829961776733 6.084238529205322 2.322829961776733 10.76907920837402 C 2.322829961776733 15.45387840270996 6.218090057373047 19.26523971557617 11.00599956512451 19.26523971557617 C 15.79386043548584 19.26523971557617 19.6890697479248 15.45387840270996 19.6890697479248 10.76907920837402 C 19.6890697479248 6.084238529205322 15.79386043548584 2.272828817367554 11.00599956512451 2.272828817367554 Z" stroke="none" fill="rgba(255,255,255,0.6)"/></g></g></g></g></g></svg>