<svg xmlns="http://www.w3.org/2000/svg" width="94.649" height="69.055" viewBox="0 0 94.649 69.055"><g transform="translate(-1241.327 -815.805)"><path d="M8.158,0H86.492a8.156,8.156,0,0,1,8.156,8.156V60.9a8.158,8.158,0,0,1-8.158,8.158H8.158A8.158,8.158,0,0,1,0,60.9V8.158A8.158,8.158,0,0,1,8.158,0Z" transform="translate(1241.327 815.805)" fill="#227c26"/><g transform="translate(1258.567 829.882)"><path d="M2991.847,464.61a5.252,5.252,0,0,1-5.251,5.254h-49.657a5.257,5.257,0,0,1-5.254-5.254h0a5.253,5.253,0,0,1,5.254-5.251H2986.6a5.248,5.248,0,0,1,5.251,5.251Z" transform="translate(-2931.685 -442.645)" fill="#ffe400"/><path d="M2991.847,470.558a5.248,5.248,0,0,1-5.251,5.251h-49.657a5.253,5.253,0,0,1-5.254-5.251h0a5.256,5.256,0,0,1,5.254-5.251H2986.6a5.252,5.252,0,0,1,5.251,5.251Z" transform="translate(-2931.685 -431.881)" fill="#ffe400"/><path d="M2991.847,458.667a5.25,5.25,0,0,1-5.251,5.251h-49.657a5.254,5.254,0,0,1-5.254-5.251h0a5.257,5.257,0,0,1,5.254-5.257H2986.6a5.253,5.253,0,0,1,5.251,5.257Z" transform="translate(-2931.685 -453.41)" fill="#ffe400"/></g></g></svg>