<svg xmlns="http://www.w3.org/2000/svg" width="53.259" height="36.929" viewBox="0 0 53.259 36.929"><g transform="translate(-178.109 -355.42)"><path d="M201.483,355.426q5.479,0,10.953-.006c.243,0,.328.046.322.307-.02.71-.016,1.419,0,2.129,0,.2-.056.257-.259.257-1.867-.008-3.737,0-5.6-.01-.213,0-.283.048-.275.269.018.448.016.9,0,1.349-.008.205.05.261.257.259q2.867-.012,5.735-.006a1.688,1.688,0,0,1,1.827,1.829c0,.492.008.987,0,1.479,0,.177.056.217.221.217.683-.01,1.369,0,2.052,0a1.683,1.683,0,0,1,1.791,1.365c.458,1.664.921,3.329,1.371,5a.275.275,0,0,0,.336.247q.531-.024,1.061,0a.289.289,0,0,0,.344-.247q.8-2.518,1.612-5.031a1.674,1.674,0,0,1,1.819-1.331c1.176,0,2.354,0,3.53.008a1.645,1.645,0,0,1,1.666,1.351c.3,1.439.5,2.9.655,4.354a81.534,81.534,0,0,1,.462,10.413c-.046,2.621-.207,5.234-.513,7.84q-.205,1.74-.507,3.462a1.656,1.656,0,0,1-1.6,1.4q-1.906.033-3.815.022a1.68,1.68,0,0,1-1.689-1.3c-.525-1.682-1.051-3.363-1.562-5.049a.315.315,0,0,0-.378-.269c-.362.018-.728.016-1.087,0-.185-.008-.253.056-.3.225-.462,1.674-.935,3.343-1.4,5.015a1.679,1.679,0,0,1-1.789,1.367q-10.632,0-21.257.006a1.87,1.87,0,0,1-1.612-.81c-1.383-1.871-2.778-3.733-4.161-5.6a.462.462,0,0,0-.43-.207c-1.5.006-2.993,0-4.489,0a1.7,1.7,0,0,1-1.859-1.853c0-2.44,0-4.877,0-7.317,0-.215-.05-.287-.271-.273a6.818,6.818,0,0,1-.907,0c-.211-.014-.255.064-.253.261.006,1.775,0,3.548,0,5.319,0,.651-.008,1.3,0,1.948,0,.193-.044.251-.243.249-.953-.01-1.9-.012-2.854,0-.215,0-.273-.056-.273-.271q.009-5.789,0-11.577c0-2.255,0-4.515,0-6.774,0-.217.06-.269.273-.265.943.01,1.888.01,2.828,0,.217,0,.271.056.269.269-.008,2.4,0,4.794-.01,7.19,0,.227.044.326.3.306a7.153,7.153,0,0,1,.907,0c.185.01.231-.056.231-.235-.008-1.057,0-2.111,0-3.166,0-1.4.018-2.8-.006-4.205a1.742,1.742,0,0,1,1.831-1.833c1.168.038,2.338,0,3.506.016.275,0,.328-.082.318-.334-.018-.5-.008-1,0-1.506a1.663,1.663,0,0,1,1.695-1.691q3.269,0,6.539.008c.235,0,.291-.062.281-.287-.018-.45-.016-.9,0-1.349.008-.2-.054-.243-.245-.243-2.1.008-4.205,0-6.308.01-.231,0-.306-.05-.3-.3.018-.708.016-1.417,0-2.127,0-.219.06-.269.275-.269Q195.981,355.431,201.483,355.426Zm.022,7.908H192.24c-.386,0-.34-.042-.342.352,0,.442,0,.884,0,1.325a1.688,1.688,0,0,1-1.825,1.829c-1.186,0-2.372.006-3.556,0-.2,0-.263.04-.263.253q.009,7.514,0,15.026c0,.217.072.251.265.249,1.218-.008,2.438.006,3.659-.006a1.886,1.886,0,0,1,1.638.822c1.379,1.873,2.776,3.735,4.161,5.6a.443.443,0,0,0,.4.2q9.459-.009,18.92,0c.217,0,.291-.07.346-.269q.693-2.509,1.405-5.013a1.672,1.672,0,0,1,1.749-1.323h3.866a1.69,1.69,0,0,1,1.8,1.327q.693,2.24,1.391,4.479c.086.265.07.643.3.766s.557.022.842.034c.149,0,.205-.038.227-.2.135-.985.263-1.97.37-2.959.231-2.089.358-4.187.4-6.288a71.987,71.987,0,0,0-.822-12.459c-.026-.169-.078-.247-.255-.235a3.633,3.633,0,0,1-.573,0c-.2-.016-.279.06-.34.251-.537,1.7-1.087,3.407-1.634,5.108a1.678,1.678,0,0,1-1.723,1.256h-3.765a1.722,1.722,0,0,1-1.892-1.447c-.45-1.65-.913-3.3-1.361-4.945a.269.269,0,0,0-.318-.239c-.858.01-1.713.012-2.569,0a1.657,1.657,0,0,1-1.666-1.693c0-.511-.016-1.021,0-1.532.01-.233-.062-.281-.287-.281Q206.151,363.339,201.505,363.334Z" transform="translate(0 0)" fill="#ae0018" fill-rule="evenodd"/></g></svg>