<svg xmlns="http://www.w3.org/2000/svg" width="39.728" height="44.145" viewBox="0 0 39.728 44.145"><g transform="translate(-489.974 -742.391)"><path d="M514.168,742.891a5.006,5.006,0,0,1,3.827,3.5c.06.195.524.373.8.377,2.492.029,4.984,0,7.476.023a2.66,2.66,0,1,1,.495,5.3c-.158.015-.319.008-.479.008q-16.438,0-32.876,0a2.649,2.649,0,0,1-2.829-3.368,2.7,2.7,0,0,1,2.85-1.934c2.364-.019,4.729-.005,7.093-.005h1.107a4.917,4.917,0,0,1,3.905-3.893Zm-4.333,5.348H497.468c-1.438,0-2.876,0-4.314.008a1.121,1.121,0,0,0-1.233,1.075,1.171,1.171,0,0,0,1.064,1.351,4.076,4.076,0,0,0,.86.033q16.01,0,32.02,0c.378,0,.87.056,1.107-.148.361-.311.786-.855.739-1.247s-.611-.76-1.018-1.034c-.2-.134-.56-.034-.847-.034Zm6.623-1.493a3.024,3.024,0,0,0-3.245-2.454c-2.172-.02-4.344-.014-6.516,0a5.906,5.906,0,0,0-1.419.168,2.691,2.691,0,0,0-2,2.284Z" transform="translate(0 0)" fill="#227c26" stroke="#227c26" stroke-width="1" fill-rule="evenodd"/><path d="M509.4,831.309c-2-.72-2.768-2.121-2.752-4.257.069-8.978.029-17.957.029-26.935v-1.208h1.384v1.1q0,13.659,0,27.319c0,1.806.749,2.58,2.535,2.581q12.318.008,24.635,0c1.788,0,2.545-.78,2.545-2.576q0-13.612,0-27.223v-1.206h1.384v1.111c0,8.978-.042,17.958.03,26.935.017,2.159-.7,3.621-2.753,4.357Z" transform="translate(-13.064 -45.274)" fill="#227c26" stroke="#227c26" stroke-width="1" fill-rule="evenodd"/><path d="M533.975,826.825q0-4.456,0-8.913a2.732,2.732,0,0,1,2.631-3.013c1.567-.017,2.657,1.172,2.662,2.987q.021,8.912,0,17.825c0,1.839-1.039,2.979-2.638,2.984-1.64.005-2.655-1.158-2.656-3.054Q533.973,831.233,533.975,826.825Zm3.883.018c0-2.969,0-5.937,0-8.906,0-1.053-.442-1.615-1.213-1.611s-1.254.582-1.264,1.595c-.011,1.053,0,2.107.007,3.16q.028,7.23.056,14.46c0,.1,0,.192,0,.287.036.936.526,1.547,1.25,1.474.85-.086,1.174-.631,1.17-1.457C537.849,832.844,537.857,829.843,537.858,826.843Z" transform="translate(-35.151 -58.2)" fill="#227c26" stroke="#227c26" stroke-width="1" fill-rule="evenodd"/><path d="M626.662,826.839q0,4.456,0,8.912a2.646,2.646,0,0,1-2.578,2.943,2.612,2.612,0,0,1-2.714-2.9q-.024-8.96,0-17.92a2.678,2.678,0,0,1,2.674-2.972,2.738,2.738,0,0,1,2.619,3.028Q626.667,822.383,626.662,826.839Zm-1.368.044c0-3.033.009-6.066-.006-9.1,0-.909-.556-1.522-1.3-1.441a1.242,1.242,0,0,0-1.184,1.44c.019,6,.009,12,.035,18.007a1.618,1.618,0,0,0,.379,1.11,1.528,1.528,0,0,0,1.19.3c.661-.158.889-.736.887-1.414C625.288,832.822,625.294,829.852,625.294,826.883Z" transform="translate(-105.779 -58.2)" fill="#227c26" stroke="#227c26" stroke-width="1" fill-rule="evenodd"/><path d="M583.065,826.883c0,3.1.019,6.2-.009,9.3a2.507,2.507,0,0,1-2.1,2.492,2.574,2.574,0,0,1-2.974-1.685,3.5,3.5,0,0,1-.152-1.124q-.013-9.058,0-18.115a2.629,2.629,0,1,1,5.238.03c.014,3.035,0,6.07,0,9.105Zm-3.853-.085q0,4.4,0,8.8c0,1.062.484,1.717,1.241,1.71s1.227-.667,1.227-1.729q0-8.8,0-17.608c0-1.022-.443-1.623-1.191-1.644-.787-.022-1.275.6-1.277,1.663Q579.208,822.4,579.212,826.8Z" transform="translate(-70.593 -58.201)" fill="#227c26" stroke="#227c26" stroke-width="1" fill-rule="evenodd"/></g></svg>