<svg xmlns="http://www.w3.org/2000/svg" width="76.632" height="30.921" viewBox="0 0 76.632 30.921"><g transform="translate(-293 -356)"><g transform="translate(204.062 362.705)"><g transform="translate(2 -79)"><path d="M157.192,68.557c-1.626-1.25-3.252-2.5-4.867-3.768a.621.621,0,0,0-.652-.108q-11.932,3.712-23.869,7.41a.5.5,0,0,1-.6-.148c-1.068-1.128-2.159-2.236-3.224-3.366a.982.982,0,0,0-.792-.336c-2.888,0-5.779-.023-8.666-.028-.268,0-.382-.046-.376-.353q.034-1.692.011-3.389c0-.3.1-.356.376-.35.894.017,1.794.006,2.694.017.214,0,.293-.04.3-.276.006-1.467.028-2.936.057-4.406.006-.242-.066-.3-.3-.3q-5.571.009-11.15,0c-.262,0-.316.088-.313.333.009,1.433.009,2.868-.011,4.3,0,.29.1.345.356.342.889,0,1.774.031,2.66.02.285,0,.342.094.339.356q-.017,1.786,0,3.571c0,.222-.043.31-.3.316q-4,.043-8.008.125c-.288.006-.342-.08-.333-.345.034-1.091.037-2.184.08-3.275a.386.386,0,0,0-.33-.453Q92.882,62.081,85.5,59.7c-.3-.1-.359,0-.413.253Q83.81,65.925,82.5,71.895c-.077.356-.009.464.339.553,4.468,1.111,8.931,2.239,13.4,3.349.282.071.376.171.373.478-.02,4.457-.026,8.914-.054,13.371,0,.37.111.43.447.424q3.665-.034,7.322-.037,12.88-.03,25.754-.046a.94.94,0,0,0,.729-.313q10.2-10.227,20.409-20.446a.737.737,0,0,1,.6-.259c.621.02,1.239.017,1.86.009a.59.59,0,0,1,.481.2c.461.513.934,1.02,1.415,1.541.609-.649,1.125-1.216,1.666-1.757C157.432,68.768,157.366,68.691,157.192,68.557ZM96.5,69.135h-.142c0,.74-.009,1.481,0,2.221.006.253-.068.288-.313.228q-4.673-1.145-9.356-2.264c-.188-.046-.222-.1-.174-.29.393-1.6.783-3.2,1.159-4.8.048-.219.12-.228.313-.168q4.118,1.3,8.245,2.583c.239.077.276.2.271.419C96.491,67.754,96.5,68.446,96.5,69.135Zm48.262,1.193q-7.352,7.228-14.7,14.456a.729.729,0,0,1-.544.228q-9.834.017-19.668.057c-2.891.009-5.779.017-8.669.043-.3,0-.379-.08-.376-.382q.047-5.955.063-11.91c0-.268.08-.37.339-.427,1.017-.225,2.028-.478,3.044-.715a1.829,1.829,0,0,1,.4-.034q7.613.051,15.225.1a.694.694,0,0,1,.541.222c1.233,1.239,2.483,2.463,3.719,3.7a.672.672,0,0,0,.538.228c1.515-.009,3.033,0,4.554,0a1.757,1.757,0,0,0,.672-.122q7.378-2.828,14.755-5.65c.088-.031.171-.1.3-.06C144.94,70.2,144.835,70.254,144.761,70.328Z" transform="translate(4.462 13.144)" fill="#ae0018" fill-rule="evenodd"/><path d="M113.461,71.818a26.917,26.917,0,0,1-1.954-4.013c-.41-1.139-.635-2.335-1.02-3.566-.077.2-.12.322-.171.444-.407,1.037-.672,2.122-1.057,3.167a23.088,23.088,0,0,1-2.127,4.084,2.332,2.332,0,0,0,1.088,3.614,4.86,4.86,0,0,0,3.887.12A2.525,2.525,0,0,0,113.461,71.818Zm-1.31,3.381a4.459,4.459,0,0,1-4.144-.242,1.831,1.831,0,0,1-.661-2.535c.319-.624.709-1.208,1.057-1.817a17.633,17.633,0,0,0,1.695-3.962c.091-.328.2-.646.328-1.077.219.786.382,1.492.621,2.176a22.38,22.38,0,0,0,1.92,4.024,2.8,2.8,0,0,1,.467,1.925A1.969,1.969,0,0,1,112.151,75.2Z" transform="translate(49.173 22.55)" fill="#ae0018" stroke="#ae0018" stroke-miterlimit="10" stroke-width="1" fill-rule="evenodd"/></g></g></g></svg>