<svg xmlns="http://www.w3.org/2000/svg" width="94.46" height="68.91" viewBox="0 0 94.46 68.91"><path d="M13.229,0H81.235A13.225,13.225,0,0,1,94.46,13.225V55.685A13.225,13.225,0,0,1,81.235,68.91H13.227A13.227,13.227,0,0,1,0,55.683V13.229A13.229,13.229,0,0,1,13.229,0Z" fill="#227c26"/><g transform="translate(20.765 13.307)"><rect width="6.228" height="42.29" transform="translate(5.675)" fill="#ffe400"/><rect width="6.225" height="30.486" transform="translate(15.038 11.804)" fill="#ffe400"/><rect width="6.225" height="35.47" transform="translate(23.656 6.82)" fill="#ffe400"/><rect width="6.232" height="15.241" transform="translate(32.996 27.049)" fill="#ffe400"/><rect width="6.225" height="29.68" transform="translate(42.464 12.205)" fill="#ffe400"/><path d="M1684.52,698.99s3.972-11.958,15.038-3.156,8.492,11.332,17.958,15.245,16.638-5.365,19.93-5.9" transform="translate(-1684.52 -684.03)" fill="none" stroke="#2e2e2d" stroke-miterlimit="10" stroke-width="1"/></g></svg>