<svg xmlns="http://www.w3.org/2000/svg" width="108" height="157.556" viewBox="0 0 108 157.556"><path d="M3283.314,128.222c2.873-.459,8.145-1.317,6.836,4.2s-15.771,43.356-15.771,43.356-3.939,8.146-8.406,12.088-8.671,7.357-13.4,8.149-11.3,1.573-16.293,0-14.194-7.625-17.344-14.192-4.463-22.6-4.723-33.372,0-39.414,0-39.414.26-3.152,1.833-4.729,7.359-1.576,7.622,2.363.526,11.826.526,18.128a27.592,27.592,0,0,0,1.573,9.99s2.369,3.674,2.629-.265,1.388-28.58.789-39.414c-.265-4.726,10.512-6.564,10.78,0,.541,13.773.253,38.89.253,38.89s2.366,3.152,2.891-.527c.795-5.513-.391-34.238,1.058-46.5.519-4.475,8.93-3.158,9.719,1.308s1.01,42.481,1.01,42.481,1.915,4.161,2.405,1.134c1.078-6.6.521-27.326.265-37.3-.073-2.565,9.333-7.462,10.244,0,1.146,9.432,1.3,21.8,1.3,21.8s-1.248,18.114-1.113,25.012c.039,2.012,2.08,9.358,2.08,9.358s5.878-19.918,13.236-22.546" transform="translate(-3198.478 -84.205)" fill="#ae0018"/><text transform="translate(0 149.556)" fill="#2e2e2d" font-size="39" font-family="ArialRoundedMTBold, Arial Rounded MT"><tspan x="0" y="0">STOP</tspan></text></svg>