<svg xmlns="http://www.w3.org/2000/svg" xmlns:xlink="http://www.w3.org/1999/xlink" width="102" height="73" viewBox="0 0 102 73"><defs><filter id="a" x="0" y="0" width="102" height="73" filterUnits="userSpaceOnUse"><feOffset dy="3" input="SourceAlpha"/><feGaussianBlur stdDeviation="3" result="b"/><feFlood flood-color="#464545"/><feComposite operator="in" in2="b"/><feComposite in="SourceGraphic"/></filter></defs><g transform="translate(-800 -235)"><g transform="matrix(1, 0, 0, 1, 800, 235)" filter="url(#a)"><rect width="84" height="55" rx="8" transform="translate(9 6)" fill="#227c26"/></g><path d="M-72.644,476.06a29.255,29.255,0,0,0,3.562,10.788,26.343,26.343,0,0,0,7.561,8.542l.209-.373a13.87,13.87,0,0,1,2.85-3.645,6.206,6.206,0,0,1,2.013-1.278,1.381,1.381,0,0,1,1.435.213,15.6,15.6,0,0,1,2.067,2.036,20.783,20.783,0,0,1,2.71,3.891,8.044,8.044,0,0,1,.938,2.612,2.562,2.562,0,0,1-.319,1.853.537.537,0,0,1-.145.151c-1.4.926-2.761,1.9-4.228,2.72a7.015,7.015,0,0,1-2.857.99,5.162,5.162,0,0,1-2.474-.469,14.583,14.583,0,0,1-2.966-1.818c-1.763-1.324-3.409-2.788-5.052-4.256-.511-.457-1.051-.887-1.518-1.386a37.142,37.142,0,0,1-5.943-8.14,31.687,31.687,0,0,1-2.4-6.207c-.591-2.126-1.066-4.28-1.479-6.445-.221-1.161-.318-2.346-.455-3.522a13.031,13.031,0,0,1-.082-2.652,5.065,5.065,0,0,1,1.759-3.441,14.794,14.794,0,0,1,3.129-2.059c.84-.434,1.7-.826,2.553-1.239a2.02,2.02,0,0,1,2.272.281,6.215,6.215,0,0,1,1.522,1.878,21.441,21.441,0,0,1,1.784,4.2c.324,1.008.6,2.032.913,3.043a1.589,1.589,0,0,1-.591,1.824,5.993,5.993,0,0,1-2.06,1.029,21.456,21.456,0,0,1-4.438.854Z" transform="translate(915.257 -214.697)" fill="#ffe400" stroke="rgba(0,0,0,0)" stroke-width="1" fill-rule="evenodd"/></g></svg>