<?xml version="1.0" encoding="utf-8"?>
<!-- Generator: Adobe Illustrator 22.0.1, SVG Export Plug-In . SVG Version: 6.00 Build 0)  -->
<svg version="1.1" id="Layer_1" xmlns="http://www.w3.org/2000/svg" xmlns:xlink="http://www.w3.org/1999/xlink" x="0px" y="0px"
	 viewBox="0 0 65 57" style="enable-background:new 0 0 65 57;" xml:space="preserve">
<style type="text/css">
	.st0{fill:none;}
	.st1{fill:#464545;}
	.st2{fill:#AE0018;}
	.st3{font-family:'ArialMT';}
	.st4{font-size:38px;}
</style>
<g transform="translate(-190.108 -18.879)">
	<g transform="translate(190.108 18.879)">
		<path class="st0" d="M23,11.2c3-5.3,9.7-7.1,15-4.1c1.7,1,3.1,2.4,4.1,4.1L55.7,35c3,5.3,1.2,12-4.1,15c-1.6,0.9-3.5,1.4-5.4,1.4
			H19c-6.1,0-11-4.9-11-11c0-1.9,0.5-3.8,1.4-5.4L23,11.2z"/>
		<path class="st1" d="M32.6,9.6c-1.2,0-2.4,0.3-3.4,0.9c-1.1,0.6-2,1.5-2.6,2.7L13,36.9c-0.6,1.1-1,2.3-0.9,3.6
			c0,1.2,0.4,2.3,1,3.4c0.6,1,1.5,1.9,2.5,2.5c1.1,0.6,2.3,1,3.6,1h27.1c1.3,0,2.5-0.3,3.6-1c1-0.6,1.9-1.5,2.5-2.5s0.9-2.2,1-3.4
			c0-1.3-0.3-2.5-0.9-3.6L38.7,13.1c-0.7-1.1-1.5-2-2.6-2.7C35,9.9,33.8,9.6,32.6,9.6 M32.6,5.6c3.7,0,7.4,1.9,9.6,5.6L55.8,35
			c4.2,7.3-1.1,16.4-9.6,16.4H19c-8.4,0-13.7-9.1-9.6-16.4L23,11.2C25.2,7.5,28.9,5.6,32.6,5.6z"/>
	</g>
	<text transform="matrix(1 0 0 1 216.2231 61.279)" class="st2 st3 st4">!</text>
</g>
</svg>
