<svg xmlns="http://www.w3.org/2000/svg" width="65" height="57" viewBox="0 0 65 57"><g transform="translate(-190.108 -18.879)"><g transform="translate(190.108 18.879)" fill="none" stroke-linejoin="round"><path d="M22.944,16.759a11,11,0,0,1,19.112,0L55.621,40.552A11,11,0,0,1,46.066,57H18.934A11,11,0,0,1,9.379,40.552Z" stroke="none"/><path d="M 32.4999885559082 15.20794677734375 C 31.28753280639648 15.20794677734375 30.09972381591797 15.51283645629883 29.06494522094727 16.08966064453125 C 27.96153259277344 16.70475006103516 27.07131195068359 17.5966911315918 26.41901016235352 18.74071502685547 L 12.85337829589844 42.53278350830078 C 12.20700073242188 43.66642761230469 11.89286804199219 44.87657928466797 11.9196891784668 46.129638671875 C 11.94486618041992 47.30532836914063 12.27750015258789 48.47643661499023 12.88164520263672 49.51634979248047 C 13.48579025268555 50.55627059936523 14.3383903503418 51.4253044128418 15.34725570678711 52.02951431274414 C 16.42251205444336 52.67348098754883 17.62937927246094 53.00000381469727 18.93435668945313 53.00000381469727 L 46.06564331054688 53.00000381469727 C 47.37061309814453 53.00000381469727 48.57748794555664 52.67348098754883 49.65274429321289 52.02951431274414 C 50.66161346435547 51.4253044128418 51.51419830322266 50.55627059936523 52.11834335327148 49.516357421875 C 52.72248840332031 48.47643661499023 53.05512237548828 47.30533599853516 53.08029937744141 46.129638671875 C 53.10713195800781 44.87657928466797 52.79299926757813 43.66642761230469 52.14662170410156 42.53276824951172 L 38.58097839355469 18.74072647094727 C 37.92868041992188 17.5966911315918 37.03845596313477 16.70475006103516 35.93503570556641 16.08966064453125 C 34.9002685546875 15.51283645629883 33.71244430541992 15.20794677734375 32.4999885559082 15.20794677734375 M 32.49999618530273 11.20794677734375 C 36.22280120849609 11.20794677734375 39.94560623168945 13.05844879150391 42.05582427978516 16.75944900512695 L 55.62146759033203 40.55150604248047 C 59.80265426635742 47.88467025756836 54.507080078125 57.00000381469727 46.06564331054688 57.00000381469727 L 18.93435668945313 57.00000381469727 C 10.49292373657227 57.00000381469727 5.197334289550781 47.88467025756836 9.378532409667969 40.55150604248047 L 22.94416809082031 16.75944900512695 C 25.05438232421875 13.05844879150391 28.77718734741211 11.20794677734375 32.49999618530273 11.20794677734375 Z" stroke="none" fill="#464545"/></g><text transform="translate(216.108 66.879)" fill="#ae0018" font-size="38" font-family="ArialRoundedMTBold, Arial Rounded MT"><tspan x="0" y="0">!</tspan></text></g></svg>