<svg xmlns="http://www.w3.org/2000/svg" width="94.46" height="68.91" viewBox="0 0 94.46 68.91"><path d="M13.328,0h67.8A13.328,13.328,0,0,1,94.46,13.328v42.25A13.332,13.332,0,0,1,81.128,68.91h-67.8A13.332,13.332,0,0,1,0,55.578V13.328A13.328,13.328,0,0,1,13.328,0Z" fill="#227c26"/><g transform="translate(7.054 12.142)"><path d="M1833.558,700.525a9.549,9.549,0,0,1,9-11.811c.246-.249.481-.49.71-.715a9.575,9.575,0,0,0-10.36,12.251C1833.122,700.339,1833.34,700.42,1833.558,700.525Z" transform="translate(-1809.374 -686.062)" fill="#ffe400" stroke="#161615" stroke-miterlimit="10" stroke-width="0.1"/><path d="M1863.26,695.975c-.027-.077-.057-.162-.088-.246h-.13C1863.119,695.806,1863.187,695.891,1863.26,695.975Z" transform="translate(-1787.532 -680.455)" fill="#ffe400" stroke="#161615" stroke-miterlimit="10" stroke-width="0.1"/><path d="M1838.056,695.634c.029-.026.053-.05.088-.081l-.37-.364c-.158.445-.3.859-.436,1.23C1837.573,696.141,1837.813,695.876,1838.056,695.634Z" transform="translate(-1805.915 -680.843)" fill="#ffe400" stroke="#161615" stroke-miterlimit="10" stroke-width="0.1"/><path d="M1838.777,698.984c1.313-3.729,2.918-8.3,3.233-9.182.538-1.542,2.246-2.693,5.007-2.693h24.1c2.772,0,4.417,1.1,5.132,3.332.433,1.344,2.112,5.986,3.387,9.466v-.948a1.29,1.29,0,0,1,.088-.481c-1.2-3.3-2.531-6.984-2.914-8.173-.741-2.315-2.449-3.463-5.326-3.463h-25.03c-2.873,0-4.645,1.191-5.2,2.793-.3.863-1.775,5.058-3.085,8.761.05.05.091.1.141.156C1838.458,698.706,1838.617,698.843,1838.777,698.984Z" transform="translate(-1805.407 -686.841)" fill="#ffe400" stroke="#161615" stroke-miterlimit="10" stroke-width="0.1"/><path d="M1870.858,687h-24.1c-2.762,0-4.469,1.151-5.008,2.693-.314.885-1.919,5.453-3.233,9.182a8.594,8.594,0,0,0,1.158.89,6.714,6.714,0,0,1,1.172-.423c1.184-3.2,2.779-7.493,3.068-8.278.476-1.282,1.974-2.241,4.41-2.241h21.2c2.437,0,3.887.916,4.515,2.782.38,1.114,1.853,4.967,2.978,7.867a7.928,7.928,0,0,1,2.353,1.31h0v-.985c-1.275-3.48-2.954-8.122-3.387-9.466C1875.274,688.1,1873.629,687,1870.858,687Z" transform="translate(-1805.151 -686.729)" fill="#ffe400" stroke="#161615" stroke-miterlimit="10" stroke-width="0.1"/><path d="M1859.372,709.887l.339.44h.39v-.836h-.42Z" transform="translate(-1790.168 -670.566)" fill="#ffe400" stroke="#161615" stroke-miterlimit="10" stroke-width="0.1"/><path d="M1860.513,707.05h-.463v.228h.631Z" transform="translate(-1789.682 -672.321)" fill="#ffe400" stroke="#161615" stroke-miterlimit="10" stroke-width="0.1"/><path d="M1859.466,707.281h.567v-.235h-.389Z" transform="translate(-1790.101 -672.323)" fill="#ffe400" stroke="#161615" stroke-miterlimit="10" stroke-width="0.1"/><path d="M1861.923,712.3c.933-.1,1.652-.684,1.652-1.4v-1.4h-1.652Z" transform="translate(-1788.335 -670.567)" fill="#ffe400" stroke="#161615" stroke-miterlimit="10" stroke-width="0.1"/><path d="M1861.923,706.493v1.951h1.652v-3.014a5.334,5.334,0,0,1-1.33.919C1862.141,706.4,1862.03,706.446,1861.923,706.493Z" transform="translate(-1788.335 -673.485)" fill="#ffe400" stroke="#161615" stroke-miterlimit="10" stroke-width="0.1"/><path d="M1861.862,706.474v-.313c-.144.06-.306.124-.457.186l.095.127Z" transform="translate(-1788.707 -672.959)" fill="#ffe400" stroke="#161615" stroke-miterlimit="10" stroke-width="0.1"/><path d="M1861.85,707.014l-.373.479h-.49v.337h.57l.208-.277h.4v-1.12h-.4l-.11-.151c-.219.084-.437.172-.662.253h.483Z" transform="translate(-1789.008 -672.872)" fill="#ffe400" stroke="#161615" stroke-miterlimit="10" stroke-width="0.1"/><path d="M1860.661,707.285h.366v-.768c-.2.067-.392.141-.6.2l-.1.134Z" transform="translate(-1789.481 -672.703)" fill="#ffe400" stroke="#161615" stroke-miterlimit="10" stroke-width="0.1"/><path d="M1861.783,710.523l-.339-.436h-.457v.873h.457Z" transform="translate(-1789.008 -670.138)" fill="#ffe400" stroke="#161615" stroke-miterlimit="10" stroke-width="0.1"/><path d="M1860.329,710.523l.332.436h.366v-.873h-.366Z" transform="translate(-1789.481 -670.138)" fill="#ffe400" stroke="#161615" stroke-miterlimit="10" stroke-width="0.1"/><path d="M1861.783,706.891l-.339-.436h-.457v.873h.457Z" transform="translate(-1789.008 -672.749)" fill="#ffe400" stroke="#161615" stroke-miterlimit="10" stroke-width="0.1"/><path d="M1861.265,709.887l.336.44h.363v-.836h-.393Z" transform="translate(-1788.809 -670.566)" fill="#ffe400" stroke="#161615" stroke-miterlimit="10" stroke-width="0.1"/><path d="M1860.846,709.887l-.309-.4h-.487v.836h.463Z" transform="translate(-1789.682 -670.566)" fill="#ffe400" stroke="#161615" stroke-miterlimit="10" stroke-width="0.1"/><path d="M1861.359,707.281h.537v-.235h-.363Z" transform="translate(-1788.741 -672.323)" fill="#ffe400" stroke="#161615" stroke-miterlimit="10" stroke-width="0.1"/><path d="M1859.88,710.523l-.336-.436h-.429v.873h.429Z" transform="translate(-1790.354 -670.138)" fill="#ffe400" stroke="#161615" stroke-miterlimit="10" stroke-width="0.1"/><path d="M1860.543,707.289l.208.277h.476v-.337h-.4l-.369-.473.081-.1c-.162.041-.327.094-.493.144v.493Z" transform="translate(-1789.681 -672.607)" fill="#ffe400" stroke="#161615" stroke-miterlimit="10" stroke-width="0.1"/><path d="M1861.6,710.681l-.336.436.265.339h.433v-.775Z" transform="translate(-1788.809 -669.712)" fill="#ffe400" stroke="#161615" stroke-miterlimit="10" stroke-width="0.1"/><path d="M1857.9,709.491v1.4c0,.718.722,1.3,1.652,1.4v-2.806Z" transform="translate(-1791.228 -670.567)" fill="#ffe400" stroke="#161615" stroke-miterlimit="10" stroke-width="0.1"/><path d="M1860.832,711.431l-.369-.48.369-.477h.4v-.983h-.621l.3.4-.366.483h-.493v1.118h.493l.366.483-.262.339h.581v-.879Z" transform="translate(-1789.682 -670.566)" fill="#ffe400" stroke="#161615" stroke-miterlimit="10" stroke-width="0.1"/><path d="M1859.3,707.046c-.349.081-.7.162-1.067.235h1.067Z" transform="translate(-1790.984 -672.323)" fill="#ffe400" stroke="#161615" stroke-miterlimit="10" stroke-width="0.1"/><path d="M1859.711,710.681l-.339.436.269.339h.46v-.775Z" transform="translate(-1790.168 -669.712)" fill="#ffe400" stroke="#161615" stroke-miterlimit="10" stroke-width="0.1"/><path d="M1859.866,711.488h.42v-1.118h-.42l-.373-.483.305-.4h-.685v.98h.46l.376.48-.376.477h-.46v.883h.644l-.265-.339Z" transform="translate(-1790.354 -670.566)" fill="#ffe400" stroke="#161615" stroke-miterlimit="10" stroke-width="0.1"/><path d="M1859.655,707.452l.212-.277h.419v-.368c-.191.053-.394.107-.591.16l-.12.148h-.46v.337Z" transform="translate(-1790.354 -672.494)" fill="#ffe400" stroke="#161615" stroke-miterlimit="10" stroke-width="0.1"/><path d="M1860.513,710.681h-.463v.775h.534l.262-.339Z" transform="translate(-1789.682 -669.712)" fill="#ffe400" stroke="#161615" stroke-miterlimit="10" stroke-width="0.1"/><path d="M1861.766,711.488h.4v-1.118h-.4l-.363-.483.3-.4h-.719v.98h.49l.373.48-.373.477h-.49v.883h.671l-.255-.339Z" transform="translate(-1789.008 -670.566)" fill="#ffe400" stroke="#161615" stroke-miterlimit="10" stroke-width="0.1"/><path d="M1859.538,706.915l-.321.081h.254Z" transform="translate(-1790.281 -672.418)" fill="#ffe400" stroke="#161615" stroke-miterlimit="10" stroke-width="0.1"/><path d="M1861.265,707.388l.336.436h.363v-.641h-.537Z" transform="translate(-1788.809 -672.225)" fill="#ffe400" stroke="#161615" stroke-miterlimit="10" stroke-width="0.1"/><path d="M1861.4,707.388l.154-.2h-.571v.785h.49l.373.48-.373.48h-.49v1.121h.49l.373.48-.373.477h-.49v.144h.719l.06-.081h.4v-1.128h-.4l-.363-.473.363-.484h.4v-1.117h-.4Z" transform="translate(-1789.008 -672.225)" fill="#ffe400" stroke="#161615" stroke-miterlimit="10" stroke-width="0.1"/><rect width="1.651" height="3.967" transform="translate(73.587 34.957)" fill="#ffe400" stroke="#161615" stroke-miterlimit="10" stroke-width="0.1"/><path d="M1861.783,708.1l-.339-.436h-.457v.873h.457Z" transform="translate(-1789.008 -671.879)" fill="#ffe400" stroke="#161615" stroke-miterlimit="10" stroke-width="0.1"/><path d="M1861.783,709.311l-.339-.433h-.457v.869h.457Z" transform="translate(-1789.008 -671.007)" fill="#ffe400" stroke="#161615" stroke-miterlimit="10" stroke-width="0.1"/><path d="M1861.265,708.7l.336.433h.363v-.869h-.363Z" transform="translate(-1788.809 -671.452)" fill="#ffe400" stroke="#161615" stroke-miterlimit="10" stroke-width="0.1"/><path d="M1861.443,709.508h.393v-.04h-.363Z" transform="translate(-1788.681 -670.583)" fill="#ffe400" stroke="#161615" stroke-miterlimit="10" stroke-width="0.1"/><path d="M1859.372,707.388l.339.436h.39v-.641h-.567Z" transform="translate(-1790.168 -672.225)" fill="#ffe400" stroke="#161615" stroke-miterlimit="10" stroke-width="0.1"/><path d="M1859.549,707.183h-1.067c-.194.036-.388.077-.584.113v3.853h1.652Z" transform="translate(-1791.228 -672.225)" fill="#ffe400" stroke="#161615" stroke-miterlimit="10" stroke-width="0.1"/><path d="M1860.846,708.7l-.332-.44h-.463v.869h.463Z" transform="translate(-1789.682 -671.452)" fill="#ffe400" stroke="#161615" stroke-miterlimit="10" stroke-width="0.1"/><path d="M1859.494,707.388l.161-.2h-.54v.785h.46l.376.48-.376.48h-.46v1.121h.46l.376.48-.376.477h-.46v.144h.685l.067-.081h.42v-1.128h-.42l-.373-.473.373-.484h.42v-1.117h-.42Z" transform="translate(-1790.354 -672.225)" fill="#ffe400" stroke="#161615" stroke-miterlimit="10" stroke-width="0.1"/><path d="M1860.513,709.468h-.463v.04h.487Z" transform="translate(-1789.682 -670.583)" fill="#ffe400" stroke="#161615" stroke-miterlimit="10" stroke-width="0.1"/><path d="M1860.329,708.1l.332.44h.366v-.873h-.366Z" transform="translate(-1789.481 -671.877)" fill="#ffe400" stroke="#161615" stroke-miterlimit="10" stroke-width="0.1"/><path d="M1860.329,709.311l.332.436h.366v-.869h-.366Z" transform="translate(-1789.481 -671.007)" fill="#ffe400" stroke="#161615" stroke-miterlimit="10" stroke-width="0.1"/><path d="M1860.909,707.388l-.366.48h-.493v1.117h.493l.366.487-.366.477h-.493v1.121h.493l.064.081h.621v-.144h-.4l-.369-.477.369-.477h.4v-1.124h-.4l-.369-.48.369-.477h.4v-.789h-.477Z" transform="translate(-1789.682 -672.225)" fill="#ffe400" stroke="#161615" stroke-miterlimit="10" stroke-width="0.1"/><path d="M1859.552,709.508h.419v-.04h-.389Z" transform="translate(-1790.039 -670.583)" fill="#ffe400" stroke="#161615" stroke-miterlimit="10" stroke-width="0.1"/><path d="M1860.846,707.388l-.165-.2h-.631v.641h.463Z" transform="translate(-1789.682 -672.225)" fill="#ffe400" stroke="#161615" stroke-miterlimit="10" stroke-width="0.1"/><path d="M1859.372,708.7l.339.433h.39v-.869h-.39Z" transform="translate(-1790.168 -671.452)" fill="#ffe400" stroke="#161615" stroke-miterlimit="10" stroke-width="0.1"/><path d="M1859.88,709.311l-.336-.433h-.429v.869h.429Z" transform="translate(-1790.354 -671.007)" fill="#ffe400" stroke="#161615" stroke-miterlimit="10" stroke-width="0.1"/><path d="M1859.88,708.1l-.336-.436h-.429v.873h.429Z" transform="translate(-1790.354 -671.879)" fill="#ffe400" stroke="#161615" stroke-miterlimit="10" stroke-width="0.1"/><path d="M1861.384,707.3l-.154.2.363.48h.4v-.044h-.363l-.336-.436.161-.2.175-.235h.363v-.04h-.4Z" transform="translate(-1788.834 -672.34)" fill="#ffe400" stroke="#161615" stroke-miterlimit="10" stroke-width="0.1"/><path d="M1861.444,706.472l.339.436-.339.436h-.457v.044h.49l.373-.48-.373-.48h-.483l-.007,0v.04Z" transform="translate(-1789.008 -672.767)" fill="#ffe400" stroke="#161615" stroke-miterlimit="10" stroke-width="0.1"/><path d="M1860.29,710.54l.369.48h.4v-.044h-.366l-.332-.436.332-.436h.366v-.04h-.4Z" transform="translate(-1789.509 -670.155)" fill="#ffe400" stroke="#161615" stroke-miterlimit="10" stroke-width="0.1"/><path d="M1861.444,710.105l.339.436-.339.436h-.457v.04h.49l.373-.477-.373-.48h-.49v.044Z" transform="translate(-1789.008 -670.157)" fill="#ffe400" stroke="#161615" stroke-miterlimit="10" stroke-width="0.1"/><path d="M1861.883,706.443V706.4h-.363l-.095-.127a.189.189,0,0,0-.05.022l.11.151Z" transform="translate(-1788.729 -672.882)" fill="#ffe400" stroke="#161615" stroke-miterlimit="10" stroke-width="0.1"/><path d="M1861.626,710.7h.363v-.047h-.4l-.363.483.255.339h.07l-.265-.339Z" transform="translate(-1788.834 -669.731)" fill="#ffe400" stroke="#161615" stroke-miterlimit="10" stroke-width="0.1"/><path d="M1860.66,707.241h.4v-.04h-.366l-.332-.433.1-.134c-.024.01-.058.017-.084.029l-.081.1Z" transform="translate(-1789.509 -672.619)" fill="#ffe400" stroke="#161615" stroke-miterlimit="10" stroke-width="0.1"/><path d="M1859.544,710.105l.336.436-.336.436h-.429v.04h.46l.376-.477-.376-.48h-.46v.044Z" transform="translate(-1790.354 -670.157)" fill="#ffe400" stroke="#161615" stroke-miterlimit="10" stroke-width="0.1"/><path d="M1860.543,710.653h-.493v.047h.463l.332.436-.262.339h.064l.262-.339Z" transform="translate(-1789.682 -669.731)" fill="#ffe400" stroke="#161615" stroke-miterlimit="10" stroke-width="0.1"/><path d="M1859.695,706.9a.322.322,0,0,0-.084.024l-.067.081h-.254c-.06.014-.122.029-.175.043h.46Z" transform="translate(-1790.354 -672.427)" fill="#ffe400" stroke="#161615" stroke-miterlimit="10" stroke-width="0.1"/><path d="M1859.5,707.3l-.161.2.373.48h.42v-.044h-.389l-.339-.436.161-.2.178-.235h.389v-.04h-.42Z" transform="translate(-1790.195 -672.34)" fill="#ffe400" stroke="#161615" stroke-miterlimit="10" stroke-width="0.1"/><path d="M1859.738,710.7h.389v-.047h-.42l-.373.483.265.339h.067l-.269-.339Z" transform="translate(-1790.195 -669.731)" fill="#ffe400" stroke="#161615" stroke-miterlimit="10" stroke-width="0.1"/><path d="M1859.95,708.12l-.376-.48h-.46v.044h.429l.336.436-.336.437h-.429v.043h.46Z" transform="translate(-1790.354 -671.897)" fill="#ffe400" stroke="#161615" stroke-miterlimit="10" stroke-width="0.1"/><path d="M1860.909,708.718l-.366-.487h-.493v.047h.463l.332.44-.332.43h-.463v.047h.493Z" transform="translate(-1789.682 -671.472)" fill="#ffe400" stroke="#161615" stroke-miterlimit="10" stroke-width="0.1"/><path d="M1861.532,709.525l-.3.4.363.483h.4v-.044h-.363l-.336-.44.306-.4.03-.04h.363v-.04h-.4Z" transform="translate(-1788.834 -670.6)" fill="#ffe400" stroke="#161615" stroke-miterlimit="10" stroke-width="0.1"/><path d="M1861.85,709.331l-.373-.48h-.49v.047h.457l.339.433-.339.436h-.457v.04h.49Z" transform="translate(-1789.008 -671.027)" fill="#ffe400" stroke="#161615" stroke-miterlimit="10" stroke-width="0.1"/><path d="M1860.05,709.444v.04h.463l.023.04.309.4-.332.44h-.463v.044h.493l.366-.483-.3-.4-.064-.081Z" transform="translate(-1789.682 -670.6)" fill="#ffe400" stroke="#161615" stroke-miterlimit="10" stroke-width="0.1"/><path d="M1860.29,709.329l.369.477h.4v-.04h-.366l-.332-.436.332-.433h.366v-.044h-.4Z" transform="translate(-1789.509 -671.025)" fill="#ffe400" stroke="#161615" stroke-miterlimit="10" stroke-width="0.1"/><path d="M1860.29,708.118l.369.48h.4v-.04h-.366l-.332-.44.332-.433h.366v-.044h-.4Z" transform="translate(-1789.509 -671.895)" fill="#ffe400" stroke="#161615" stroke-miterlimit="10" stroke-width="0.1"/><path d="M1861.85,708.12l-.373-.48h-.49v.044h.457l.339.436-.339.437h-.457v.043h.49Z" transform="translate(-1789.008 -671.897)" fill="#ffe400" stroke="#161615" stroke-miterlimit="10" stroke-width="0.1"/><path d="M1859.95,709.331l-.376-.48h-.46v.047h.429l.336.433-.336.436h-.429v.04h.46Z" transform="translate(-1790.354 -671.027)" fill="#ffe400" stroke="#161615" stroke-miterlimit="10" stroke-width="0.1"/><path d="M1861.229,708.715l.363.473h.4v-.04h-.363l-.336-.433.336-.436h.363v-.047h-.4Z" transform="translate(-1788.834 -671.472)" fill="#ffe400" stroke="#161615" stroke-miterlimit="10" stroke-width="0.1"/><path d="M1860.909,707.5l-.158-.2-.208-.275h-.493v.047h.463l.168.228.165.2-.332.436h-.463v.044h.493Z" transform="translate(-1789.682 -672.34)" fill="#ffe400" stroke="#161615" stroke-miterlimit="10" stroke-width="0.1"/><path d="M1859.335,708.715l.373.473h.42v-.04h-.389l-.339-.433.339-.436h.389v-.047h-.42Z" transform="translate(-1790.195 -671.472)" fill="#ffe400" stroke="#161615" stroke-miterlimit="10" stroke-width="0.1"/><path d="M1859.641,709.525l-.306.4.373.483h.42v-.044h-.389l-.339-.44.309-.4.03-.04h.389v-.04h-.42Z" transform="translate(-1790.195 -670.6)" fill="#ffe400" stroke="#161615" stroke-miterlimit="10" stroke-width="0.1"/><path d="M1861.936,708v-1.951l-.031.014v8.723h.031V708Z" transform="translate(-1788.348 -673.04)" fill="#ffe400" stroke="#161615" stroke-miterlimit="10" stroke-width="0.1"/><path d="M1861.781,706.132c-.033.017-.07.033-.11.05v8.543h.11Z" transform="translate(-1788.516 -672.98)" fill="#ffe400" stroke="#161615" stroke-miterlimit="10" stroke-width="0.1"/><path d="M1862.027,706.056c-.093.043-.191.089-.292.131v8.593h.292Z" transform="translate(-1788.471 -673.035)" fill="#ffe400" stroke="#161615" stroke-miterlimit="10" stroke-width="0.1"/><path d="M1861,713.587v-7.156l-.026.007v8.072H1861v-.923Z" transform="translate(-1789.019 -672.765)" fill="#ffe400" stroke="#161615" stroke-miterlimit="10" stroke-width="0.1"/><path d="M1860.843,706.495l-.108.038v7.931h.108Z" transform="translate(-1789.189 -672.719)" fill="#ffe400" stroke="#161615" stroke-miterlimit="10" stroke-width="0.1"/><path d="M1861.1,706.435c-.1.036-.206.07-.3.1v7.969h.3Z" transform="translate(-1789.144 -672.762)" fill="#ffe400" stroke="#161615" stroke-miterlimit="10" stroke-width="0.1"/><path d="M1860.063,713.468v-6.733l-.031.007v7.549h.031v-.823Z" transform="translate(-1789.694 -672.547)" fill="#ffe400" stroke="#161615" stroke-miterlimit="10" stroke-width="0.1"/><path d="M1859.906,706.792a.852.852,0,0,1-.11.027v7.431h.11Z" transform="translate(-1789.864 -672.506)" fill="#ffe400" stroke="#161615" stroke-miterlimit="10" stroke-width="0.1"/><path d="M1860.156,706.739l-.3.091v7.458h.3Z" transform="translate(-1789.818 -672.544)" fill="#ffe400" stroke="#161615" stroke-miterlimit="10" stroke-width="0.1"/><path d="M1858.967,707.032c-.038.01-.064.014-.108.024v7.022h.108Z" transform="translate(-1790.538 -672.333)" fill="#ffe400" stroke="#161615" stroke-miterlimit="10" stroke-width="0.1"/><path d="M1859.129,713.187v-6.2l-.036.007v7.116h.036v-.923Z" transform="translate(-1790.369 -672.366)" fill="#ffe400" stroke="#161615" stroke-miterlimit="10" stroke-width="0.1"/><path d="M1859.217,706.991c-.1.027-.2.048-.3.07v7.046h.3Z" transform="translate(-1790.493 -672.363)" fill="#ffe400" stroke="#161615" stroke-miterlimit="10" stroke-width="0.1"/><path d="M1838.321,709.491v1.4c0,.718.722,1.3,1.655,1.4v-2.806Z" transform="translate(-1805.211 -670.567)" fill="#ffe400" stroke="#161615" stroke-miterlimit="10" stroke-width="0.1"/><path d="M1842.32,707.268v-.115c-.129-.029-.252-.06-.383-.088l-.155.2Z" transform="translate(-1802.734 -672.31)" fill="#ffe400" stroke="#161615" stroke-miterlimit="10" stroke-width="0.1"/><path d="M1842.026,710.681l-.335.436.265.339h.43v-.775Z" transform="translate(-1802.8 -669.712)" fill="#ffe400" stroke="#161615" stroke-miterlimit="10" stroke-width="0.1"/><path d="M1840.933,710.681h-.46v.775h.53l.265-.339Z" transform="translate(-1803.671 -669.712)" fill="#ffe400" stroke="#161615" stroke-miterlimit="10" stroke-width="0.1"/><path d="M1841.252,711.431l-.363-.48.363-.477h.4v-.983h-.621l.306.4-.366.483h-.493v1.118h.493l.366.483-.262.339h.578v-.879Z" transform="translate(-1803.671 -670.566)" fill="#ffe400" stroke="#161615" stroke-miterlimit="10" stroke-width="0.1"/><path d="M1842.19,711.488h.4v-1.118h-.4l-.369-.483.309-.4h-.719v.98h.493l.366.48-.366.477h-.493v.883h.675l-.265-.339Z" transform="translate(-1803 -670.566)" fill="#ffe400" stroke="#161615" stroke-miterlimit="10" stroke-width="0.1"/><path d="M1840.135,710.681l-.335.436.262.339h.463v-.775Z" transform="translate(-1804.153 -669.712)" fill="#ffe400" stroke="#161615" stroke-miterlimit="10" stroke-width="0.1"/><path d="M1840.289,711.488h.426v-1.118h-.426l-.366-.483.306-.4h-.695v.98h.47l.366.48-.366.477h-.47v.883h.654l-.265-.339Z" transform="translate(-1804.343 -670.566)" fill="#ffe400" stroke="#161615" stroke-miterlimit="10" stroke-width="0.1"/><path d="M1842.347,712.3c.933-.095,1.655-.684,1.655-1.4v-1.4h-1.655Z" transform="translate(-1802.331 -670.567)" fill="#ffe400" stroke="#161615" stroke-miterlimit="10" stroke-width="0.1"/><path d="M1842.45,707.193c-.033-.007-.067-.014-.1-.024v.024Z" transform="translate(-1802.33 -672.235)" fill="#ffe400" stroke="#161615" stroke-miterlimit="10" stroke-width="0.1"/><path d="M1840.967,707.255l.208.277h.473v-.337h-.4l-.263-.339c-.174-.05-.345-.106-.516-.158v.557Z" transform="translate(-1803.671 -672.573)" fill="#ffe400" stroke="#161615" stroke-miterlimit="10" stroke-width="0.1"/><path d="M1840.3,710.523l-.332-.436h-.436v.873h.436Z" transform="translate(-1804.343 -670.138)" fill="#ffe400" stroke="#161615" stroke-miterlimit="10" stroke-width="0.1"/><path d="M1841.439,706.965c0-.007-.017-.007-.027-.007v.007Z" transform="translate(-1803 -672.387)" fill="#ffe400" stroke="#161615" stroke-miterlimit="10" stroke-width="0.1"/><path d="M1841.69,709.887l.335.44h.359v-.836H1842Z" transform="translate(-1802.8 -670.566)" fill="#ffe400" stroke="#161615" stroke-miterlimit="10" stroke-width="0.1"/><path d="M1841.4,707.079v-.124c-.187-.052-.385-.1-.577-.151l.215.275Z" transform="translate(-1803.422 -672.497)" fill="#ffe400" stroke="#161615" stroke-miterlimit="10" stroke-width="0.1"/><path d="M1839.8,709.887l.335.44h.389v-.836h-.423Z" transform="translate(-1804.153 -670.566)" fill="#ffe400" stroke="#161615" stroke-miterlimit="10" stroke-width="0.1"/><path d="M1840.751,710.523l.336.436h.363v-.873h-.363Z" transform="translate(-1803.472 -670.138)" fill="#ffe400" stroke="#161615" stroke-miterlimit="10" stroke-width="0.1"/><path d="M1840.933,707.05h-.46v.228h.634Z" transform="translate(-1803.67 -672.321)" fill="#ffe400" stroke="#161615" stroke-miterlimit="10" stroke-width="0.1"/><path d="M1842.207,710.523l-.336-.436h-.46v.873h.46Z" transform="translate(-1803 -670.138)" fill="#ffe400" stroke="#161615" stroke-miterlimit="10" stroke-width="0.1"/><path d="M1841.269,709.887l-.3-.4h-.493v.836h.46Z" transform="translate(-1803.671 -670.566)" fill="#ffe400" stroke="#161615" stroke-miterlimit="10" stroke-width="0.1"/><path d="M1841.411,707.324h.574l.158-.215c-.172-.041-.356-.081-.528-.122h-.2Z" transform="translate(-1803 -672.366)" fill="#ffe400" stroke="#161615" stroke-miterlimit="10" stroke-width="0.1"/><path d="M1839.534,707.327h.436l.332-.436-.292-.387c-.05-.015-.1-.029-.146-.05h-.33Z" transform="translate(-1804.343 -672.749)" fill="#ffe400" stroke="#161615" stroke-miterlimit="10" stroke-width="0.1"/><path d="M1839.735,706.458c-.067-.024-.131-.052-.2-.07v.07Z" transform="translate(-1804.342 -672.796)" fill="#ffe400" stroke="#161615" stroke-miterlimit="10" stroke-width="0.1"/><path d="M1840,707.335h-.471v.337h.55l.206-.277h.427v-.684c-.211-.074-.414-.141-.615-.208l.268.352Z" transform="translate(-1804.343 -672.714)" fill="#ffe400" stroke="#161615" stroke-miterlimit="10" stroke-width="0.1"/><path d="M1839.976,706.607c-.454-.177-.889-.359-1.289-.553-.134-.064-.241-.144-.366-.215v2.31h1.655Z" transform="translate(-1805.211 -673.191)" fill="#ffe400" stroke="#161615" stroke-miterlimit="10" stroke-width="0.1"/><path d="M1839.889,707.281h.571v-.235h-.39Z" transform="translate(-1804.088 -672.323)" fill="#ffe400" stroke="#161615" stroke-miterlimit="10" stroke-width="0.1"/><path d="M1842.347,707.183v3.966H1844v-3.681c-.535-.088-1.048-.186-1.552-.285Z" transform="translate(-1802.331 -672.225)" fill="#ffe400" stroke="#161615" stroke-miterlimit="10" stroke-width="0.1"/><path d="M1841.333,707.388l-.366.48h-.493v1.117h.493l.366.487-.366.477h-.493v1.121h.493l.061.081h.621v-.144h-.4l-.363-.477.363-.477h.4v-1.124h-.4l-.363-.48.363-.477h.4v-.789h-.473Z" transform="translate(-1803.671 -672.225)" fill="#ffe400" stroke="#161615" stroke-miterlimit="10" stroke-width="0.1"/><path d="M1840.751,708.1l.336.44h.363v-.873h-.363Z" transform="translate(-1803.472 -671.877)" fill="#ffe400" stroke="#161615" stroke-miterlimit="10" stroke-width="0.1"/><path d="M1840.3,708.1l-.332-.436h-.436v.873h.436Z" transform="translate(-1804.343 -671.879)" fill="#ffe400" stroke="#161615" stroke-miterlimit="10" stroke-width="0.1"/><path d="M1840.751,709.311l.336.436h.363v-.869h-.363Z" transform="translate(-1803.472 -671.007)" fill="#ffe400" stroke="#161615" stroke-miterlimit="10" stroke-width="0.1"/><path d="M1839.8,708.7l.335.433h.389v-.869h-.389Z" transform="translate(-1804.153 -671.452)" fill="#ffe400" stroke="#161615" stroke-miterlimit="10" stroke-width="0.1"/><path d="M1840.933,709.468h-.46v.04h.493Z" transform="translate(-1803.67 -670.583)" fill="#ffe400" stroke="#161615" stroke-miterlimit="10" stroke-width="0.1"/><path d="M1840.3,709.311l-.332-.433h-.436v.869h.436Z" transform="translate(-1804.343 -671.007)" fill="#ffe400" stroke="#161615" stroke-miterlimit="10" stroke-width="0.1"/><path d="M1839.976,709.508h.423v-.04h-.389Z" transform="translate(-1804.026 -670.583)" fill="#ffe400" stroke="#161615" stroke-miterlimit="10" stroke-width="0.1"/><path d="M1841.269,707.388l-.161-.2h-.634v.641h.46Z" transform="translate(-1803.671 -672.225)" fill="#ffe400" stroke="#161615" stroke-miterlimit="10" stroke-width="0.1"/><path d="M1841.69,708.7l.335.433h.359v-.869h-.359Z" transform="translate(-1802.8 -671.452)" fill="#ffe400" stroke="#161615" stroke-miterlimit="10" stroke-width="0.1"/><path d="M1841.69,707.388l.335.436h.359v-.641h-.537Z" transform="translate(-1802.8 -672.225)" fill="#ffe400" stroke="#161615" stroke-miterlimit="10" stroke-width="0.1"/><path d="M1841.868,709.508h.389v-.04h-.359Z" transform="translate(-1802.672 -670.583)" fill="#ffe400" stroke="#161615" stroke-miterlimit="10" stroke-width="0.1"/><path d="M1842.207,709.311l-.336-.433h-.46v.869h.46Z" transform="translate(-1803 -671.007)" fill="#ffe400" stroke="#161615" stroke-miterlimit="10" stroke-width="0.1"/><path d="M1842.207,708.1l-.336-.436h-.46v.873h.46Z" transform="translate(-1803 -671.879)" fill="#ffe400" stroke="#161615" stroke-miterlimit="10" stroke-width="0.1"/><path d="M1841.269,708.7l-.336-.44h-.46v.869h.46Z" transform="translate(-1803.671 -671.452)" fill="#ffe400" stroke="#161615" stroke-miterlimit="10" stroke-width="0.1"/><path d="M1839.923,707.388l.161-.2h-.55v.785h.47l.366.48-.366.48h-.47v1.121h.47l.366.48-.366.477h-.47v.144h.695l.06-.081h.426v-1.128h-.426l-.366-.473.366-.484h.426v-1.117h-.426Z" transform="translate(-1804.343 -672.225)" fill="#ffe400" stroke="#161615" stroke-miterlimit="10" stroke-width="0.1"/><path d="M1841.821,707.388l.165-.2h-.574v.785h.493l.366.48-.366.48h-.493v1.121h.493l.366.48-.366.477h-.493v.144h.719l.06-.081h.4v-1.128h-.4l-.369-.473.369-.484h.4v-1.117h-.4Z" transform="translate(-1803 -672.225)" fill="#ffe400" stroke="#161615" stroke-miterlimit="10" stroke-width="0.1"/><path d="M1839.8,707.388l.335.436h.389v-.641h-.571Z" transform="translate(-1804.153 -672.225)" fill="#ffe400" stroke="#161615" stroke-miterlimit="10" stroke-width="0.1"/><rect width="1.655" height="3.967" transform="translate(33.11 34.957)" fill="#ffe400" stroke="#161615" stroke-miterlimit="10" stroke-width="0.1"/><path d="M1841.432,707.129v-.04h-.363l-.215-.275a.3.3,0,0,0-.081-.024l.263.339Z" transform="translate(-1803.455 -672.507)" fill="#ffe400" stroke="#161615" stroke-miterlimit="10" stroke-width="0.1"/><path d="M1839.534,706.472h.33c-.038-.014-.084-.026-.129-.043h-.2Z" transform="translate(-1804.342 -672.767)" fill="#ffe400" stroke="#161615" stroke-miterlimit="10" stroke-width="0.1"/><path d="M1839.97,707.306h-.436v.043H1840l.365-.479-.268-.352c-.029-.014-.064-.024-.091-.034l.292.387Z" transform="translate(-1804.343 -672.728)" fill="#ffe400" stroke="#161615" stroke-miterlimit="10" stroke-width="0.1"/><path d="M1840.967,710.653h-.493v.047h.46l.336.436-.265.339h.067l.262-.339Z" transform="translate(-1803.671 -669.731)" fill="#ffe400" stroke="#161615" stroke-miterlimit="10" stroke-width="0.1"/><path d="M1841.411,707.005h.2l-.177-.043h-.027Z" transform="translate(-1803 -672.384)" fill="#ffe400" stroke="#161615" stroke-miterlimit="10" stroke-width="0.1"/><path d="M1839.922,707.3l-.161.2.366.48h.426v-.044h-.389l-.335-.436.154-.2.181-.235h.389v-.04h-.426Z" transform="translate(-1804.181 -672.34)" fill="#ffe400" stroke="#161615" stroke-miterlimit="10" stroke-width="0.1"/><path d="M1840.163,710.7h.389v-.047h-.426l-.366.483.265.339h.064l-.262-.339Z" transform="translate(-1804.181 -669.731)" fill="#ffe400" stroke="#161615" stroke-miterlimit="10" stroke-width="0.1"/><path d="M1839.971,710.105l.332.436-.332.436h-.436v.04h.47l.366-.477-.366-.48h-.47v.044Z" transform="translate(-1804.343 -670.157)" fill="#ffe400" stroke="#161615" stroke-miterlimit="10" stroke-width="0.1"/><path d="M1842.055,710.7h.36v-.047h-.4l-.369.483.265.339h.071l-.265-.339Z" transform="translate(-1802.829 -669.731)" fill="#ffe400" stroke="#161615" stroke-miterlimit="10" stroke-width="0.1"/><path d="M1840.716,710.54l.363.48h.4v-.044h-.363l-.336-.436.336-.436h.363v-.04h-.4Z" transform="translate(-1803.497 -670.155)" fill="#ffe400" stroke="#161615" stroke-miterlimit="10" stroke-width="0.1"/><path d="M1841.871,710.105l.336.436-.336.436h-.46v.04h.493l.366-.477-.366-.48h-.493v.044Z" transform="translate(-1803 -670.157)" fill="#ffe400" stroke="#161615" stroke-miterlimit="10" stroke-width="0.1"/><path d="M1842.271,709.331l-.366-.48h-.493v.047h.46l.336.433-.336.436h-.46v.04h.493Z" transform="translate(-1803 -671.027)" fill="#ffe400" stroke="#161615" stroke-miterlimit="10" stroke-width="0.1"/><path d="M1842.271,708.12l-.366-.48h-.493v.044h.46l.336.436-.336.437h-.46v.043h.493Z" transform="translate(-1803 -671.897)" fill="#ffe400" stroke="#161615" stroke-miterlimit="10" stroke-width="0.1"/><path d="M1840.37,709.331l-.366-.48h-.47v.047h.436l.332.433-.332.436h-.436v.04h.47Z" transform="translate(-1804.343 -671.027)" fill="#ffe400" stroke="#161615" stroke-miterlimit="10" stroke-width="0.1"/><path d="M1841.958,709.525l-.309.4.369.483h.4v-.044h-.36l-.335-.44.306-.4.03-.04h.36v-.04h-.4Z" transform="translate(-1802.829 -670.6)" fill="#ffe400" stroke="#161615" stroke-miterlimit="10" stroke-width="0.1"/><path d="M1840.37,708.12l-.366-.48h-.47v.044h.436l.332.436-.332.437h-.436v.043h.47Z" transform="translate(-1804.343 -671.897)" fill="#ffe400" stroke="#161615" stroke-miterlimit="10" stroke-width="0.1"/><path d="M1841.333,708.718l-.366-.487h-.493v.047h.46l.336.44-.336.43h-.46v.047h.493Z" transform="translate(-1803.671 -671.472)" fill="#ffe400" stroke="#161615" stroke-miterlimit="10" stroke-width="0.1"/><path d="M1840.474,709.444v.04h.46l.033.04.3.4-.336.44h-.46v.044h.493l.366-.483-.306-.4-.061-.081Z" transform="translate(-1803.671 -670.6)" fill="#ffe400" stroke="#161615" stroke-miterlimit="10" stroke-width="0.1"/><path d="M1841.333,707.5l-.158-.2-.209-.275h-.493v.047h.46l.174.228.161.2-.336.436h-.46v.044h.493Z" transform="translate(-1803.671 -672.34)" fill="#ffe400" stroke="#161615" stroke-miterlimit="10" stroke-width="0.1"/><path d="M1841.649,708.715l.369.473h.4v-.04h-.36l-.335-.433.335-.436h.36v-.047h-.4Z" transform="translate(-1802.829 -671.472)" fill="#ffe400" stroke="#161615" stroke-miterlimit="10" stroke-width="0.1"/><path d="M1840.716,709.329l.363.477h.4v-.04h-.363l-.336-.436.336-.433h.363v-.044h-.4Z" transform="translate(-1803.497 -671.025)" fill="#ffe400" stroke="#161615" stroke-miterlimit="10" stroke-width="0.1"/><path d="M1840.716,708.118l.363.48h.4v-.04h-.363l-.336-.44.336-.433h.363v-.044h-.4Z" transform="translate(-1803.497 -671.895)" fill="#ffe400" stroke="#161615" stroke-miterlimit="10" stroke-width="0.1"/><path d="M1840.066,709.525l-.306.4.366.483h.426v-.044h-.389l-.335-.44.3-.4.034-.04h.389v-.04h-.426Z" transform="translate(-1804.181 -670.6)" fill="#ffe400" stroke="#161615" stroke-miterlimit="10" stroke-width="0.1"/><path d="M1841.649,707.477l.37.479h.4v-.043h-.359l-.337-.437.158-.2.155-.2a.308.308,0,0,1-.06-.012l-.158.215Z" transform="translate(-1802.829 -672.315)" fill="#ffe400" stroke="#161615" stroke-miterlimit="10" stroke-width="0.1"/><path d="M1839.761,708.715l.366.473h.426v-.04h-.389l-.335-.433.335-.436h.389v-.047h-.426Z" transform="translate(-1804.181 -671.472)" fill="#ffe400" stroke="#161615" stroke-miterlimit="10" stroke-width="0.1"/><path d="M1842.36,707.194v-.024l-.031,0v6.814h.031v-6.786Z" transform="translate(-1802.343 -672.236)" fill="#ffe400" stroke="#161615" stroke-miterlimit="10" stroke-width="0.1"/><path d="M1842.2,707.143c-.033-.01-.067-.017-.11-.028v6.9h.11Z" transform="translate(-1802.51 -672.273)" fill="#ffe400" stroke="#161615" stroke-miterlimit="10" stroke-width="0.1"/><path d="M1842.451,707.192c-.094-.021-.2-.039-.292-.06v6.874h.292Z" transform="translate(-1802.464 -672.262)" fill="#ffe400" stroke="#161615" stroke-miterlimit="10" stroke-width="0.1"/><path d="M1841.423,713.211v-6.25a.048.048,0,0,0-.029-.007v7.18h.029v-.923Z" transform="translate(-1803.011 -672.39)" fill="#ffe400" stroke="#161615" stroke-miterlimit="10" stroke-width="0.1"/><path d="M1841.269,706.918a1.052,1.052,0,0,1-.112-.026v7.286h.112Z" transform="translate(-1803.181 -672.434)" fill="#ffe400" stroke="#161615" stroke-miterlimit="10" stroke-width="0.1"/><path d="M1841.518,706.988c-.1-.031-.2-.053-.3-.081v7.261h.3Z" transform="translate(-1803.135 -672.423)" fill="#ffe400" stroke="#161615" stroke-miterlimit="10" stroke-width="0.1"/><path d="M1840.488,713.5v-6.8a.127.127,0,0,0-.034-.01v7.63h.034V713.5Z" transform="translate(-1803.684 -672.578)" fill="#ffe400" stroke="#161615" stroke-miterlimit="10" stroke-width="0.1"/><path d="M1840.329,706.655c-.033-.014-.074-.021-.107-.031v7.747h.107Z" transform="translate(-1803.85 -672.627)" fill="#ffe400" stroke="#161615" stroke-miterlimit="10" stroke-width="0.1"/><path d="M1840.576,706.728c-.1-.033-.2-.053-.292-.086v7.716h.292Z" transform="translate(-1803.806 -672.614)" fill="#ffe400" stroke="#161615" stroke-miterlimit="10" stroke-width="0.1"/><path d="M1839.389,706.327a.66.66,0,0,1-.1-.041v8.328h.1Z" transform="translate(-1804.521 -672.869)" fill="#ffe400" stroke="#161615" stroke-miterlimit="10" stroke-width="0.1"/><path d="M1839.545,713.624v-7.23l-.026-.014v8.166h.026v-.923Z" transform="translate(-1804.353 -672.802)" fill="#ffe400" stroke="#161615" stroke-miterlimit="10" stroke-width="0.1"/><path d="M1839.644,706.43c-.1-.041-.2-.077-.3-.12V714.6h.3Z" transform="translate(-1804.477 -672.852)" fill="#ffe400" stroke="#161615" stroke-miterlimit="10" stroke-width="0.1"/><path d="M1840.366,694.265a6.721,6.721,0,0,0-1.172.423,3.811,3.811,0,0,0,2.978.768,13.355,13.355,0,0,1,.124-1.38A5.684,5.684,0,0,0,1840.366,694.265Z" transform="translate(-1804.588 -681.655)" fill="#ffe400" stroke="#161615" stroke-miterlimit="10" stroke-width="0.1"/><path d="M1838.867,695.607l-.2-.206c-.035.031-.059.055-.088.081-.242.242-.483.507-.718.785a12.086,12.086,0,0,0-1.25,1.8,1.728,1.728,0,0,0,2.356.007A1.747,1.747,0,0,0,1838.867,695.607Z" transform="translate(-1806.436 -680.69)" fill="#ffe400" stroke="#161615" stroke-miterlimit="10" stroke-width="0.1"/><path d="M1841.051,694.247a13.286,13.286,0,0,0-.124,1.38,1.17,1.17,0,0,0,.479-.275l1.553-1.531h-1.843C1841.087,693.959,1841.074,694.11,1841.051,694.247Z" transform="translate(-1803.347 -681.826)" fill="#ffe400" stroke="#161615" stroke-miterlimit="10" stroke-width="0.1"/><g transform="translate(29.939 23.322)"><path d="M1836.679,700.773c-.177,2.263-.822,6.8,2.933,8.965.125.071.232.151.366.215.4.194.835.376,1.289.553a.656.656,0,0,0,.1.041c.1.043.2.079.3.12l.026.014c.07.019.134.046.2.071.045.017.091.029.129.043s.1.034.146.05c.027.01.062.021.091.034.2.067.4.134.615.208.033.01.074.017.107.031.094.033.194.053.292.086a.126.126,0,0,1,.034.01c.17.052.342.108.516.158a.3.3,0,0,1,.081.024c.193.05.39.1.577.151a1.054,1.054,0,0,0,.112.026c.1.028.194.05.3.081a.048.048,0,0,1,.029.007c.01,0,.024,0,.027.007l.177.043c.172.041.356.081.528.122a.311.311,0,0,0,.06.012c.131.028.255.058.383.088.043.01.078.017.11.028.094.021.2.039.292.06l.031,0c.036.01.07.017.1.024.5.1,1.017.2,1.552.285a64.071,64.071,0,0,0,12.049.8,62.587,62.587,0,0,0,13.019-.973c.2-.036.39-.077.585-.113.363-.074.718-.155,1.067-.235.044-.01.07-.014.108-.024.1-.022.2-.043.3-.07l.036-.007h0c.053-.014.115-.029.175-.043l.321-.081a.324.324,0,0,1,.084-.024c.2-.053.4-.107.591-.16a.833.833,0,0,0,.11-.027l.3-.091.031-.007c.167-.05.332-.1.493-.144.026-.012.06-.019.084-.029.208-.06.4-.134.6-.2l.108-.038c.093-.033.2-.067.3-.1l.026-.007.007,0c.225-.081.443-.168.662-.253a.189.189,0,0,1,.05-.022c.151-.062.313-.125.457-.186.04-.017.077-.033.11-.05.1-.041.2-.088.292-.131l.031-.014c.107-.046.218-.095.321-.144a5.331,5.331,0,0,0,1.33-.919c2.9-2.662,2.064-7.757,1.927-8.5l-.017-.093c.162-.376-1.638,3.514-.68,1.584-.739,1.949.378-.232.378-.232-.06,1.033-.708,2.37-3.385,2.973-4.391.993-11.9,1.542-19.811,1.454-7.907.088-15.415-.461-19.8-1.454-2.69-.6-2.109-.725-3.693-1.443" transform="translate(-1836.524 -700.412)" fill="#ffe400" stroke="#161615" stroke-miterlimit="10" stroke-width="0.1"/></g><g transform="translate(38.831 10.892)"><path d="M1872.87,694.232c-.021-.136-.034-.28-.06-.411h-26.436a10.557,10.557,0,0,1-4.676,8.539,20.682,20.682,0,0,0,6.912,8.8c2.9.1,5.737.1,8.424.091,2.574-.017,5.159-.034,7.764-.124,4.914-3.5,8.227-9.722,8.227-15.015A12.4,12.4,0,0,0,1872.87,694.232Z" transform="translate(-1841.698 -692.718)" fill="#ffe400" stroke="#161615" stroke-miterlimit="10" stroke-width="0.1"/><path d="M1867.355,693.179H1863.4a1.109,1.109,0,0,0-1.016.744,1.293,1.293,0,0,0-.088.481v1.933h0a1.169,1.169,0,0,0,1.1,1.224h3.958a1.17,1.17,0,0,0,1.108-1.224V694.4A1.17,1.17,0,0,0,1867.355,693.179Z" transform="translate(-1826.9 -693.179)" fill="#ffe400" stroke="#161615" stroke-miterlimit="10" stroke-width="0.1"/></g><path d="M1842.476,700.86a2.4,2.4,0,1,1-4.793-.05,2.6,2.6,0,0,1,.138-.76c-.045,0-.077,0-.122,0a2.517,2.517,0,1,0,4.884.816,2.594,2.594,0,0,0-.366-1.366,1,1,0,0,1-.11.041A2.54,2.54,0,0,1,1842.476,700.86Z" transform="translate(-1805.75 -677.747)" fill="#ffe400" stroke="#161615" stroke-miterlimit="10" stroke-width="0.1"/><path d="M1835.152,699.144c.127.127.265.256.4.376a9.534,9.534,0,0,1-2.158-4.149c-.218-.1-.437-.186-.651-.275A9.565,9.565,0,0,0,1835.152,699.144Z" transform="translate(-1809.204 -680.909)" fill="#ffe400" stroke="#161615" stroke-miterlimit="10" stroke-width="0.1"/><path d="M1836.686,699.679a.349.349,0,0,0,.065.031c.067.015.134.039.194.057l.057-.052c-.095-.015-.184-.046-.275-.069A.169.169,0,0,1,1836.686,699.679Z" transform="translate(-1806.38 -677.64)" fill="#ffe400" stroke="#161615" stroke-miterlimit="10" stroke-width="0.1"/><path d="M1841.047,695.305c-.071-.218-.112-.442-.162-.663l-21.415,21.416c-1.084,1.081-.144,3.764,2.088,6s4.924,3.167,6,2.092l19.756-19.761.742-.741c-.067-.021-.134-.045-.2-.064a.535.535,0,0,1-.057-.028l-20.418,20.421c-.964.962-3.552.007-5.652-2.091a8.68,8.68,0,0,1-2.38-3.87,9.619,9.619,0,0,0,2.074,2.947c2.1,2.107,4.688,3.061,5.659,2.091,0,0,16.833-16.836,20.622-20.619a10.577,10.577,0,0,1-6.13-5.666" transform="translate(-1819.02 -681.236)" fill="#ffe400" stroke="#161615" stroke-miterlimit="10" stroke-width="0.1"/><path d="M1836.862,699.684c-.121-.027-.246-.058-.363-.091.106.043.218.088.321.124A.171.171,0,0,0,1836.862,699.684Z" transform="translate(-1806.514 -677.678)" fill="#ffe400" stroke="#161615" stroke-miterlimit="10" stroke-width="0.1"/><path d="M1832.994,696.4c-.107-.278-.2-.564-.285-.849-.063-.173-.144-.345-.2-.528l-.806.8c.045.132.081.26.127.383.112-.1.182-.182.225-.225C1832.374,696.1,1832.685,696.247,1832.994,696.4Z" transform="translate(-1809.949 -680.963)" fill="#ffe400" stroke="#161615" stroke-miterlimit="10" stroke-width="0.1"/><path d="M1836.255,700.48a1.5,1.5,0,0,0,.2.065l.057.022.806-.806a.255.255,0,0,1-.063-.022c-.06-.017-.127-.041-.194-.057C1836.91,699.831,1836.632,700.106,1836.255,700.48Z" transform="translate(-1806.689 -677.614)" fill="#ffe400" stroke="#161615" stroke-miterlimit="10" stroke-width="0.1"/><path d="M1837.364,699.789c-.1-.036-.215-.081-.321-.124-.179-.05-.342-.115-.514-.172l-.785.785c.271.115.547.222.826.316a.2.2,0,0,0,.053.022c.376-.375.655-.65.806-.8A.35.35,0,0,1,1837.364,699.789Z" transform="translate(-1807.056 -677.75)" fill="#ffe400" stroke="#161615" stroke-miterlimit="10" stroke-width="0.1"/><path d="M1832,695.579c-.043.043-.113.124-.225.225a12.869,12.869,0,0,0,.545,1.289c.309-.306.517-.51.6-.6.091.041.186.084.277.129-.087-.208-.179-.414-.256-.622C1832.631,695.847,1832.32,695.7,1832,695.579Z" transform="translate(-1809.896 -680.563)" fill="#ffe400" stroke="#161615" stroke-miterlimit="10" stroke-width="0.1"/><path d="M1832.281,701.525c.074.208.165.412.254.62a10.579,10.579,0,0,0,6.13,5.666.292.292,0,0,1,.053.019c.175.058.342.125.517.172.117.034.241.06.363.094.093.022.184.047.275.067a12.265,12.265,0,0,0,1.332.225c.041,0,.081,0,.119,0,.155.012.3.015.462.026.119,0,.242.021.359.024a10.6,10.6,0,0,0,2.789-.363c.067-.017.137-.028.2-.047.161-.048.32-.1.471-.158a.714.714,0,0,0,.113-.038,10.514,10.514,0,0,0,2.447-1.215,10.785,10.785,0,0,0,4.222-11.992l-3.514,3.454-1.557,1.533a1.278,1.278,0,0,1-.479.278,3.825,3.825,0,0,1-2.978-.775,9.373,9.373,0,0,1-1.158-.89c-.156-.141-.318-.278-.469-.435-.047-.048-.091-.1-.137-.158-1.775-1.88-2.5-4.068-1.6-4.954l5.075-4.98a10.621,10.621,0,0,0-13.734,12.312c.05.222.091.445.162.663C1832.084,700.963,1832.171,701.245,1832.281,701.525ZM1841.7,701a1.693,1.693,0,1,1-2.389,2.387l-2.631-2.633a1.692,1.692,0,1,1,2.385-2.389Zm-6.512-10.251a9.548,9.548,0,0,1,7.955-2.719c-.227.218-.462.461-.711.711a9.592,9.592,0,0,0-6.836,15.963c-.138-.124-.272-.247-.407-.38a9.607,9.607,0,0,1,0-13.576Z" transform="translate(-1810.028 -686.609)" fill="#ffe400" stroke="#161615" stroke-miterlimit="10" stroke-width="0.1"/><path d="M1834.96,694.127a1.745,1.745,0,0,1,2.461.1l2.06,2.059.37.364.2.206a1.747,1.747,0,0,1,.1,2.463,1.751,1.751,0,0,0-.086-2.473l-2.633-2.633A1.752,1.752,0,0,0,1834.96,694.127Z" transform="translate(-1807.618 -681.943)" fill="#ffe400" stroke="#161615" stroke-miterlimit="10" stroke-width="0.1"/><path d="M1837.994,699.119c-.036-.029-.074-.057-.11-.088l-2.628-2.638a1.741,1.741,0,0,1-.1-2.463,1.746,1.746,0,0,0,.088,2.476l2.624,2.638a1.759,1.759,0,0,0,2.48.081A1.729,1.729,0,0,1,1837.994,699.119Z" transform="translate(-1807.816 -681.747)" fill="#ffe400" stroke="#161615" stroke-miterlimit="10" stroke-width="0.1"/><path d="M1843.726,706.9c3.027.381,6.058.584,9.022.684a20.681,20.681,0,0,1-6.912-8.8A10.613,10.613,0,0,1,1843.39,700a2.594,2.594,0,0,1,.366,1.366,2.506,2.506,0,1,1-4.884-.816,11.158,11.158,0,0,1-1.332-.225l-.057.052a.256.256,0,0,0,.063.022l-.806.806-.057-.022-.746.744a8.99,8.99,0,0,0,1.162,2.887c.038-.208.06-.333.06-.333A36.046,36.046,0,0,0,1843.726,706.9Z" transform="translate(-1806.929 -678.255)" fill="#ffe400" stroke="#161615" stroke-miterlimit="10" stroke-width="0.1"/><path d="M1868.537,696.928a1.169,1.169,0,0,1-1.1-1.224,7.93,7.93,0,0,0-2.353-1.31,6.219,6.219,0,0,0-1.87-.335,12.4,12.4,0,0,1,.155,1.878c0,5.293-3.313,11.514-8.227,15.015,2.866-.091,5.776-.277,8.742-.651a36.055,36.055,0,0,0,6.475-2.418l.017.095c2.413-4.233.715-8.276-1.437-10.8-.074-.084-.141-.168-.218-.246Zm-1.435,11.011a2.586,2.586,0,1,1,2.53-2.561A2.561,2.561,0,0,1,1867.1,707.939Z" transform="translate(-1793.209 -681.654)" fill="#ffe400" stroke="#161615" stroke-miterlimit="10" stroke-width="0.1"/></g></svg>