<svg xmlns="http://www.w3.org/2000/svg" width="70.187" height="37.995" viewBox="0 0 70.187 37.995"><g transform="translate(-6.077 -10.558)"><g transform="translate(6.138 10.608)"><path d="M1833.422,698.888a8.367,8.367,0,0,1,2.206-7.856,8.283,8.283,0,0,1,5.624-2.421c.214-.217.419-.426.618-.622a8.332,8.332,0,0,0-9.014,10.66C1833.042,698.727,1833.232,698.8,1833.422,698.888Z" transform="translate(-1812.338 -686.304)" fill="#464545" stroke="#464545" stroke-miterlimit="10" stroke-width="0.1"/><path d="M1863.232,695.943c-.024-.067-.049-.141-.076-.214h-.114C1863.109,695.8,1863.168,695.87,1863.232,695.943Z" transform="translate(-1797.215 -682.439)" fill="#464545" stroke="#464545" stroke-miterlimit="10" stroke-width="0.1"/><path d="M1837.962,695.576c.026-.023.047-.043.077-.07l-.322-.317c-.138.387-.263.748-.38,1.071C1837.542,696.017,1837.751,695.787,1837.962,695.576Z" transform="translate(-1809.947 -682.706)" fill="#464545" stroke="#464545" stroke-miterlimit="10" stroke-width="0.1"/><path d="M1838.7,697.407c1.142-3.245,2.539-7.219,2.813-7.989.468-1.341,1.954-2.343,4.357-2.343h20.968c2.412,0,3.843.958,4.465,2.9.377,1.169,1.838,5.208,2.947,8.236v-.825a1.125,1.125,0,0,1,.076-.419c-1.047-2.871-2.2-6.077-2.536-7.112-.645-2.014-2.131-3.013-4.634-3.013h-21.779c-2.5,0-4.042,1.036-4.526,2.43-.263.751-1.545,4.4-2.684,7.623.044.043.079.09.123.136C1838.42,697.165,1838.558,697.284,1838.7,697.407Z" transform="translate(-1809.538 -686.841)" fill="#464545" stroke="#464545" stroke-miterlimit="10" stroke-width="0.1"/><path d="M1866.657,687H1845.69c-2.4,0-3.889,1-4.357,2.343-.274.77-1.67,4.745-2.813,7.989a7.478,7.478,0,0,0,1.008.775,5.838,5.838,0,0,1,1.02-.368c1.03-2.784,2.418-6.52,2.669-7.2.414-1.115,1.718-1.95,3.837-1.95H1865.5c2.12,0,3.383.8,3.928,2.421.33.969,1.612,4.322,2.591,6.846a6.9,6.9,0,0,1,2.047,1.14h0v-.857c-1.109-3.028-2.571-7.067-2.947-8.236C1870.5,687.955,1869.069,687,1866.657,687Z" transform="translate(-1809.361 -686.764)" fill="#464545" stroke="#464545" stroke-miterlimit="10" stroke-width="0.1"/><path d="M1859.372,709.836l.3.383h.339v-.727h-.365Z" transform="translate(-1799.032 -675.622)" fill="#464545" stroke="#464545" stroke-miterlimit="10" stroke-width="0.1"/><path d="M1860.453,707.05h-.4v.2h.549Z" transform="translate(-1798.697 -676.831)" fill="#464545" stroke="#464545" stroke-miterlimit="10" stroke-width="0.1"/><path d="M1859.466,707.25h.493v-.2h-.339Z" transform="translate(-1798.986 -676.833)" fill="#464545" stroke="#464545" stroke-miterlimit="10" stroke-width="0.1"/><path d="M1861.923,711.933c.812-.085,1.437-.6,1.437-1.22v-1.222h-1.437Z" transform="translate(-1797.769 -675.622)" fill="#464545" stroke="#464545" stroke-miterlimit="10" stroke-width="0.1"/><path d="M1861.923,706.354v1.7h1.437v-2.623a4.647,4.647,0,0,1-1.157.8C1862.113,706.272,1862.016,706.314,1861.923,706.354Z" transform="translate(-1797.769 -677.634)" fill="#464545" stroke="#464545" stroke-miterlimit="10" stroke-width="0.1"/><path d="M1861.8,706.433v-.272c-.125.052-.266.108-.4.161l.082.111Z" transform="translate(-1798.026 -677.272)" fill="#464545" stroke="#464545" stroke-miterlimit="10" stroke-width="0.1"/><path d="M1861.738,706.919l-.325.417h-.426v.293h.5l.181-.241h.345v-.975h-.345l-.1-.132c-.19.073-.38.15-.576.22h.42Z" transform="translate(-1798.233 -677.212)" fill="#464545" stroke="#464545" stroke-miterlimit="10" stroke-width="0.1"/><path d="M1860.618,707.185h.318v-.668c-.175.058-.341.123-.522.175l-.085.117Z" transform="translate(-1798.558 -677.095)" fill="#464545" stroke="#464545" stroke-miterlimit="10" stroke-width="0.1"/><path d="M1861.68,710.467l-.3-.38h-.4v.759h.4Z" transform="translate(-1798.233 -675.327)" fill="#464545" stroke="#464545" stroke-miterlimit="10" stroke-width="0.1"/><path d="M1860.329,710.467l.289.38h.318v-.759h-.318Z" transform="translate(-1798.558 -675.327)" fill="#464545" stroke="#464545" stroke-miterlimit="10" stroke-width="0.1"/><path d="M1861.68,706.834l-.3-.38h-.4v.759h.4Z" transform="translate(-1798.233 -677.126)" fill="#464545" stroke="#464545" stroke-miterlimit="10" stroke-width="0.1"/><path d="M1861.265,709.836l.292.383h.315v-.727h-.342Z" transform="translate(-1798.095 -675.622)" fill="#464545" stroke="#464545" stroke-miterlimit="10" stroke-width="0.1"/><path d="M1860.742,709.836l-.269-.345h-.423v.727h.4Z" transform="translate(-1798.697 -675.622)" fill="#464545" stroke="#464545" stroke-miterlimit="10" stroke-width="0.1"/><path d="M1861.359,707.25h.467v-.2h-.315Z" transform="translate(-1798.049 -676.833)" fill="#464545" stroke="#464545" stroke-miterlimit="10" stroke-width="0.1"/><path d="M1859.78,710.467l-.292-.38h-.374v.759h.374Z" transform="translate(-1799.16 -675.327)" fill="#464545" stroke="#464545" stroke-miterlimit="10" stroke-width="0.1"/><path d="M1860.479,707.206l.181.241h.414v-.293h-.344l-.321-.411.07-.091c-.141.036-.284.082-.429.125v.429Z" transform="translate(-1798.697 -677.029)" fill="#464545" stroke="#464545" stroke-miterlimit="10" stroke-width="0.1"/><path d="M1861.557,710.681l-.292.38.23.295h.377v-.674Z" transform="translate(-1798.095 -675.033)" fill="#464545" stroke="#464545" stroke-miterlimit="10" stroke-width="0.1"/><path d="M1857.9,709.491v1.222c0,.625.628,1.135,1.437,1.22v-2.442Z" transform="translate(-1799.763 -675.622)" fill="#464545" stroke="#464545" stroke-miterlimit="10" stroke-width="0.1"/><path d="M1860.731,711.179l-.321-.418.321-.415h.345v-.856h-.54l.263.345-.318.421h-.429v.973h.429l.318.421-.228.295h.505v-.765Z" transform="translate(-1798.697 -675.622)" fill="#464545" stroke="#464545" stroke-miterlimit="10" stroke-width="0.1"/><path d="M1859.166,707.046c-.3.07-.613.141-.929.2h.929Z" transform="translate(-1799.595 -676.833)" fill="#464545" stroke="#464545" stroke-miterlimit="10" stroke-width="0.1"/><path d="M1859.667,710.681l-.3.38.234.295h.4v-.674Z" transform="translate(-1799.032 -675.033)" fill="#464545" stroke="#464545" stroke-miterlimit="10" stroke-width="0.1"/><path d="M1859.769,711.229h.365v-.973h-.365l-.324-.421.266-.345h-.6v.853h.4l.327.418-.327.415h-.4v.768h.561l-.231-.295Z" transform="translate(-1799.16 -675.622)" fill="#464545" stroke="#464545" stroke-miterlimit="10" stroke-width="0.1"/><path d="M1859.585,707.369l.184-.241h.365v-.32c-.166.046-.343.093-.515.139l-.1.129h-.4v.293Z" transform="translate(-1799.16 -676.951)" fill="#464545" stroke="#464545" stroke-miterlimit="10" stroke-width="0.1"/><path d="M1860.453,710.681h-.4v.674h.464l.228-.295Z" transform="translate(-1798.697 -675.033)" fill="#464545" stroke="#464545" stroke-miterlimit="10" stroke-width="0.1"/><path d="M1861.665,711.229h.345v-.973h-.345l-.315-.421.263-.345h-.625v.853h.426l.324.418-.324.415h-.426v.768h.584l-.222-.295Z" transform="translate(-1798.233 -675.622)" fill="#464545" stroke="#464545" stroke-miterlimit="10" stroke-width="0.1"/><path d="M1859.5,706.915l-.28.07h.221Z" transform="translate(-1799.11 -676.898)" fill="#464545" stroke="#464545" stroke-miterlimit="10" stroke-width="0.1"/><path d="M1861.265,707.361l.292.38h.315v-.558h-.467Z" transform="translate(-1798.095 -676.766)" fill="#464545" stroke="#464545" stroke-miterlimit="10" stroke-width="0.1"/><path d="M1861.349,707.361l.134-.178h-.5v.683h.426l.324.418-.324.418h-.426v.976h.426l.324.418-.324.415h-.426v.126h.625l.052-.07h.345v-.981h-.345l-.315-.412.315-.421h.345v-.972h-.345Z" transform="translate(-1798.233 -676.766)" fill="#464545" stroke="#464545" stroke-miterlimit="10" stroke-width="0.1"/><rect width="1.437" height="3.452" transform="translate(64.154 30.417)" fill="#464545" stroke="#464545" stroke-miterlimit="10" stroke-width="0.1"/><path d="M1861.68,708.045l-.3-.38h-.4v.759h.4Z" transform="translate(-1798.233 -676.527)" fill="#464545" stroke="#464545" stroke-miterlimit="10" stroke-width="0.1"/><path d="M1861.68,709.255l-.3-.377h-.4v.756h.4Z" transform="translate(-1798.233 -675.926)" fill="#464545" stroke="#464545" stroke-miterlimit="10" stroke-width="0.1"/><path d="M1861.265,708.638l.292.377h.315v-.756h-.315Z" transform="translate(-1798.095 -676.232)" fill="#464545" stroke="#464545" stroke-miterlimit="10" stroke-width="0.1"/><path d="M1861.443,709.5h.342v-.035h-.316Z" transform="translate(-1798.007 -675.634)" fill="#464545" stroke="#464545" stroke-miterlimit="10" stroke-width="0.1"/><path d="M1859.372,707.361l.3.38h.339v-.558h-.494Z" transform="translate(-1799.032 -676.766)" fill="#464545" stroke="#464545" stroke-miterlimit="10" stroke-width="0.1"/><path d="M1859.334,707.183h-.929c-.169.031-.338.067-.509.1v3.353h1.437Z" transform="translate(-1799.763 -676.765)" fill="#464545" stroke="#464545" stroke-miterlimit="10" stroke-width="0.1"/><path d="M1860.742,708.641l-.289-.382h-.4v.756h.4Z" transform="translate(-1798.697 -676.232)" fill="#464545" stroke="#464545" stroke-miterlimit="10" stroke-width="0.1"/><path d="M1859.444,707.361l.14-.178h-.47v.683h.4l.327.418-.327.418h-.4v.976h.4l.327.418-.327.415h-.4v.126h.6l.058-.07h.365v-.981h-.365l-.324-.412.324-.421h.365v-.972h-.365Z" transform="translate(-1799.16 -676.766)" fill="#464545" stroke="#464545" stroke-miterlimit="10" stroke-width="0.1"/><path d="M1860.453,709.468h-.4v.035h.423Z" transform="translate(-1798.697 -675.634)" fill="#464545" stroke="#464545" stroke-miterlimit="10" stroke-width="0.1"/><path d="M1860.329,708.044l.289.383h.318v-.759h-.318Z" transform="translate(-1798.558 -676.526)" fill="#464545" stroke="#464545" stroke-miterlimit="10" stroke-width="0.1"/><path d="M1860.329,709.255l.289.38h.318v-.756h-.318Z" transform="translate(-1798.558 -675.926)" fill="#464545" stroke="#464545" stroke-miterlimit="10" stroke-width="0.1"/><path d="M1860.8,707.361l-.318.418h-.429v.972h.429l.318.423-.318.415h-.429v.975h.429l.056.07h.54v-.126h-.345l-.321-.415.321-.415h.345V708.7h-.345l-.321-.418.321-.415h.345v-.686h-.415Z" transform="translate(-1798.697 -676.766)" fill="#464545" stroke="#464545" stroke-miterlimit="10" stroke-width="0.1"/><path d="M1859.552,709.5h.365v-.035h-.339Z" transform="translate(-1798.943 -675.634)" fill="#464545" stroke="#464545" stroke-miterlimit="10" stroke-width="0.1"/><path d="M1860.742,707.361l-.143-.178h-.549v.558h.4Z" transform="translate(-1798.697 -676.766)" fill="#464545" stroke="#464545" stroke-miterlimit="10" stroke-width="0.1"/><path d="M1859.372,708.638l.3.377h.339v-.756h-.339Z" transform="translate(-1799.032 -676.232)" fill="#464545" stroke="#464545" stroke-miterlimit="10" stroke-width="0.1"/><path d="M1859.78,709.255l-.292-.377h-.374v.756h.374Z" transform="translate(-1799.16 -675.926)" fill="#464545" stroke="#464545" stroke-miterlimit="10" stroke-width="0.1"/><path d="M1859.78,708.045l-.292-.38h-.374v.759h.374Z" transform="translate(-1799.16 -676.527)" fill="#464545" stroke="#464545" stroke-miterlimit="10" stroke-width="0.1"/><path d="M1861.364,707.262l-.134.178.315.418h.345v-.038h-.316l-.292-.38.14-.178.152-.2h.316v-.035h-.345Z" transform="translate(-1798.113 -676.845)" fill="#464545" stroke="#464545" stroke-miterlimit="10" stroke-width="0.1"/><path d="M1861.385,706.467l.3.38-.3.38h-.4v.038h.426l.324-.418-.324-.418h-.421l-.006,0v.035Z" transform="translate(-1798.233 -677.139)" fill="#464545" stroke="#464545" stroke-miterlimit="10" stroke-width="0.1"/><path d="M1860.29,710.478l.321.418h.344v-.038h-.318l-.289-.38.289-.38h.318v-.035h-.344Z" transform="translate(-1798.578 -675.339)" fill="#464545" stroke="#464545" stroke-miterlimit="10" stroke-width="0.1"/><path d="M1861.385,710.1l.3.38-.3.38h-.4v.035h.426l.324-.415-.324-.418h-.426v.038Z" transform="translate(-1798.233 -675.34)" fill="#464545" stroke="#464545" stroke-miterlimit="10" stroke-width="0.1"/><path d="M1861.817,706.42v-.04h-.316l-.082-.111a.162.162,0,0,0-.043.02l.1.132Z" transform="translate(-1798.04 -677.218)" fill="#464545" stroke="#464545" stroke-miterlimit="10" stroke-width="0.1"/><path d="M1861.574,710.694h.316v-.041h-.345l-.315.42.222.295h.061l-.23-.295Z" transform="translate(-1798.113 -675.046)" fill="#464545" stroke="#464545" stroke-miterlimit="10" stroke-width="0.1"/><path d="M1860.611,707.162h.344v-.034h-.318l-.289-.377.085-.117c-.021.009-.051.015-.073.025l-.07.091Z" transform="translate(-1798.578 -677.037)" fill="#464545" stroke="#464545" stroke-miterlimit="10" stroke-width="0.1"/><path d="M1859.488,710.1l.292.38-.292.38h-.374v.035h.4l.327-.415-.327-.418h-.4v.038Z" transform="translate(-1799.16 -675.34)" fill="#464545" stroke="#464545" stroke-miterlimit="10" stroke-width="0.1"/><path d="M1860.479,710.653h-.429v.041h.4l.289.379-.228.295h.056l.228-.295Z" transform="translate(-1798.697 -675.046)" fill="#464545" stroke="#464545" stroke-miterlimit="10" stroke-width="0.1"/><path d="M1859.619,706.9a.281.281,0,0,0-.073.021l-.058.07h-.221l-.153.037h.4Z" transform="translate(-1799.16 -676.905)" fill="#464545" stroke="#464545" stroke-miterlimit="10" stroke-width="0.1"/><path d="M1859.475,707.262l-.14.178.324.418h.365v-.038h-.339l-.3-.38.14-.178.155-.2h.339v-.035h-.365Z" transform="translate(-1799.051 -676.845)" fill="#464545" stroke="#464545" stroke-miterlimit="10" stroke-width="0.1"/><path d="M1859.686,710.694h.339v-.041h-.365l-.324.42.231.295h.058l-.234-.295Z" transform="translate(-1799.051 -675.046)" fill="#464545" stroke="#464545" stroke-miterlimit="10" stroke-width="0.1"/><path d="M1859.842,708.057l-.327-.418h-.4v.038h.374l.292.38-.292.38h-.374v.038h.4Z" transform="translate(-1799.16 -676.539)" fill="#464545" stroke="#464545" stroke-miterlimit="10" stroke-width="0.1"/><path d="M1860.8,708.655l-.318-.423h-.429v.041h.4l.289.382-.289.374h-.4v.041h.429Z" transform="translate(-1798.697 -676.246)" fill="#464545" stroke="#464545" stroke-miterlimit="10" stroke-width="0.1"/><path d="M1861.493,709.514l-.263.345.315.42h.345v-.038h-.316l-.292-.383.266-.345.026-.035h.316v-.035h-.345Z" transform="translate(-1798.113 -675.645)" fill="#464545" stroke="#464545" stroke-miterlimit="10" stroke-width="0.1"/><path d="M1861.738,709.268l-.324-.418h-.426v.041h.4l.3.377-.3.38h-.4v.035h.426Z" transform="translate(-1798.233 -675.939)" fill="#464545" stroke="#464545" stroke-miterlimit="10" stroke-width="0.1"/><path d="M1860.05,709.444v.035h.4l.021.035.269.345-.289.383h-.4v.038h.429l.318-.42-.263-.345-.056-.07Z" transform="translate(-1798.697 -675.645)" fill="#464545" stroke="#464545" stroke-miterlimit="10" stroke-width="0.1"/><path d="M1860.29,709.267l.321.415h.344v-.035h-.318l-.289-.38.289-.377h.318v-.038h-.344Z" transform="translate(-1798.578 -675.938)" fill="#464545" stroke="#464545" stroke-miterlimit="10" stroke-width="0.1"/><path d="M1860.29,708.056l.321.418h.344v-.035h-.318l-.289-.383.289-.377h.318v-.038h-.344Z" transform="translate(-1798.578 -676.538)" fill="#464545" stroke="#464545" stroke-miterlimit="10" stroke-width="0.1"/><path d="M1861.738,708.057l-.324-.418h-.426v.038h.4l.3.38-.3.38h-.4v.038h.426Z" transform="translate(-1798.233 -676.539)" fill="#464545" stroke="#464545" stroke-miterlimit="10" stroke-width="0.1"/><path d="M1859.842,709.268l-.327-.418h-.4v.041h.374l.292.377-.292.38h-.374v.035h.4Z" transform="translate(-1799.16 -675.939)" fill="#464545" stroke="#464545" stroke-miterlimit="10" stroke-width="0.1"/><path d="M1861.23,708.652l.315.412h.345v-.035h-.316l-.292-.377.292-.38h.316v-.041h-.345Z" transform="translate(-1798.113 -676.246)" fill="#464545" stroke="#464545" stroke-miterlimit="10" stroke-width="0.1"/><path d="M1860.8,707.44l-.137-.178-.181-.239h-.429v.041h.4l.146.2.143.178-.289.38h-.4v.038h.429Z" transform="translate(-1798.697 -676.845)" fill="#464545" stroke="#464545" stroke-miterlimit="10" stroke-width="0.1"/><path d="M1859.335,708.652l.324.412h.365v-.035h-.339l-.3-.377.3-.38h.339v-.041h-.365Z" transform="translate(-1799.051 -676.246)" fill="#464545" stroke="#464545" stroke-miterlimit="10" stroke-width="0.1"/><path d="M1859.6,709.514l-.266.345.324.42h.365v-.038h-.339l-.3-.383.269-.345.026-.035h.339v-.035h-.365Z" transform="translate(-1799.051 -675.645)" fill="#464545" stroke="#464545" stroke-miterlimit="10" stroke-width="0.1"/><path d="M1861.932,707.745v-1.7l-.027.012v7.59h.027v-5.905Z" transform="translate(-1797.778 -677.327)" fill="#464545" stroke="#464545" stroke-miterlimit="10" stroke-width="0.1"/><path d="M1861.767,706.132c-.028.015-.061.028-.1.043v7.433h.1Z" transform="translate(-1797.894 -677.286)" fill="#464545" stroke="#464545" stroke-miterlimit="10" stroke-width="0.1"/><path d="M1861.989,706.056c-.081.037-.166.078-.254.114v7.477h.254Z" transform="translate(-1797.862 -677.324)" fill="#464545" stroke="#464545" stroke-miterlimit="10" stroke-width="0.1"/><path d="M1860.995,712.658v-6.227l-.023.006v7.023h.023v-.8Z" transform="translate(-1798.24 -677.138)" fill="#464545" stroke="#464545" stroke-miterlimit="10" stroke-width="0.1"/><path d="M1860.829,706.495l-.094.033v6.9h.094Z" transform="translate(-1798.357 -677.106)" fill="#464545" stroke="#464545" stroke-miterlimit="10" stroke-width="0.1"/><path d="M1861.058,706.435c-.085.031-.179.061-.26.09v6.934h.26Z" transform="translate(-1798.326 -677.136)" fill="#464545" stroke="#464545" stroke-miterlimit="10" stroke-width="0.1"/><path d="M1860.059,712.594v-5.859l-.027.006v6.569h.027v-.716Z" transform="translate(-1798.706 -676.987)" fill="#464545" stroke="#464545" stroke-miterlimit="10" stroke-width="0.1"/><path d="M1859.892,706.792a.736.736,0,0,1-.1.024v6.466h.1Z" transform="translate(-1798.823 -676.959)" fill="#464545" stroke="#464545" stroke-miterlimit="10" stroke-width="0.1"/><path d="M1860.117,706.739l-.257.079v6.49h.257Z" transform="translate(-1798.791 -676.985)" fill="#464545" stroke="#464545" stroke-miterlimit="10" stroke-width="0.1"/><path d="M1858.953,707.032c-.033.009-.056.012-.094.021v6.11h.094Z" transform="translate(-1799.287 -676.84)" fill="#464545" stroke="#464545" stroke-miterlimit="10" stroke-width="0.1"/><path d="M1859.125,712.382v-5.4l-.031.006v6.192h.031v-.8Z" transform="translate(-1799.171 -676.862)" fill="#464545" stroke="#464545" stroke-miterlimit="10" stroke-width="0.1"/><path d="M1859.178,706.991c-.085.024-.171.042-.257.061v6.131h.257Z" transform="translate(-1799.256 -676.86)" fill="#464545" stroke="#464545" stroke-miterlimit="10" stroke-width="0.1"/><path d="M1838.321,709.491v1.222c0,.625.628,1.135,1.44,1.22v-2.442Z" transform="translate(-1809.459 -675.622)" fill="#464545" stroke="#464545" stroke-miterlimit="10" stroke-width="0.1"/><path d="M1842.25,707.241v-.1c-.112-.025-.22-.052-.334-.076l-.135.176Z" transform="translate(-1807.745 -676.824)" fill="#464545" stroke="#464545" stroke-miterlimit="10" stroke-width="0.1"/><path d="M1841.982,710.681l-.292.38.231.295h.374v-.674Z" transform="translate(-1807.791 -675.033)" fill="#464545" stroke="#464545" stroke-miterlimit="10" stroke-width="0.1"/><path d="M1840.874,710.681h-.4v.674h.461l.231-.295Z" transform="translate(-1808.393 -675.033)" fill="#464545" stroke="#464545" stroke-miterlimit="10" stroke-width="0.1"/><path d="M1841.151,711.179l-.315-.418.315-.415h.345v-.856h-.54l.266.345-.319.421h-.429v.973h.429l.319.421-.228.295h.5v-.765Z" transform="translate(-1808.393 -675.622)" fill="#464545" stroke="#464545" stroke-miterlimit="10" stroke-width="0.1"/><path d="M1842.089,711.229h.345v-.973h-.345l-.321-.421.269-.345h-.625v.853h.429l.318.418-.318.415h-.429v.768H1842l-.231-.295Z" transform="translate(-1807.929 -675.622)" fill="#464545" stroke="#464545" stroke-miterlimit="10" stroke-width="0.1"/><path d="M1840.092,710.681l-.292.38.228.295h.4v-.674Z" transform="translate(-1808.727 -675.033)" fill="#464545" stroke="#464545" stroke-miterlimit="10" stroke-width="0.1"/><path d="M1840.191,711.229h.371v-.973h-.371l-.318-.421.266-.345h-.6v.853h.409l.318.418-.318.415h-.409v.768h.569l-.231-.295Z" transform="translate(-1808.859 -675.622)" fill="#464545" stroke="#464545" stroke-miterlimit="10" stroke-width="0.1"/><path d="M1842.347,711.933c.812-.082,1.44-.6,1.44-1.22v-1.222h-1.44Z" transform="translate(-1807.465 -675.622)" fill="#464545" stroke="#464545" stroke-miterlimit="10" stroke-width="0.1"/><path d="M1842.437,707.19c-.029-.006-.058-.012-.09-.021v.021Z" transform="translate(-1807.465 -676.772)" fill="#464545" stroke="#464545" stroke-miterlimit="10" stroke-width="0.1"/><path d="M1840.9,707.182l.181.241h.411v-.293h-.344l-.229-.295c-.151-.043-.3-.093-.449-.138v.484Z" transform="translate(-1808.393 -677.005)" fill="#464545" stroke="#464545" stroke-miterlimit="10" stroke-width="0.1"/><path d="M1840.2,710.467l-.289-.38h-.38v.759h.38Z" transform="translate(-1808.859 -675.327)" fill="#464545" stroke="#464545" stroke-miterlimit="10" stroke-width="0.1"/><path d="M1841.435,706.964c0-.006-.015-.006-.024-.006v.006Z" transform="translate(-1807.929 -676.877)" fill="#464545" stroke="#464545" stroke-miterlimit="10" stroke-width="0.1"/><path d="M1841.691,709.836l.292.383h.313v-.727h-.339Z" transform="translate(-1807.791 -675.622)" fill="#464545" stroke="#464545" stroke-miterlimit="10" stroke-width="0.1"/><path d="M1841.323,707.043v-.108c-.163-.045-.335-.088-.5-.132l.187.239Z" transform="translate(-1808.221 -676.953)" fill="#464545" stroke="#464545" stroke-miterlimit="10" stroke-width="0.1"/><path d="M1839.8,709.836l.292.383h.339v-.727h-.368Z" transform="translate(-1808.727 -675.622)" fill="#464545" stroke="#464545" stroke-miterlimit="10" stroke-width="0.1"/><path d="M1840.751,710.467l.292.38h.316v-.759h-.316Z" transform="translate(-1808.256 -675.327)" fill="#464545" stroke="#464545" stroke-miterlimit="10" stroke-width="0.1"/><path d="M1840.874,707.05h-.4v.2h.552Z" transform="translate(-1808.393 -676.831)" fill="#464545" stroke="#464545" stroke-miterlimit="10" stroke-width="0.1"/><path d="M1842.1,710.467l-.292-.38h-.4v.759h.4Z" transform="translate(-1807.929 -675.327)" fill="#464545" stroke="#464545" stroke-miterlimit="10" stroke-width="0.1"/><path d="M1841.166,709.836l-.263-.345h-.429v.727h.4Z" transform="translate(-1808.393 -675.622)" fill="#464545" stroke="#464545" stroke-miterlimit="10" stroke-width="0.1"/><path d="M1841.411,707.28h.5l.138-.187c-.15-.036-.31-.07-.459-.106h-.178Z" transform="translate(-1807.929 -676.862)" fill="#464545" stroke="#464545" stroke-miterlimit="10" stroke-width="0.1"/><path d="M1839.534,707.214h.38l.289-.38-.254-.337c-.044-.013-.084-.025-.127-.043h-.287Z" transform="translate(-1808.859 -677.126)" fill="#464545" stroke="#464545" stroke-miterlimit="10" stroke-width="0.1"/><path d="M1839.709,706.449c-.058-.021-.114-.045-.175-.061v.061Z" transform="translate(-1808.859 -677.159)" fill="#464545" stroke="#464545" stroke-miterlimit="10" stroke-width="0.1"/><path d="M1839.944,707.227h-.41v.293h.479l.179-.241h.371v-.6c-.184-.064-.36-.123-.535-.181l.233.307Z" transform="translate(-1808.859 -677.102)" fill="#464545" stroke="#464545" stroke-miterlimit="10" stroke-width="0.1"/><path d="M1839.761,706.508c-.4-.154-.773-.312-1.122-.482-.116-.055-.209-.126-.318-.187v2.01h1.44Z" transform="translate(-1809.459 -677.431)" fill="#464545" stroke="#464545" stroke-miterlimit="10" stroke-width="0.1"/><path d="M1839.889,707.25h.5v-.2h-.339Z" transform="translate(-1808.682 -676.833)" fill="#464545" stroke="#464545" stroke-miterlimit="10" stroke-width="0.1"/><path d="M1842.347,707.183v3.451h1.44v-3.2c-.465-.076-.912-.161-1.35-.248Z" transform="translate(-1807.465 -676.765)" fill="#464545" stroke="#464545" stroke-miterlimit="10" stroke-width="0.1"/><path d="M1841.221,707.361l-.319.418h-.429v.972h.429l.319.423-.319.415h-.429v.975h.429l.053.07h.54v-.126h-.345l-.315-.415.315-.415h.345V708.7h-.345l-.315-.418.315-.415h.345v-.686h-.412Z" transform="translate(-1808.393 -676.766)" fill="#464545" stroke="#464545" stroke-miterlimit="10" stroke-width="0.1"/><path d="M1840.751,708.044l.292.383h.316v-.759h-.316Z" transform="translate(-1808.256 -676.526)" fill="#464545" stroke="#464545" stroke-miterlimit="10" stroke-width="0.1"/><path d="M1840.2,708.045l-.289-.38h-.38v.759h.38Z" transform="translate(-1808.859 -676.527)" fill="#464545" stroke="#464545" stroke-miterlimit="10" stroke-width="0.1"/><path d="M1840.751,709.255l.292.38h.316v-.756h-.316Z" transform="translate(-1808.256 -675.926)" fill="#464545" stroke="#464545" stroke-miterlimit="10" stroke-width="0.1"/><path d="M1839.8,708.638l.292.377h.339v-.756h-.339Z" transform="translate(-1808.727 -676.232)" fill="#464545" stroke="#464545" stroke-miterlimit="10" stroke-width="0.1"/><path d="M1840.874,709.468h-.4v.035h.429Z" transform="translate(-1808.393 -675.634)" fill="#464545" stroke="#464545" stroke-miterlimit="10" stroke-width="0.1"/><path d="M1840.2,709.255l-.289-.377h-.38v.756h.38Z" transform="translate(-1808.859 -675.926)" fill="#464545" stroke="#464545" stroke-miterlimit="10" stroke-width="0.1"/><path d="M1839.976,709.5h.368v-.035H1840Z" transform="translate(-1808.64 -675.634)" fill="#464545" stroke="#464545" stroke-miterlimit="10" stroke-width="0.1"/><path d="M1841.166,707.361l-.14-.178h-.552v.558h.4Z" transform="translate(-1808.393 -676.766)" fill="#464545" stroke="#464545" stroke-miterlimit="10" stroke-width="0.1"/><path d="M1841.691,708.638l.292.377h.313v-.756h-.313Z" transform="translate(-1807.791 -676.232)" fill="#464545" stroke="#464545" stroke-miterlimit="10" stroke-width="0.1"/><path d="M1841.691,707.361l.292.38h.313v-.558h-.467Z" transform="translate(-1807.791 -676.766)" fill="#464545" stroke="#464545" stroke-miterlimit="10" stroke-width="0.1"/><path d="M1841.868,709.5h.339v-.035h-.313Z" transform="translate(-1807.702 -675.634)" fill="#464545" stroke="#464545" stroke-miterlimit="10" stroke-width="0.1"/><path d="M1842.1,709.255l-.292-.377h-.4v.756h.4Z" transform="translate(-1807.929 -675.926)" fill="#464545" stroke="#464545" stroke-miterlimit="10" stroke-width="0.1"/><path d="M1842.1,708.045l-.292-.38h-.4v.759h.4Z" transform="translate(-1807.929 -676.527)" fill="#464545" stroke="#464545" stroke-miterlimit="10" stroke-width="0.1"/><path d="M1841.166,708.641l-.292-.382h-.4v.756h.4Z" transform="translate(-1808.393 -676.232)" fill="#464545" stroke="#464545" stroke-miterlimit="10" stroke-width="0.1"/><path d="M1839.873,707.361l.14-.178h-.479v.683h.409l.318.418-.318.418h-.409v.976h.409l.318.418-.318.415h-.409v.126h.6l.053-.07h.371v-.981h-.371l-.318-.412.318-.421h.371v-.972h-.371Z" transform="translate(-1808.859 -676.766)" fill="#464545" stroke="#464545" stroke-miterlimit="10" stroke-width="0.1"/><path d="M1841.768,707.361l.143-.178h-.5v.683h.429l.318.418-.318.418h-.429v.976h.429l.318.418-.318.415h-.429v.126h.625l.052-.07h.345v-.981h-.345l-.321-.412.321-.421h.345v-.972h-.345Z" transform="translate(-1807.929 -676.766)" fill="#464545" stroke="#464545" stroke-miterlimit="10" stroke-width="0.1"/><path d="M1839.8,707.361l.292.38h.339v-.558h-.5Z" transform="translate(-1808.727 -676.766)" fill="#464545" stroke="#464545" stroke-miterlimit="10" stroke-width="0.1"/><rect width="1.44" height="3.452" transform="translate(28.862 30.417)" fill="#464545" stroke="#464545" stroke-miterlimit="10" stroke-width="0.1"/><path d="M1841.347,707.085v-.035h-.315l-.187-.239a.256.256,0,0,0-.07-.021l.229.295Z" transform="translate(-1808.244 -676.96)" fill="#464545" stroke="#464545" stroke-miterlimit="10" stroke-width="0.1"/><path d="M1839.534,706.466h.287c-.033-.012-.073-.022-.112-.037h-.175Z" transform="translate(-1808.859 -677.139)" fill="#464545" stroke="#464545" stroke-miterlimit="10" stroke-width="0.1"/><path d="M1839.914,707.2h-.38v.037h.41l.317-.417-.233-.307c-.025-.012-.055-.021-.079-.03l.254.336Z" transform="translate(-1808.859 -677.112)" fill="#464545" stroke="#464545" stroke-miterlimit="10" stroke-width="0.1"/><path d="M1840.9,710.653h-.429v.041h.4l.292.379-.231.295h.058l.228-.295Z" transform="translate(-1808.393 -675.046)" fill="#464545" stroke="#464545" stroke-miterlimit="10" stroke-width="0.1"/><path d="M1841.411,707h.178l-.154-.037h-.024Z" transform="translate(-1807.929 -676.875)" fill="#464545" stroke="#464545" stroke-miterlimit="10" stroke-width="0.1"/><path d="M1839.9,707.262l-.14.178.318.418h.371v-.038h-.339l-.292-.38.134-.178.158-.2h.339v-.035h-.371Z" transform="translate(-1808.746 -676.845)" fill="#464545" stroke="#464545" stroke-miterlimit="10" stroke-width="0.1"/><path d="M1840.111,710.694h.339v-.041h-.371l-.318.42.231.295h.055l-.228-.295Z" transform="translate(-1808.746 -675.046)" fill="#464545" stroke="#464545" stroke-miterlimit="10" stroke-width="0.1"/><path d="M1839.914,710.1l.289.38-.289.38h-.38v.035h.409l.318-.415-.318-.418h-.409v.038Z" transform="translate(-1808.859 -675.34)" fill="#464545" stroke="#464545" stroke-miterlimit="10" stroke-width="0.1"/><path d="M1842,710.694h.313v-.041h-.345l-.321.42.231.295h.061l-.231-.295Z" transform="translate(-1807.811 -675.046)" fill="#464545" stroke="#464545" stroke-miterlimit="10" stroke-width="0.1"/><path d="M1840.716,710.478l.315.418h.345v-.038h-.315l-.292-.38.292-.38h.315v-.035h-.345Z" transform="translate(-1808.273 -675.339)" fill="#464545" stroke="#464545" stroke-miterlimit="10" stroke-width="0.1"/><path d="M1841.811,710.1l.292.38-.292.38h-.4v.035h.429l.318-.415-.318-.418h-.429v.038Z" transform="translate(-1807.929 -675.34)" fill="#464545" stroke="#464545" stroke-miterlimit="10" stroke-width="0.1"/><path d="M1842.159,709.268l-.318-.418h-.429v.041h.4l.292.377-.292.38h-.4v.035h.429Z" transform="translate(-1807.929 -675.939)" fill="#464545" stroke="#464545" stroke-miterlimit="10" stroke-width="0.1"/><path d="M1842.159,708.057l-.318-.418h-.429v.038h.4l.292.38-.292.38h-.4v.038h.429Z" transform="translate(-1807.929 -676.539)" fill="#464545" stroke="#464545" stroke-miterlimit="10" stroke-width="0.1"/><path d="M1840.261,709.268l-.318-.418h-.409v.041h.38l.289.377-.289.38h-.38v.035h.409Z" transform="translate(-1808.859 -675.939)" fill="#464545" stroke="#464545" stroke-miterlimit="10" stroke-width="0.1"/><path d="M1841.918,709.514l-.269.345.321.42h.345v-.038H1842l-.292-.383.266-.345.026-.035h.313v-.035h-.345Z" transform="translate(-1807.811 -675.645)" fill="#464545" stroke="#464545" stroke-miterlimit="10" stroke-width="0.1"/><path d="M1840.261,708.057l-.318-.418h-.409v.038h.38l.289.38-.289.38h-.38v.038h.409Z" transform="translate(-1808.859 -676.539)" fill="#464545" stroke="#464545" stroke-miterlimit="10" stroke-width="0.1"/><path d="M1841.221,708.655l-.319-.423h-.429v.041h.4l.292.382-.292.374h-.4v.041h.429Z" transform="translate(-1808.393 -676.246)" fill="#464545" stroke="#464545" stroke-miterlimit="10" stroke-width="0.1"/><path d="M1840.474,709.444v.035h.4l.029.035.263.345-.292.383h-.4v.038h.429l.319-.42-.266-.345-.053-.07Z" transform="translate(-1808.393 -675.645)" fill="#464545" stroke="#464545" stroke-miterlimit="10" stroke-width="0.1"/><path d="M1841.221,707.44l-.137-.178-.181-.239h-.429v.041h.4l.152.2.14.178-.292.38h-.4v.038h.429Z" transform="translate(-1808.393 -676.845)" fill="#464545" stroke="#464545" stroke-miterlimit="10" stroke-width="0.1"/><path d="M1841.649,708.652l.321.412h.345v-.035H1842l-.292-.377.292-.38h.313v-.041h-.345Z" transform="translate(-1807.811 -676.246)" fill="#464545" stroke="#464545" stroke-miterlimit="10" stroke-width="0.1"/><path d="M1840.716,709.267l.315.415h.345v-.035h-.315l-.292-.38.292-.377h.315v-.038h-.345Z" transform="translate(-1808.273 -675.938)" fill="#464545" stroke="#464545" stroke-miterlimit="10" stroke-width="0.1"/><path d="M1840.716,708.056l.315.418h.345v-.035h-.315l-.292-.383.292-.377h.315v-.038h-.345Z" transform="translate(-1808.273 -676.538)" fill="#464545" stroke="#464545" stroke-miterlimit="10" stroke-width="0.1"/><path d="M1840.026,709.514l-.266.345.318.42h.371v-.038h-.339l-.292-.383.263-.345.029-.035h.339v-.035h-.371Z" transform="translate(-1808.746 -675.645)" fill="#464545" stroke="#464545" stroke-miterlimit="10" stroke-width="0.1"/><path d="M1841.649,707.423l.322.417h.345V707.8H1842l-.293-.38.137-.178.135-.177a.264.264,0,0,1-.052-.01l-.138.187Z" transform="translate(-1807.811 -676.827)" fill="#464545" stroke="#464545" stroke-miterlimit="10" stroke-width="0.1"/><path d="M1839.761,708.652l.318.412h.371v-.035h-.339l-.292-.377.292-.38h.339v-.041h-.371Z" transform="translate(-1808.746 -676.246)" fill="#464545" stroke="#464545" stroke-miterlimit="10" stroke-width="0.1"/><path d="M1842.356,707.191v-.021l-.027,0V713.1h.027v-5.905Z" transform="translate(-1807.474 -676.773)" fill="#464545" stroke="#464545" stroke-miterlimit="10" stroke-width="0.1"/><path d="M1842.191,707.14c-.028-.009-.058-.015-.1-.024v6.005h.1Z" transform="translate(-1807.59 -676.798)" fill="#464545" stroke="#464545" stroke-miterlimit="10" stroke-width="0.1"/><path d="M1842.413,707.184l-.254-.052v5.981h.254Z" transform="translate(-1807.558 -676.791)" fill="#464545" stroke="#464545" stroke-miterlimit="10" stroke-width="0.1"/><path d="M1841.419,712.4V706.96a.042.042,0,0,0-.025-.006V713.2h.025v-.8Z" transform="translate(-1807.937 -676.879)" fill="#464545" stroke="#464545" stroke-miterlimit="10" stroke-width="0.1"/><path d="M1841.254,706.914a.918.918,0,0,1-.1-.022v6.34h.1Z" transform="translate(-1808.054 -676.909)" fill="#464545" stroke="#464545" stroke-miterlimit="10" stroke-width="0.1"/><path d="M1841.479,706.977c-.088-.027-.17-.046-.257-.07v6.318h.257Z" transform="translate(-1808.023 -676.902)" fill="#464545" stroke="#464545" stroke-miterlimit="10" stroke-width="0.1"/><path d="M1840.484,712.615V706.7a.11.11,0,0,0-.03-.009v6.639h.03v-.716Z" transform="translate(-1808.403 -677.008)" fill="#464545" stroke="#464545" stroke-miterlimit="10" stroke-width="0.1"/><path d="M1840.315,706.651c-.029-.012-.064-.018-.093-.027v6.741h.093Z" transform="translate(-1808.518 -677.042)" fill="#464545" stroke="#464545" stroke-miterlimit="10" stroke-width="0.1"/><path d="M1840.538,706.717c-.085-.028-.172-.046-.254-.075v6.714h.254Z" transform="translate(-1808.487 -677.033)" fill="#464545" stroke="#464545" stroke-miterlimit="10" stroke-width="0.1"/><path d="M1839.375,706.322a.567.567,0,0,1-.091-.036v7.246h.091Z" transform="translate(-1808.982 -677.21)" fill="#464545" stroke="#464545" stroke-miterlimit="10" stroke-width="0.1"/><path d="M1839.542,712.683v-6.291l-.023-.012v7.106h.023v-.8Z" transform="translate(-1808.866 -677.163)" fill="#464545" stroke="#464545" stroke-miterlimit="10" stroke-width="0.1"/><path d="M1839.605,706.415c-.089-.036-.174-.067-.26-.1v7.21h.26Z" transform="translate(-1808.952 -677.198)" fill="#464545" stroke="#464545" stroke-miterlimit="10" stroke-width="0.1"/><path d="M1840.214,694.239a5.844,5.844,0,0,0-1.02.368,3.316,3.316,0,0,0,2.591.668,11.691,11.691,0,0,1,.108-1.2A4.941,4.941,0,0,0,1840.214,694.239Z" transform="translate(-1809.027 -683.266)" fill="#464545" stroke="#464545" stroke-miterlimit="10" stroke-width="0.1"/><path d="M1838.574,695.58l-.175-.179c-.03.027-.051.048-.077.07-.211.211-.42.441-.625.683a10.522,10.522,0,0,0-1.087,1.563,1.5,1.5,0,0,0,2.05.006A1.52,1.52,0,0,0,1838.574,695.58Z" transform="translate(-1810.307 -682.601)" fill="#464545" stroke="#464545" stroke-miterlimit="10" stroke-width="0.1"/><path d="M1841.035,694.192a11.621,11.621,0,0,0-.108,1.2,1.018,1.018,0,0,0,.417-.239l1.352-1.332h-1.6C1841.066,693.941,1841.055,694.072,1841.035,694.192Z" transform="translate(-1808.169 -683.384)" fill="#464545" stroke="#464545" stroke-miterlimit="10" stroke-width="0.1"/><g transform="translate(26.175 20.293)"><path d="M1836.659,700.726c-.154,1.969-.715,5.917,2.552,7.8.109.061.2.132.318.187.348.169.727.327,1.121.482a.581.581,0,0,0,.091.036c.087.037.172.069.26.1l.023.012c.061.016.117.04.175.061.039.015.079.025.112.037s.084.03.127.043c.024.009.054.018.079.03.175.058.351.117.535.181.028.009.064.015.093.027.082.028.169.046.254.075a.11.11,0,0,1,.03.009c.148.045.3.094.449.138a.258.258,0,0,1,.07.021c.167.043.339.087.5.132a.916.916,0,0,0,.1.022c.087.024.169.043.257.07a.042.042,0,0,1,.026.006c.009,0,.021,0,.024.006l.154.037c.15.036.31.07.459.106a.264.264,0,0,0,.052.01c.114.024.222.051.333.076.038.009.068.015.1.024l.254.052.027,0c.031.009.061.015.09.021.438.087.885.172,1.35.248a55.743,55.743,0,0,0,10.484.7,54.457,54.457,0,0,0,11.328-.846c.171-.031.34-.067.509-.1.316-.064.625-.135.929-.2.039-.009.061-.012.094-.021.086-.019.172-.037.257-.061l.031-.006h0l.152-.037.28-.07a.279.279,0,0,1,.073-.021c.172-.046.348-.093.514-.139a.737.737,0,0,0,.1-.024l.257-.079.027-.006c.145-.043.289-.09.429-.126.022-.011.052-.016.073-.025.181-.052.347-.117.522-.175l.094-.033c.081-.028.175-.058.26-.09l.023-.006.006,0c.2-.07.386-.147.576-.22a.16.16,0,0,1,.043-.019c.131-.054.272-.109.4-.161.034-.015.067-.028.1-.043.088-.036.173-.076.254-.114l.027-.012c.093-.04.19-.082.28-.126a4.647,4.647,0,0,0,1.157-.8c2.523-2.316,1.8-6.75,1.676-7.4l-.015-.081c.141-.327-1.425,3.058-.592,1.379-.643,1.7.329-.2.329-.2-.052.9-.616,2.062-2.946,2.587-3.821.864-10.354,1.341-17.238,1.265-6.88.076-13.413-.4-17.231-1.265a8.725,8.725,0,0,1-3.214-1.256" transform="translate(-1836.524 -700.412)" fill="#464545" stroke="#464545" stroke-miterlimit="10" stroke-width="0.1"/></g><g transform="translate(33.911 9.477)"><path d="M1868.822,694.178c-.018-.118-.03-.244-.053-.357h-23a9.169,9.169,0,0,1-2.742,6.349,9.074,9.074,0,0,1-1.327,1.081,18,18,0,0,0,6.014,7.655c2.523.085,4.992.088,7.33.079,2.24-.015,4.489-.03,6.756-.108,4.275-3.046,7.158-8.459,7.158-13.065A10.8,10.8,0,0,0,1868.822,694.178Z" transform="translate(-1841.698 -692.861)" fill="#464545" stroke="#464545" stroke-miterlimit="10" stroke-width="0.1"/><path d="M1866.7,693.179h-3.444a.965.965,0,0,0-.884.647,1.122,1.122,0,0,0-.076.419v1.682h0a1.017,1.017,0,0,0,.96,1.065h3.444a1.018,1.018,0,0,0,.964-1.065v-1.682A1.018,1.018,0,0,0,1866.7,693.179Z" transform="translate(-1831.497 -693.179)" fill="#464545" stroke="#464545" stroke-miterlimit="10" stroke-width="0.1"/></g><path d="M1841.839,700.683a2.086,2.086,0,1,1-4.171-.043,2.26,2.26,0,0,1,.12-.661c-.039,0-.067,0-.106,0a2.19,2.19,0,1,0,4.25.71,2.256,2.256,0,0,0-.319-1.189.849.849,0,0,1-.1.036A2.21,2.21,0,0,1,1841.839,700.683Z" transform="translate(-1809.831 -680.572)" fill="#464545" stroke="#464545" stroke-miterlimit="10" stroke-width="0.1"/><path d="M1834.839,698.619c.111.111.23.223.347.328a8.3,8.3,0,0,1-1.878-3.61c-.19-.091-.38-.161-.567-.239A8.326,8.326,0,0,0,1834.839,698.619Z" transform="translate(-1812.223 -682.752)" fill="#464545" stroke="#464545" stroke-miterlimit="10" stroke-width="0.1"/><path d="M1836.686,699.674a.309.309,0,0,0,.057.027c.058.013.116.034.169.049l.049-.045c-.083-.013-.16-.04-.239-.06A.148.148,0,0,1,1836.686,699.674Z" transform="translate(-1810.27 -680.498)" fill="#464545" stroke="#464545" stroke-miterlimit="10" stroke-width="0.1"/><path d="M1838.186,695.219c-.061-.19-.1-.384-.141-.577l-18.633,18.635c-.944.941-.125,3.275,1.817,5.223s4.284,2.756,5.222,1.82l17.19-17.195.646-.645c-.058-.018-.117-.039-.172-.055a.478.478,0,0,1-.049-.024L1826.3,720.17c-.839.837-3.091.006-4.918-1.82a7.551,7.551,0,0,1-2.071-3.367,8.367,8.367,0,0,0,1.8,2.564c1.829,1.833,4.079,2.663,4.924,1.82,0,0,14.647-14.65,17.944-17.941a9.2,9.2,0,0,1-5.334-4.93" transform="translate(-1819.02 -682.977)" fill="#464545" stroke="#464545" stroke-miterlimit="10" stroke-width="0.1"/><path d="M1836.815,699.672c-.1-.024-.214-.051-.315-.079.093.037.19.076.28.108A.144.144,0,0,0,1836.815,699.672Z" transform="translate(-1810.362 -680.525)" fill="#464545" stroke="#464545" stroke-miterlimit="10" stroke-width="0.1"/><path d="M1832.826,696.22c-.093-.242-.178-.49-.248-.739-.055-.151-.126-.3-.178-.459l-.7.7c.039.115.07.226.11.333.1-.088.159-.158.2-.2C1832.286,695.963,1832.556,696.088,1832.826,696.22Z" transform="translate(-1812.74 -682.789)" fill="#464545" stroke="#464545" stroke-miterlimit="10" stroke-width="0.1"/><path d="M1836.255,700.377a1.282,1.282,0,0,0,.175.057l.049.019.7-.7a.222.222,0,0,1-.055-.02c-.052-.015-.111-.036-.169-.049C1836.825,699.812,1836.583,700.051,1836.255,700.377Z" transform="translate(-1810.483 -680.48)" fill="#464545" stroke="#464545" stroke-miterlimit="10" stroke-width="0.1"/><path d="M1837.153,699.75c-.09-.031-.187-.07-.28-.108-.156-.043-.3-.1-.448-.15l-.683.683c.236.1.475.193.719.275a.173.173,0,0,0,.047.019c.327-.326.57-.565.7-.694A.313.313,0,0,1,1837.153,699.75Z" transform="translate(-1810.737 -680.574)" fill="#464545" stroke="#464545" stroke-miterlimit="10" stroke-width="0.1"/><path d="M1831.968,695.579c-.037.037-.1.108-.2.2a11.217,11.217,0,0,0,.474,1.121c.269-.266.45-.444.525-.523.079.036.161.073.241.112-.076-.181-.156-.36-.223-.541C1832.52,695.812,1832.249,695.687,1831.968,695.579Z" transform="translate(-1812.703 -682.513)" fill="#464545" stroke="#464545" stroke-miterlimit="10" stroke-width="0.1"/><path d="M1832.194,699.66c.064.181.144.359.221.54a9.2,9.2,0,0,0,5.334,4.93.255.255,0,0,1,.047.016c.152.051.3.109.45.149.1.03.209.052.316.082.081.02.16.04.239.058a10.694,10.694,0,0,0,1.159.2c.036,0,.07,0,.1,0,.135.01.265.013.4.022.1,0,.211.018.313.021a9.233,9.233,0,0,0,2.427-.315c.058-.015.119-.024.178-.041.14-.042.278-.091.41-.138a.616.616,0,0,0,.1-.033,9.153,9.153,0,0,0,2.13-1.057,9.384,9.384,0,0,0,3.674-10.434l-3.058,3.006L1845.281,698a1.11,1.11,0,0,1-.417.242,3.329,3.329,0,0,1-2.591-.674,8.149,8.149,0,0,1-1.008-.775c-.136-.123-.276-.242-.408-.378-.041-.042-.079-.088-.12-.138-1.545-1.636-2.173-3.539-1.391-4.311l4.415-4.333a9.242,9.242,0,0,0-11.95,10.712c.043.193.079.387.141.577C1832.022,699.171,1832.1,699.416,1832.194,699.66Zm8.191-.459a1.473,1.473,0,1,1-2.078,2.077l-2.289-2.291a1.472,1.472,0,1,1,2.075-2.078Zm-5.666-8.919a8.307,8.307,0,0,1,6.922-2.366c-.2.19-.4.4-.619.619a8.347,8.347,0,0,0-5.948,13.89c-.12-.108-.236-.215-.354-.331a8.359,8.359,0,0,1,0-11.813Z" transform="translate(-1812.785 -686.681)" fill="#464545" stroke="#464545" stroke-miterlimit="10" stroke-width="0.1"/><path d="M1834.96,694.066a1.518,1.518,0,0,1,2.141.09l1.793,1.791.322.317.175.179a1.52,1.52,0,0,1,.087,2.143,1.524,1.524,0,0,0-.075-2.152l-2.291-2.291A1.524,1.524,0,0,0,1834.96,694.066Z" transform="translate(-1811.124 -683.464)" fill="#464545" stroke="#464545" stroke-miterlimit="10" stroke-width="0.1"/><path d="M1837.564,698.445c-.031-.025-.064-.049-.1-.076l-2.286-2.3a1.515,1.515,0,0,1-.085-2.143,1.52,1.52,0,0,0,.076,2.155l2.283,2.3a1.531,1.531,0,0,0,2.158.07A1.5,1.5,0,0,1,1837.564,698.445Z" transform="translate(-1811.261 -683.329)" fill="#464545" stroke="#464545" stroke-miterlimit="10" stroke-width="0.1"/><path d="M1842.715,705.849c2.633.332,5.271.508,7.85.6a18,18,0,0,1-6.014-7.655,9.234,9.234,0,0,1-2.129,1.057,2.258,2.258,0,0,1,.319,1.189,2.181,2.181,0,1,1-4.36-.046,2.187,2.187,0,0,1,.111-.664,9.706,9.706,0,0,1-1.159-.2l-.049.045a.218.218,0,0,0,.055.019l-.7.7-.049-.019-.649.647a7.825,7.825,0,0,0,1.011,2.512c.033-.181.052-.29.052-.29A31.35,31.35,0,0,0,1842.715,705.849Z" transform="translate(-1810.64 -680.922)" fill="#464545" stroke="#464545" stroke-miterlimit="10" stroke-width="0.1"/><path d="M1866.8,696.556a1.017,1.017,0,0,1-.96-1.065,6.9,6.9,0,0,0-2.047-1.14,5.412,5.412,0,0,0-1.627-.292,10.785,10.785,0,0,1,.134,1.634c0,4.606-2.883,10.019-7.158,13.065,2.494-.079,5.026-.241,7.607-.567a31.374,31.374,0,0,0,5.634-2.1l.015.082c2.1-3.683.622-7.2-1.25-9.4-.064-.073-.123-.147-.19-.214Zm-1.249,9.581a2.25,2.25,0,1,1,2.2-2.228A2.229,2.229,0,0,1,1865.549,706.136Z" transform="translate(-1801.129 -683.265)" fill="#464545" stroke="#464545" stroke-miterlimit="10" stroke-width="0.1"/></g></g></svg>