<svg xmlns="http://www.w3.org/2000/svg" width="57.35" height="41.81" viewBox="0 0 57.35 41.81"><g transform="translate(5449.224 -5965.867)"><g transform="translate(-6087.927 5588.545)"><path d="M3795.858,312.711A26.275,26.275,0,0,1,3816.85,323.2l7.737-7.741a37.169,37.169,0,0,0-57.35-.138l7.738,7.737A26.242,26.242,0,0,1,3795.858,312.711Z" transform="translate(-3128.535 75.457)" fill="#464545"/><path d="M3790,319.5c4.255,0,7.821,2.369,8.717,5.521l9.306-7.369c-3.77-4.76-10.424-7.927-18.022-7.927-7.519,0-14.1,3.089-17.892,7.754l9.26,7.339C3782.361,321.761,3785.829,319.5,3790,319.5Z" transform="translate(-3122.872 84.597)" fill="#464545"/><path d="M3777.832,321.621a5.565,5.565,0,1,0,5.561-5.764A5.66,5.66,0,0,0,3777.832,321.621Z" transform="translate(-3116.205 91.737)" fill="#464545"/></g></g></svg>