<svg xmlns="http://www.w3.org/2000/svg" xmlns:xlink="http://www.w3.org/1999/xlink" width="100" height="73" viewBox="0 0 100 73"><defs><filter id="a" x="0" y="0" width="100" height="73" filterUnits="userSpaceOnUse"><feOffset dy="3" input="SourceAlpha"/><feGaussianBlur stdDeviation="3" result="b"/><feFlood flood-color="#464545"/><feComposite operator="in" in2="b"/><feComposite in="SourceGraphic"/></filter></defs><g transform="translate(-853.108 -300.13)"><g transform="matrix(1, 0, 0, 1, 853.11, 300.13)" filter="url(#a)"><rect width="82" height="55" rx="8" transform="translate(9 6)" fill="#227c26"/></g><g transform="translate(926.714 353.682) rotate(180)"><g transform="translate(0)"><path d="M1.139,40.5a.78.78,0,0,1-.933-.286.821.821,0,0,1-.052-1.023c1.265-2.118,2.545-4.222,3.821-6.34.548-.69,1.524-2.37,1.709-2.675a27.788,27.788,0,0,1,2.6-3.7c.69-1.2,1.4-2.394,2.146-3.565a4.435,4.435,0,0,0,.087-4.955c-.7-1.195-1.362-2.408-2.019-3.627-1.084-2.018-2.593-3.97-3.669-6a5.749,5.749,0,0,0-.942-1.485C2.686,4.686,2,3.473.8,1.3A.814.814,0,0,1,.935.3a.791.791,0,0,1,1-.2c1.013.443,2.032.9,3.044,1.361A3.828,3.828,0,0,0,5.931,2C7.06,2.44,8.022,3.273,9.139,3.73c1.342.543,2.632,1.176,3.951,1.756,1.742.671,3.394,1.537,5.13,2.223,1.57.685,3.123,1.423,4.708,2.075,1.342.614,2.689,1.2,4.059,1.78,1.267.557,2.528,1.147,3.813,1.68,1.277.557,2.52,1.147,3.8,1.671,1.293.581,2.593,1.152,3.888,1.723,1.742.738,3.465,1.537,5.2,2.28.695.29,1.395.571,2.062.919a1.26,1.26,0,0,1,.429,2.123,2.281,2.281,0,0,1-.791.476c-.6.233-1.181.471-1.769.7" transform="translate(0)" fill="#ffe400" fill-rule="evenodd"/></g></g></g></svg>