<svg xmlns="http://www.w3.org/2000/svg" xmlns:xlink="http://www.w3.org/1999/xlink" width="95.844" height="68.91" viewBox="0 0 95.844 68.91"><defs><radialGradient id="a" cx="0.5" cy="0.5" r="1.815" gradientTransform="matrix(0.278, 0.018, -0.005, 1, 0.363, -0.009)" gradientUnits="objectBoundingBox"><stop offset="0" stop-opacity="0"/><stop offset="1" stop-color="#545454" stop-opacity="0"/></radialGradient><filter id="b" x="0" y="15.077" width="90.288" height="39.822" filterUnits="userSpaceOnUse"><feOffset dy="3" input="SourceAlpha"/><feGaussianBlur stdDeviation="3" result="c"/><feFlood flood-opacity="0.161"/><feComposite operator="in" in2="c"/><feComposite in="SourceGraphic"/></filter></defs><g transform="translate(-577.616 -501)"><g transform="translate(579 501)"><path d="M13.328,0h67.8A13.328,13.328,0,0,1,94.46,13.328v42.25A13.332,13.332,0,0,1,81.128,68.91h-67.8A13.332,13.332,0,0,1,0,55.578V13.328A13.328,13.328,0,0,1,13.328,0Z" fill="#227c26"/></g><g transform="translate(587.489 523)"><g transform="translate(37.21 13.953)"><g transform="translate(0 3.352)"><path d="M136.427,63.207V54.676h2.264v8.531Zm5.738,0H139.14V61.075h4.545Z" transform="translate(-136.427 -54.676)" fill="#ffe400"/><path d="M156.826,63.207V61.922h-2.745l-.886,1.285h-2.7l5.331-7.74a1.824,1.824,0,0,1,2.753-.295,1.557,1.557,0,0,1,.527,1.169v3.03h-2.278V57.942l-1.3,1.852H159.1v3.414Z" transform="translate(-143.206 -54.676)" fill="#ffe400"/><path d="M177.483,63.207V57.942c-.359.609-.649,1.1-.875,1.481q-1.182,1.944-2.309,1.945-1.109,0-2.293-1.932c-.3-.492-.6-.993-.885-1.493v5.265h-2.264V56.341a1.558,1.558,0,0,1,.518-1.176,1.769,1.769,0,0,1,1.255-.489q1.25,0,2.645,2.219.507.863,1.026,1.719c.293-.491.587-.987.889-1.479a9.565,9.565,0,0,1,1.221-1.67,2.265,2.265,0,0,1,1.565-.791,1.76,1.76,0,0,1,1.253.489,1.561,1.561,0,0,1,.521,1.176v6.866Z" transform="translate(-152.056 -54.676)" fill="#ffe400"/><path d="M197.75,60.641h-3.855v2.567h-2.279v-5.98h2.279v1.284h2.716V56.8h-4.995V54.676h6.134a1.119,1.119,0,0,1,.732.368,1.011,1.011,0,0,1,.4.687v3.85a.983.983,0,0,1-.354.727A1.1,1.1,0,0,1,197.75,60.641Z" transform="translate(-163.024 -54.676)" fill="#ffe400"/></g><g transform="translate(34.94)"><path d="M210.2,59.808a.321.321,0,0,0,.354.283l1.831-.135a.319.319,0,0,0,.3-.332.326.326,0,0,0-.356-.285l-1.831.135A.315.315,0,0,0,210.2,59.808Z" transform="translate(-206.922 -53.571)" fill="#ffe400" stroke="#ffe400" stroke-linejoin="round" stroke-width="0.5"/><path d="M209.339,64.962a.327.327,0,0,0-.035.162.313.313,0,0,0,.184.253l1.641.777a.356.356,0,0,0,.25.017.336.336,0,0,0,.194-.155.349.349,0,0,0,.035-.165.312.312,0,0,0-.182-.25l-1.643-.776a.337.337,0,0,0-.444.138Z" transform="translate(-206.489 -56.199)" fill="#ffe400" stroke="#ffe400" stroke-linejoin="round" stroke-width="0.5"/><path d="M206.788,70.31a.3.3,0,0,0,.1-.427l-.978-1.464a.343.343,0,0,0-.455-.1.3.3,0,0,0-.152.285.282.282,0,0,0,.049.142l.978,1.464A.343.343,0,0,0,206.788,70.31Z" transform="translate(-204.563 -57.877)" fill="#ffe400" stroke="#ffe400" stroke-linejoin="round" stroke-width="0.5"/><path d="M208.544,53.239a.309.309,0,0,0-.135.277.336.336,0,0,0,.058.157.353.353,0,0,0,.219.125.348.348,0,0,0,.246-.053l1.488-1.012a.3.3,0,0,0,.138-.275.287.287,0,0,0-.063-.157.318.318,0,0,0-.213-.123.327.327,0,0,0-.245.054Z" transform="translate(-206.058 -50.118)" fill="#ffe400" stroke="#ffe400" stroke-linejoin="round" stroke-width="0.5"/><path d="M204.324,50.394a.319.319,0,0,0,.181-.167l.717-1.591a.29.29,0,0,0,.027-.145.312.312,0,0,0-.2-.261.353.353,0,0,0-.25,0,.307.307,0,0,0-.18.167l-.722,1.589a.3.3,0,0,0-.024.145.311.311,0,0,0,.2.261A.348.348,0,0,0,204.324,50.394Z" transform="translate(-203.871 -48.207)" fill="#ffe400" stroke="#ffe400" stroke-linejoin="round" stroke-width="0.5"/></g></g><g transform="translate(5.535 11.947)"><path d="M96.067,52.864V51.58H93.324l-.888,1.285h-2.7l5.336-7.74a1.729,1.729,0,0,1,1.5-.791,1.749,1.749,0,0,1,1.247.5A1.559,1.559,0,0,1,98.348,46v3.03H96.067V47.6l-1.3,1.852h3.578v3.414Z" transform="translate(-82.249 -44.334)" fill="#ffe400"/><path d="M114.409,52.864h-5.065l-1.518-2.132H112.5l-3.859-3.848h3.108q1.327,1.3,2.647,2.578,1.142,1.245,1.139,1.693v.636a1,1,0,0,1-.336.754A1.124,1.124,0,0,1,114.409,52.864Zm-6.134-6.4V45.39a1,1,0,0,1,.329-.747,1.148,1.148,0,0,1,.811-.309h4.6l1.517,2.126Z" transform="translate(-90.968 -44.334)" fill="#ffe400"/><path d="M129.038,49.517v3.347h-2.266V49.517L123.2,44.334h2.7l2,2.895,2-2.895h2.7Z" transform="translate(-98.376 -44.334)" fill="#ffe400"/><path d="M81.028,52.864H75.287v-8.53H86.244l-1.921,2.1-6.755.032v4.27h4.98Zm-1.351-3.2h-1.66V47.534H81.2Z" transform="translate(-75.287 -44.334)" fill="#ffe400"/></g><g transform="matrix(1, 0, 0, 1, -9.87, -22)" filter="url(#b)"><path d="M134.683,32.59c-1.009-.5-2.887-1.338-6.578-2.928-1.854-.8-5.686-2.057-7.274-3.064-5.311-3.358-6.186-4.046-11.6-4.8-16.568-2.31-23,3.693-27.974,4.514-13.649,2.246-14.261,6.1-14.261,6.1a1.243,1.243,0,0,1-.39.4l-.494.075a1.428,1.428,0,0,0-1.194,1.256c-.439,3.821-.634,4.4,1.043,6.628" transform="translate(-54.74 0.73)" stroke="#ffe400" stroke-linecap="round" stroke-linejoin="round" stroke-miterlimit="10" stroke-width="2" fill="url(#a)"/></g></g></g></svg>